<?xml version="1.0" encoding="UTF-8" standalone="no"?>
<!DOCTYPE svg PUBLIC "-//W3C//DTD SVG 1.1//EN"
 "http://www.w3.org/Graphics/SVG/1.1/DTD/svg11.dtd">
<!-- Generated by graphviz version 2.50.0 (0)
 -->
<!-- Title: AnsibleDs389Server Pages: 1 -->
<svg width="668pt" height="332pt"
 viewBox="0.00 0.00 667.50 332.00" xmlns="http://www.w3.org/2000/svg" xmlns:xlink="http://www.w3.org/1999/xlink">
<g id="graph0" class="graph" transform="scale(1 1) rotate(0) translate(4 328)">
<title>AnsibleDs389Server</title>
<polygon fill="white" stroke="transparent" points="-4,4 -4,-328 663.5,-328 663.5,4 -4,4"/>
<!-- title -->
<g id="node1" class="node">
<title>title</title>
<text text-anchor="middle" x="172" y="-301.6" font-family="Times,serif" font-size="18.00">389ds configuration through ansible</text>
</g>
<!-- inventory -->
<g id="node2" class="node">
<title>inventory</title>
<path fill="none" stroke="red" d="M448,-320.73C448,-322.53 428.73,-324 405,-324 381.27,-324 362,-322.53 362,-320.73 362,-320.73 362,-291.27 362,-291.27 362,-289.47 381.27,-288 405,-288 428.73,-288 448,-289.47 448,-291.27 448,-291.27 448,-320.73 448,-320.73"/>
<path fill="none" stroke="red" d="M448,-320.73C448,-318.92 428.73,-317.45 405,-317.45 381.27,-317.45 362,-318.92 362,-320.73"/>
<text text-anchor="middle" x="405" y="-302.3" font-family="Times,serif" font-size="14.00">Inventory</text>
</g>
<!-- playbook -->
<g id="node3" class="node">
<title>playbook</title>
<polygon fill="none" stroke="red" points="445.5,-252 364.5,-252 364.5,-216 445.5,-216 445.5,-252"/>
<text text-anchor="middle" x="405" y="-230.3" font-family="Times,serif" font-size="14.00">Playbook</text>
</g>
<!-- inventory&#45;&gt;playbook -->
<g id="edge1" class="edge">
<title>inventory&#45;&gt;playbook</title>
<path fill="none" stroke="black" d="M405,-287.7C405,-279.98 405,-270.71 405,-262.11"/>
<polygon fill="black" stroke="black" points="408.5,-262.1 405,-252.1 401.5,-262.1 408.5,-262.1"/>
</g>
<!-- ds389_server -->
<g id="node4" class="node">
<title>ds389_server</title>
<polygon fill="none" stroke="red" points="365,-180 155,-180 155,-144 365,-144 365,-180"/>
<text text-anchor="middle" x="260" y="-158.3" font-family="Times,serif" font-size="14.00">ds389_server action plugin</text>
</g>
<!-- inventory&#45;&gt;ds389_server -->
<g id="edge2" class="edge">
<title>inventory&#45;&gt;ds389_server</title>
<path fill="none" stroke="black" d="M387.51,-287.87C361.93,-262.82 314.17,-216.05 284.92,-187.41"/>
<polygon fill="black" stroke="black" points="287.15,-184.69 277.55,-180.19 282.25,-189.69 287.15,-184.69"/>
</g>
<!-- ds389_info -->
<g id="node5" class="node">
<title>ds389_info</title>
<polygon fill="none" stroke="red" points="565,-180 383,-180 383,-144 565,-144 565,-180"/>
<text text-anchor="middle" x="474" y="-158.3" font-family="Times,serif" font-size="14.00">ds389_info facts plugin</text>
</g>
<!-- inventory&#45;&gt;ds389_info -->
<g id="edge5" class="edge">
<title>inventory&#45;&gt;ds389_info</title>
<path fill="none" stroke="black" d="M425.86,-287.87C436.14,-278.34 447.83,-265.67 455,-252 465.07,-232.82 469.8,-208.66 472.03,-190.35"/>
<polygon fill="black" stroke="black" points="475.51,-190.64 473.07,-180.33 468.55,-189.92 475.51,-190.64"/>
</g>
<!-- playbook&#45;&gt;ds389_server -->
<g id="edge3" class="edge">
<title>playbook&#45;&gt;ds389_server</title>
<path fill="none" stroke="black" d="M369.53,-215.88C349.88,-206.39 325.28,-194.51 304.37,-184.42"/>
<polygon fill="black" stroke="black" points="305.88,-181.26 295.36,-180.07 302.84,-187.57 305.88,-181.26"/>
</g>
<!-- playbook&#45;&gt;ds389_info -->
<g id="edge4" class="edge">
<title>playbook&#45;&gt;ds389_info</title>
<path fill="none" stroke="black" d="M416.14,-215.7C423.77,-207.05 434.04,-196.45 443.87,-187.03"/>
<polygon fill="black" stroke="black" points="446.35,-189.5 451.24,-180.1 441.56,-184.4 446.35,-189.5"/>
</g>
<!-- ds389_module_1 -->
<g id="node6" class="node">
<title>ds389_module_1</title>
<polygon fill="none" stroke="blue" points="358,-108 182,-108 182,-72 358,-72 358,-108"/>
<text text-anchor="middle" x="270" y="-86.3" font-family="Times,serif" font-size="14.00">ds389_module module</text>
</g>
<!-- ds389_server&#45;&gt;ds389_module_1 -->
<g id="edge9" class="edge">
<title>ds389_server&#45;&gt;ds389_module_1</title>
<path fill="none" stroke="black" d="M262.47,-143.7C263.57,-135.98 264.9,-126.71 266.13,-118.11"/>
<polygon fill="black" stroke="black" points="269.61,-118.5 267.56,-108.1 262.68,-117.51 269.61,-118.5"/>
</g>
<!-- ds389_module_2 -->
<g id="node9" class="node">
<title>ds389_module_2</title>
<polygon fill="none" stroke="green" points="557,-108 381,-108 381,-72 557,-72 557,-108"/>
<text text-anchor="middle" x="469" y="-86.3" font-family="Times,serif" font-size="14.00">ds389_module module</text>
</g>
<!-- ds389_server&#45;&gt;ds389_module_2 -->
<g id="edge12" class="edge">
<title>ds389_server&#45;&gt;ds389_module_2</title>
<path fill="none" stroke="black" d="M310.86,-143.97C340.19,-134.14 377.25,-121.73 408.12,-111.39"/>
<polygon fill="black" stroke="black" points="409.54,-114.61 417.91,-108.11 407.32,-107.97 409.54,-114.61"/>
</g>
<!-- ds389_info&#45;&gt;playbook -->
<g id="edge8" class="edge">
<title>ds389_info&#45;&gt;playbook</title>
<path fill="none" stroke="black" d="M463.04,-180.1C455.44,-188.72 445.19,-199.32 435.36,-208.76"/>
<polygon fill="black" stroke="black" points="432.86,-206.3 427.97,-215.7 437.66,-211.4 432.86,-206.3"/>
</g>
<!-- ds389_info&#45;&gt;ds389_module_1 -->
<g id="edge6" class="edge">
<title>ds389_info&#45;&gt;ds389_module_1</title>
<path fill="none" stroke="black" d="M424.36,-143.97C395.73,-134.14 359.55,-121.73 329.42,-111.39"/>
<polygon fill="black" stroke="black" points="330.46,-108.05 319.87,-108.11 328.19,-114.67 330.46,-108.05"/>
</g>
<!-- ds389_info&#45;&gt;ds389_module_2 -->
<g id="edge7" class="edge">
<title>ds389_info&#45;&gt;ds389_module_2</title>
<path fill="none" stroke="black" d="M472.76,-143.7C472.21,-135.98 471.55,-126.71 470.94,-118.11"/>
<polygon fill="black" stroke="black" points="474.43,-117.83 470.22,-108.1 467.44,-118.33 474.43,-117.83"/>
</g>
<!-- ds389_instance_11 -->
<g id="node7" class="node">
<title>ds389_instance_11</title>
<path fill="none" stroke="blue" d="M205.5,-32.73C205.5,-34.53 177.49,-36 143,-36 108.51,-36 80.5,-34.53 80.5,-32.73 80.5,-32.73 80.5,-3.27 80.5,-3.27 80.5,-1.47 108.51,0 143,0 177.49,0 205.5,-1.47 205.5,-3.27 205.5,-3.27 205.5,-32.73 205.5,-32.73"/>
<path fill="none" stroke="blue" d="M205.5,-32.73C205.5,-30.92 177.49,-29.45 143,-29.45 108.51,-29.45 80.5,-30.92 80.5,-32.73"/>
<text text-anchor="middle" x="143" y="-14.3" font-family="Times,serif" font-size="14.00">ds389 instance</text>
</g>
<!-- ds389_module_1&#45;&gt;ds389_instance_11 -->
<g id="edge10" class="edge">
<title>ds389_module_1&#45;&gt;ds389_instance_11</title>
<path fill="none" stroke="black" d="M238.93,-71.88C222.17,-62.64 201.29,-51.13 183.3,-41.21"/>
<polygon fill="black" stroke="black" points="184.63,-37.95 174.19,-36.19 181.26,-44.08 184.63,-37.95"/>
</g>
<!-- ds389_instance_12 -->
<g id="node8" class="node">
<title>ds389_instance_12</title>
<path fill="none" stroke="blue" d="M348.5,-32.73C348.5,-34.53 320.49,-36 286,-36 251.51,-36 223.5,-34.53 223.5,-32.73 223.5,-32.73 223.5,-3.27 223.5,-3.27 223.5,-1.47 251.51,0 286,0 320.49,0 348.5,-1.47 348.5,-3.27 348.5,-3.27 348.5,-32.73 348.5,-32.73"/>
<path fill="none" stroke="blue" d="M348.5,-32.73C348.5,-30.92 320.49,-29.45 286,-29.45 251.51,-29.45 223.5,-30.92 223.5,-32.73"/>
<text text-anchor="middle" x="286" y="-14.3" font-family="Times,serif" font-size="14.00">ds389 instance</text>
</g>
<!-- ds389_module_1&#45;&gt;ds389_instance_12 -->
<g id="edge11" class="edge">
<title>ds389_module_1&#45;&gt;ds389_instance_12</title>
<path fill="none" stroke="black" d="M273.96,-71.7C275.72,-63.98 277.84,-54.71 279.8,-46.11"/>
<polygon fill="black" stroke="black" points="283.27,-46.63 282.09,-36.1 276.45,-45.07 283.27,-46.63"/>
</g>
<!-- ds389_instance_21 -->
<g id="node10" class="node">
<title>ds389_instance_21</title>
<path fill="none" stroke="green" d="M516.5,-32.73C516.5,-34.53 488.49,-36 454,-36 419.51,-36 391.5,-34.53 391.5,-32.73 391.5,-32.73 391.5,-3.27 391.5,-3.27 391.5,-1.47 419.51,0 454,0 488.49,0 516.5,-1.47 516.5,-3.27 516.5,-3.27 516.5,-32.73 516.5,-32.73"/>
<path fill="none" stroke="green" d="M516.5,-32.73C516.5,-30.92 488.49,-29.45 454,-29.45 419.51,-29.45 391.5,-30.92 391.5,-32.73"/>
<text text-anchor="middle" x="454" y="-14.3" font-family="Times,serif" font-size="14.00">ds389 instance</text>
</g>
<!-- ds389_module_2&#45;&gt;ds389_instance_21 -->
<g id="edge13" class="edge">
<title>ds389_module_2&#45;&gt;ds389_instance_21</title>
<path fill="none" stroke="black" d="M465.29,-71.7C463.64,-63.98 461.65,-54.71 459.81,-46.11"/>
<polygon fill="black" stroke="black" points="463.18,-45.15 457.67,-36.1 456.34,-46.62 463.18,-45.15"/>
</g>
<!-- ds389_instance_22 -->
<g id="node11" class="node">
<title>ds389_instance_22</title>
<path fill="none" stroke="green" d="M659.5,-32.73C659.5,-34.53 631.49,-36 597,-36 562.51,-36 534.5,-34.53 534.5,-32.73 534.5,-32.73 534.5,-3.27 534.5,-3.27 534.5,-1.47 562.51,0 597,0 631.49,0 659.5,-1.47 659.5,-3.27 659.5,-3.27 659.5,-32.73 659.5,-32.73"/>
<path fill="none" stroke="green" d="M659.5,-32.73C659.5,-30.92 631.49,-29.45 597,-29.45 562.51,-29.45 534.5,-30.92 534.5,-32.73"/>
<text text-anchor="middle" x="597" y="-14.3" font-family="Times,serif" font-size="14.00">ds389 instance</text>
</g>
<!-- ds389_module_2&#45;&gt;ds389_instance_22 -->
<g id="edge14" class="edge">
<title>ds389_module_2&#45;&gt;ds389_instance_22</title>
<path fill="none" stroke="black" d="M500.31,-71.88C517.2,-62.64 538.25,-51.13 556.38,-41.21"/>
<polygon fill="black" stroke="black" points="558.47,-44.06 565.57,-36.19 555.11,-37.92 558.47,-44.06"/>
</g>
</g>
</svg>
