<?xml version="1.0" encoding="UTF-8" standalone="no"?>
<!DOCTYPE svg PUBLIC "-//W3C//DTD SVG 1.1//EN"
 "http://www.w3.org/Graphics/SVG/1.1/DTD/svg11.dtd">
<!-- Generated by graphviz version 2.50.0 (0)
 -->
<!-- Title: AnsibleDs389Module Pages: 1 -->
<svg width="465pt" height="260pt"
 viewBox="0.00 0.00 465.10 260.00" xmlns="http://www.w3.org/2000/svg" xmlns:xlink="http://www.w3.org/1999/xlink">
<g id="graph0" class="graph" transform="scale(1 1) rotate(0) translate(4 256)">
<title>AnsibleDs389Module</title>
<polygon fill="white" stroke="transparent" points="-4,4 -4,-256 461.1,-256 461.1,4 -4,4"/>
<!-- title -->
<g id="node1" class="node">
<title>title</title>
<text text-anchor="middle" x="131.5" y="-229.6" font-family="Times,serif" font-size="18.00">ds389_module architecture</text>
</g>
<!-- ds389_module -->
<g id="node2" class="node">
<title>ds389_module</title>
<polygon fill="none" stroke="black" points="400,-252 281,-252 281,-216 400,-216 400,-252"/>
<text text-anchor="middle" x="340.5" y="-230.3" font-family="Times,serif" font-size="14.00">ds389_module</text>
</g>
<!-- entities -->
<g id="node4" class="node">
<title>entities</title>
<polygon fill="none" stroke="black" points="412,-180 269,-180 269,-144 412,-144 412,-180"/>
<text text-anchor="middle" x="340.5" y="-158.3" font-family="Times,serif" font-size="14.00">ds389_entities.py</text>
</g>
<!-- ds389_module&#45;&gt;entities -->
<g id="edge1" class="edge">
<title>ds389_module&#45;&gt;entities</title>
<path fill="none" stroke="black" d="M340.5,-215.7C340.5,-207.98 340.5,-198.71 340.5,-190.11"/>
<polygon fill="black" stroke="black" points="344,-190.1 340.5,-180.1 337,-190.1 344,-190.1"/>
</g>
<!-- dsutil -->
<g id="node3" class="node">
<title>dsutil</title>
<polygon fill="none" stroke="black" points="221,-108 108,-108 108,-72 221,-72 221,-108"/>
<text text-anchor="middle" x="164.5" y="-86.3" font-family="Times,serif" font-size="14.00">ds389_util.py</text>
</g>
<!-- lib389 -->
<g id="node6" class="node">
<title>lib389</title>
<polygon fill="none" stroke="black" points="347.5,-36 285.5,-36 285.5,0 347.5,0 347.5,-36"/>
<text text-anchor="middle" x="316.5" y="-14.3" font-family="Times,serif" font-size="14.00">lib389</text>
</g>
<!-- dsutil&#45;&gt;lib389 -->
<g id="edge6" class="edge">
<title>dsutil&#45;&gt;lib389</title>
<path fill="none" stroke="black" d="M201.68,-71.88C224.24,-61.49 253.03,-48.23 276.14,-37.59"/>
<polygon fill="black" stroke="black" points="277.72,-40.71 285.34,-33.35 274.79,-34.36 277.72,-40.71"/>
</g>
<!-- entities&#45;&gt;dsutil -->
<g id="edge2" class="edge">
<title>entities&#45;&gt;dsutil</title>
<path fill="none" stroke="black" d="M297.45,-143.88C273.17,-134.22 242.66,-122.09 216.99,-111.88"/>
<polygon fill="black" stroke="black" points="218,-108.51 207.41,-108.07 215.41,-115.02 218,-108.51"/>
</g>
<!-- entities_options -->
<g id="node5" class="node">
<title>entities_options</title>
<polygon fill="none" stroke="black" points="441.5,-108 239.5,-108 239.5,-72 441.5,-72 441.5,-108"/>
<text text-anchor="middle" x="340.5" y="-86.3" font-family="Times,serif" font-size="14.00">ds389_entities_options.py</text>
</g>
<!-- entities&#45;&gt;entities_options -->
<g id="edge4" class="edge">
<title>entities&#45;&gt;entities_options</title>
<path fill="none" stroke="black" d="M334.58,-143.7C333.79,-135.98 333.56,-126.71 333.9,-118.11"/>
<polygon fill="black" stroke="black" points="337.4,-118.32 334.6,-108.1 330.42,-117.84 337.4,-118.32"/>
</g>
<!-- entities&#45;&gt;lib389 -->
<g id="edge5" class="edge">
<title>entities&#45;&gt;lib389</title>
<path fill="none" stroke="black" d="M405.32,-143.95C423,-136 440.13,-124.51 450.5,-108 459.01,-94.45 459.5,-85.23 450.5,-72 429.9,-41.7 389.02,-28.72 357.8,-23.17"/>
<polygon fill="black" stroke="black" points="358.05,-19.66 347.63,-21.55 356.95,-26.57 358.05,-19.66"/>
</g>
<!-- entities_options&#45;&gt;entities -->
<g id="edge3" class="edge">
<title>entities_options&#45;&gt;entities</title>
<path fill="none" stroke="black" d="M346.4,-108.1C347.2,-115.79 347.44,-125.05 347.1,-133.67"/>
<polygon fill="black" stroke="black" points="343.61,-133.48 346.42,-143.7 350.59,-133.96 343.61,-133.48"/>
</g>
</g>
</svg>
