<?xml version="1.0" encoding="UTF-8" standalone="no"?>
<!DOCTYPE svg PUBLIC "-//W3C//DTD SVG 1.1//EN"
 "http://www.w3.org/Graphics/SVG/1.1/DTD/svg11.dtd">
<!-- Generated by graphviz version 2.30.1 (20140821.0912)
 -->
<!-- Title: g Pages: 1 -->
<svg width="495pt" height="200pt"
 viewBox="0.00 0.00 495.00 200.00" xmlns="http://www.w3.org/2000/svg" xmlns:xlink="http://www.w3.org/1999/xlink">
<g id="graph0" class="graph" transform="scale(1 1) rotate(0) translate(4 196)">
<title>g</title>
<polygon fill="white" stroke="white" points="-4,5 -4,-196 492,-196 492,5 -4,5"/>
<!-- nodehdr -->
<g id="node1" class="node"><title>nodehdr</title>
<polygon fill="none" stroke="black" points="137,-168.5 137,-191.5 285,-191.5 285,-168.5 137,-168.5"/>
<text text-anchor="middle" x="211" y="-176.3" font-family="Times,serif" font-size="14.00">COW B+Tree txn_id=1</text>
</g>
<!-- txn_1 -->
<g id="node2" class="node"><title>txn_1</title>
<polygon fill="none" stroke="black" points="303,-168.5 303,-191.5 357,-191.5 357,-168.5 303,-168.5"/>
<text text-anchor="middle" x="330" y="-176.3" font-family="Times,serif" font-size="14.00">txn_1</text>
</g>
<!-- node_0x60200000fc40 -->
<g id="node3" class="node"><title>node_0x60200000fc40</title>
<polygon fill="none" stroke="black" points="212.5,-85 212.5,-131 447.5,-131 447.5,-85 212.5,-85"/>
<text text-anchor="middle" x="330" y="-115.8" font-family="Times,serif" font-size="14.00">node=0x60200000fc40 items=1 txn=1</text>
<polyline fill="none" stroke="black" points="212.5,-108 447.5,-108 "/>
<text text-anchor="middle" x="222.5" y="-92.8" font-family="Times,serif" font-size="14.00"> </text>
<polyline fill="none" stroke="black" points="232.5,-85 232.5,-108 "/>
<text text-anchor="middle" x="244" y="-92.8" font-family="Times,serif" font-size="14.00">4</text>
<polyline fill="none" stroke="black" points="255.5,-85 255.5,-108 "/>
<text text-anchor="middle" x="265.5" y="-92.8" font-family="Times,serif" font-size="14.00"> </text>
<polyline fill="none" stroke="black" points="275.5,-85 275.5,-108 "/>
<text text-anchor="middle" x="287" y="-92.8" font-family="Times,serif" font-size="14.00">0</text>
<polyline fill="none" stroke="black" points="298.5,-85 298.5,-108 "/>
<text text-anchor="middle" x="308.5" y="-92.8" font-family="Times,serif" font-size="14.00"> </text>
<polyline fill="none" stroke="black" points="318.5,-85 318.5,-108 "/>
<text text-anchor="middle" x="330" y="-92.8" font-family="Times,serif" font-size="14.00">0</text>
<polyline fill="none" stroke="black" points="341.5,-85 341.5,-108 "/>
<text text-anchor="middle" x="351.5" y="-92.8" font-family="Times,serif" font-size="14.00"> </text>
<polyline fill="none" stroke="black" points="361.5,-85 361.5,-108 "/>
<text text-anchor="middle" x="373" y="-92.8" font-family="Times,serif" font-size="14.00">0</text>
<polyline fill="none" stroke="black" points="384.5,-85 384.5,-108 "/>
<text text-anchor="middle" x="394.5" y="-92.8" font-family="Times,serif" font-size="14.00"> </text>
<polyline fill="none" stroke="black" points="404.5,-85 404.5,-108 "/>
<text text-anchor="middle" x="416" y="-92.8" font-family="Times,serif" font-size="14.00">0</text>
<polyline fill="none" stroke="black" points="427.5,-85 427.5,-108 "/>
<text text-anchor="middle" x="437.5" y="-92.8" font-family="Times,serif" font-size="14.00"> </text>
</g>
<!-- txn_1&#45;&gt;node_0x60200000fc40 -->
<g id="edge1" class="edge"><title>txn_1&#45;&gt;node_0x60200000fc40</title>
<path fill="none" stroke="black" d="M330,-168.369C330,-161.045 330,-150.895 330,-141.058"/>
<polygon fill="black" stroke="black" points="333.5,-141.051 330,-131.051 326.5,-141.051 333.5,-141.051"/>
</g>
<!-- node_0x60200000fe40 -->
<g id="node4" class="node"><title>node_0x60200000fe40</title>
<polygon fill="none" stroke="black" points="-0.5,-1 -0.5,-47 234.5,-47 234.5,-1 -0.5,-1"/>
<text text-anchor="middle" x="117" y="-31.8" font-family="Times,serif" font-size="14.00">node=0x60200000fe40 items=3 txn=0</text>
<polyline fill="none" stroke="black" points="-0.5,-24 234.5,-24 "/>
<text text-anchor="middle" x="9.5" y="-8.8" font-family="Times,serif" font-size="14.00"> </text>
<polyline fill="none" stroke="black" points="19.5,-1 19.5,-24 "/>
<text text-anchor="middle" x="31" y="-8.8" font-family="Times,serif" font-size="14.00">1</text>
<polyline fill="none" stroke="black" points="42.5,-1 42.5,-24 "/>
<text text-anchor="middle" x="52.5" y="-8.8" font-family="Times,serif" font-size="14.00"> </text>
<polyline fill="none" stroke="black" points="62.5,-1 62.5,-24 "/>
<text text-anchor="middle" x="74" y="-8.8" font-family="Times,serif" font-size="14.00">2</text>
<polyline fill="none" stroke="black" points="85.5,-1 85.5,-24 "/>
<text text-anchor="middle" x="95.5" y="-8.8" font-family="Times,serif" font-size="14.00"> </text>
<polyline fill="none" stroke="black" points="105.5,-1 105.5,-24 "/>
<text text-anchor="middle" x="117" y="-8.8" font-family="Times,serif" font-size="14.00">3</text>
<polyline fill="none" stroke="black" points="128.5,-1 128.5,-24 "/>
<text text-anchor="middle" x="138.5" y="-8.8" font-family="Times,serif" font-size="14.00"> </text>
<polyline fill="none" stroke="black" points="148.5,-1 148.5,-24 "/>
<text text-anchor="middle" x="160" y="-8.8" font-family="Times,serif" font-size="14.00">0</text>
<polyline fill="none" stroke="black" points="171.5,-1 171.5,-24 "/>
<text text-anchor="middle" x="181.5" y="-8.8" font-family="Times,serif" font-size="14.00"> </text>
<polyline fill="none" stroke="black" points="191.5,-1 191.5,-24 "/>
<text text-anchor="middle" x="203" y="-8.8" font-family="Times,serif" font-size="14.00">0</text>
<polyline fill="none" stroke="black" points="214.5,-1 214.5,-24 "/>
<text text-anchor="middle" x="224.5" y="-8.8" font-family="Times,serif" font-size="14.00"> </text>
</g>
<!-- node_0x60200000fc40&#45;&gt;node_0x60200000fe40 -->
<g id="edge2" class="edge"><title>node_0x60200000fc40:f0&#45;&gt;node_0x60200000fe40</title>
<path fill="none" stroke="black" d="M211,-96C182.06,-96 156.393,-74.3072 139.223,-54.903"/>
<polygon fill="black" stroke="black" points="141.746,-52.4648 132.624,-47.0757 136.394,-56.977 141.746,-52.4648"/>
</g>
<!-- node_0x60200000fd40 -->
<g id="node5" class="node"><title>node_0x60200000fd40</title>
<polygon fill="none" stroke="black" points="252.5,-1 252.5,-47 487.5,-47 487.5,-1 252.5,-1"/>
<text text-anchor="middle" x="370" y="-31.8" font-family="Times,serif" font-size="14.00">node=0x60200000fd40 items=3 txn=1</text>
<polyline fill="none" stroke="black" points="252.5,-24 487.5,-24 "/>
<text text-anchor="middle" x="262.5" y="-8.8" font-family="Times,serif" font-size="14.00"> </text>
<polyline fill="none" stroke="black" points="272.5,-1 272.5,-24 "/>
<text text-anchor="middle" x="284" y="-8.8" font-family="Times,serif" font-size="14.00">4</text>
<polyline fill="none" stroke="black" points="295.5,-1 295.5,-24 "/>
<text text-anchor="middle" x="305.5" y="-8.8" font-family="Times,serif" font-size="14.00"> </text>
<polyline fill="none" stroke="black" points="315.5,-1 315.5,-24 "/>
<text text-anchor="middle" x="327" y="-8.8" font-family="Times,serif" font-size="14.00">5</text>
<polyline fill="none" stroke="black" points="338.5,-1 338.5,-24 "/>
<text text-anchor="middle" x="348.5" y="-8.8" font-family="Times,serif" font-size="14.00"> </text>
<polyline fill="none" stroke="black" points="358.5,-1 358.5,-24 "/>
<text text-anchor="middle" x="370" y="-8.8" font-family="Times,serif" font-size="14.00">6</text>
<polyline fill="none" stroke="black" points="381.5,-1 381.5,-24 "/>
<text text-anchor="middle" x="391.5" y="-8.8" font-family="Times,serif" font-size="14.00"> </text>
<polyline fill="none" stroke="black" points="401.5,-1 401.5,-24 "/>
<text text-anchor="middle" x="413" y="-8.8" font-family="Times,serif" font-size="14.00">0</text>
<polyline fill="none" stroke="black" points="424.5,-1 424.5,-24 "/>
<text text-anchor="middle" x="434.5" y="-8.8" font-family="Times,serif" font-size="14.00"> </text>
<polyline fill="none" stroke="black" points="444.5,-1 444.5,-24 "/>
<text text-anchor="middle" x="456" y="-8.8" font-family="Times,serif" font-size="14.00">0</text>
<polyline fill="none" stroke="black" points="467.5,-1 467.5,-24 "/>
<text text-anchor="middle" x="477.5" y="-8.8" font-family="Times,serif" font-size="14.00"> </text>
</g>
<!-- node_0x60200000fc40&#45;&gt;node_0x60200000fd40 -->
<g id="edge3" class="edge"><title>node_0x60200000fc40:f1&#45;&gt;node_0x60200000fd40</title>
<path fill="none" stroke="black" d="M265,-84C265,-71.0481 271.147,-60.9098 280.467,-52.9817"/>
<polygon fill="black" stroke="black" points="282.54,-55.8016 288.564,-47.0859 278.42,-50.1427 282.54,-55.8016"/>
</g>
</g>
</svg>
