<?xml version="1.0" encoding="UTF-8" standalone="no"?>
<!DOCTYPE svg PUBLIC "-//W3C//DTD SVG 1.1//EN"
 "http://www.w3.org/Graphics/SVG/1.1/DTD/svg11.dtd">
<!-- Generated by graphviz version 2.30.1 (20140821.0912)
 -->
<!-- Title: g Pages: 1 -->
<svg width="760pt" height="200pt"
 viewBox="0.00 0.00 760.00 200.00" xmlns="http://www.w3.org/2000/svg" xmlns:xlink="http://www.w3.org/1999/xlink">
<g id="graph0" class="graph" transform="scale(1 1) rotate(0) translate(4 196)">
<title>g</title>
<polygon fill="white" stroke="white" points="-4,5 -4,-196 757,-196 757,5 -4,5"/>
<!-- nodehdr -->
<g id="node1" class="node"><title>nodehdr</title>
<polygon fill="none" stroke="black" points="84,-168.5 84,-191.5 232,-191.5 232,-168.5 84,-168.5"/>
<text text-anchor="middle" x="158" y="-176.3" font-family="Times,serif" font-size="14.00">COW B+Tree txn_id=1</text>
</g>
<!-- txn_1 -->
<g id="node2" class="node"><title>txn_1</title>
<polygon fill="none" stroke="black" points="250,-168.5 250,-191.5 304,-191.5 304,-168.5 250,-168.5"/>
<text text-anchor="middle" x="277" y="-176.3" font-family="Times,serif" font-size="14.00">txn_1</text>
</g>
<!-- node_0x60200000fc40 -->
<g id="node4" class="node"><title>node_0x60200000fc40</title>
<polygon fill="none" stroke="black" points="159.5,-85 159.5,-131 394.5,-131 394.5,-85 159.5,-85"/>
<text text-anchor="middle" x="277" y="-115.8" font-family="Times,serif" font-size="14.00">node=0x60200000fc40 items=1 txn=1</text>
<polyline fill="none" stroke="black" points="159.5,-108 394.5,-108 "/>
<text text-anchor="middle" x="169.5" y="-92.8" font-family="Times,serif" font-size="14.00"> </text>
<polyline fill="none" stroke="black" points="179.5,-85 179.5,-108 "/>
<text text-anchor="middle" x="191" y="-92.8" font-family="Times,serif" font-size="14.00">4</text>
<polyline fill="none" stroke="black" points="202.5,-85 202.5,-108 "/>
<text text-anchor="middle" x="212.5" y="-92.8" font-family="Times,serif" font-size="14.00"> </text>
<polyline fill="none" stroke="black" points="222.5,-85 222.5,-108 "/>
<text text-anchor="middle" x="234" y="-92.8" font-family="Times,serif" font-size="14.00">0</text>
<polyline fill="none" stroke="black" points="245.5,-85 245.5,-108 "/>
<text text-anchor="middle" x="255.5" y="-92.8" font-family="Times,serif" font-size="14.00"> </text>
<polyline fill="none" stroke="black" points="265.5,-85 265.5,-108 "/>
<text text-anchor="middle" x="277" y="-92.8" font-family="Times,serif" font-size="14.00">0</text>
<polyline fill="none" stroke="black" points="288.5,-85 288.5,-108 "/>
<text text-anchor="middle" x="298.5" y="-92.8" font-family="Times,serif" font-size="14.00"> </text>
<polyline fill="none" stroke="black" points="308.5,-85 308.5,-108 "/>
<text text-anchor="middle" x="320" y="-92.8" font-family="Times,serif" font-size="14.00">0</text>
<polyline fill="none" stroke="black" points="331.5,-85 331.5,-108 "/>
<text text-anchor="middle" x="341.5" y="-92.8" font-family="Times,serif" font-size="14.00"> </text>
<polyline fill="none" stroke="black" points="351.5,-85 351.5,-108 "/>
<text text-anchor="middle" x="363" y="-92.8" font-family="Times,serif" font-size="14.00">0</text>
<polyline fill="none" stroke="black" points="374.5,-85 374.5,-108 "/>
<text text-anchor="middle" x="384.5" y="-92.8" font-family="Times,serif" font-size="14.00"> </text>
</g>
<!-- txn_1&#45;&gt;node_0x60200000fc40 -->
<g id="edge1" class="edge"><title>txn_1&#45;&gt;node_0x60200000fc40</title>
<path fill="none" stroke="black" d="M277,-168.369C277,-161.045 277,-150.895 277,-141.058"/>
<polygon fill="black" stroke="black" points="280.5,-141.051 277,-131.051 273.5,-141.051 280.5,-141.051"/>
</g>
<!-- txn_2 -->
<g id="node3" class="node"><title>txn_2</title>
<polygon fill="none" stroke="blue" points="608,-168.5 608,-191.5 662,-191.5 662,-168.5 608,-168.5"/>
<text text-anchor="middle" x="635" y="-176.3" font-family="Times,serif" font-size="14.00">txn_2</text>
</g>
<!-- node_0x60200000ff40 -->
<g id="node5" class="node"><title>node_0x60200000ff40</title>
<polygon fill="none" stroke="blue" points="517.5,-85 517.5,-131 752.5,-131 752.5,-85 517.5,-85"/>
<text text-anchor="middle" x="635" y="-115.8" font-family="Times,serif" font-size="14.00">node=0x60200000ff40 items=1 txn=2</text>
<polyline fill="none" stroke="blue" points="517.5,-108 752.5,-108 "/>
<text text-anchor="middle" x="527.5" y="-92.8" font-family="Times,serif" font-size="14.00"> </text>
<polyline fill="none" stroke="blue" points="537.5,-85 537.5,-108 "/>
<text text-anchor="middle" x="549" y="-92.8" font-family="Times,serif" font-size="14.00">4</text>
<polyline fill="none" stroke="blue" points="560.5,-85 560.5,-108 "/>
<text text-anchor="middle" x="570.5" y="-92.8" font-family="Times,serif" font-size="14.00"> </text>
<polyline fill="none" stroke="blue" points="580.5,-85 580.5,-108 "/>
<text text-anchor="middle" x="592" y="-92.8" font-family="Times,serif" font-size="14.00">0</text>
<polyline fill="none" stroke="blue" points="603.5,-85 603.5,-108 "/>
<text text-anchor="middle" x="613.5" y="-92.8" font-family="Times,serif" font-size="14.00"> </text>
<polyline fill="none" stroke="blue" points="623.5,-85 623.5,-108 "/>
<text text-anchor="middle" x="635" y="-92.8" font-family="Times,serif" font-size="14.00">0</text>
<polyline fill="none" stroke="blue" points="646.5,-85 646.5,-108 "/>
<text text-anchor="middle" x="656.5" y="-92.8" font-family="Times,serif" font-size="14.00"> </text>
<polyline fill="none" stroke="blue" points="666.5,-85 666.5,-108 "/>
<text text-anchor="middle" x="678" y="-92.8" font-family="Times,serif" font-size="14.00">0</text>
<polyline fill="none" stroke="blue" points="689.5,-85 689.5,-108 "/>
<text text-anchor="middle" x="699.5" y="-92.8" font-family="Times,serif" font-size="14.00"> </text>
<polyline fill="none" stroke="blue" points="709.5,-85 709.5,-108 "/>
<text text-anchor="middle" x="721" y="-92.8" font-family="Times,serif" font-size="14.00">0</text>
<polyline fill="none" stroke="blue" points="732.5,-85 732.5,-108 "/>
<text text-anchor="middle" x="742.5" y="-92.8" font-family="Times,serif" font-size="14.00"> </text>
</g>
<!-- txn_2&#45;&gt;node_0x60200000ff40 -->
<g id="edge2" class="edge"><title>txn_2&#45;&gt;node_0x60200000ff40</title>
<path fill="none" stroke="black" d="M635,-168.369C635,-161.045 635,-150.895 635,-141.058"/>
<polygon fill="black" stroke="black" points="638.5,-141.051 635,-131.051 631.5,-141.051 638.5,-141.051"/>
</g>
<!-- node_0x60200000fe40 -->
<g id="node6" class="node"><title>node_0x60200000fe40</title>
<polygon fill="none" stroke="black" points="-0.5,-1 -0.5,-47 234.5,-47 234.5,-1 -0.5,-1"/>
<text text-anchor="middle" x="117" y="-31.8" font-family="Times,serif" font-size="14.00">node=0x60200000fe40 items=3 txn=0</text>
<polyline fill="none" stroke="black" points="-0.5,-24 234.5,-24 "/>
<text text-anchor="middle" x="9.5" y="-8.8" font-family="Times,serif" font-size="14.00"> </text>
<polyline fill="none" stroke="black" points="19.5,-1 19.5,-24 "/>
<text text-anchor="middle" x="31" y="-8.8" font-family="Times,serif" font-size="14.00">1</text>
<polyline fill="none" stroke="black" points="42.5,-1 42.5,-24 "/>
<text text-anchor="middle" x="52.5" y="-8.8" font-family="Times,serif" font-size="14.00"> </text>
<polyline fill="none" stroke="black" points="62.5,-1 62.5,-24 "/>
<text text-anchor="middle" x="74" y="-8.8" font-family="Times,serif" font-size="14.00">2</text>
<polyline fill="none" stroke="black" points="85.5,-1 85.5,-24 "/>
<text text-anchor="middle" x="95.5" y="-8.8" font-family="Times,serif" font-size="14.00"> </text>
<polyline fill="none" stroke="black" points="105.5,-1 105.5,-24 "/>
<text text-anchor="middle" x="117" y="-8.8" font-family="Times,serif" font-size="14.00">3</text>
<polyline fill="none" stroke="black" points="128.5,-1 128.5,-24 "/>
<text text-anchor="middle" x="138.5" y="-8.8" font-family="Times,serif" font-size="14.00"> </text>
<polyline fill="none" stroke="black" points="148.5,-1 148.5,-24 "/>
<text text-anchor="middle" x="160" y="-8.8" font-family="Times,serif" font-size="14.00">0</text>
<polyline fill="none" stroke="black" points="171.5,-1 171.5,-24 "/>
<text text-anchor="middle" x="181.5" y="-8.8" font-family="Times,serif" font-size="14.00"> </text>
<polyline fill="none" stroke="black" points="191.5,-1 191.5,-24 "/>
<text text-anchor="middle" x="203" y="-8.8" font-family="Times,serif" font-size="14.00">0</text>
<polyline fill="none" stroke="black" points="214.5,-1 214.5,-24 "/>
<text text-anchor="middle" x="224.5" y="-8.8" font-family="Times,serif" font-size="14.00"> </text>
</g>
<!-- node_0x60200000fc40&#45;&gt;node_0x60200000fe40 -->
<g id="edge3" class="edge"><title>node_0x60200000fc40:f0&#45;&gt;node_0x60200000fe40</title>
<path fill="none" stroke="black" d="M169,-84C169,-72.9192 163.774,-62.9346 156.636,-54.4647"/>
<polygon fill="black" stroke="black" points="159.071,-51.9467 149.637,-47.124 154.004,-56.777 159.071,-51.9467"/>
</g>
<!-- node_0x60200000fd40 -->
<g id="node7" class="node"><title>node_0x60200000fd40</title>
<polygon fill="none" stroke="black" points="252.5,-1 252.5,-47 487.5,-47 487.5,-1 252.5,-1"/>
<text text-anchor="middle" x="370" y="-31.8" font-family="Times,serif" font-size="14.00">node=0x60200000fd40 items=3 txn=1</text>
<polyline fill="none" stroke="black" points="252.5,-24 487.5,-24 "/>
<text text-anchor="middle" x="262.5" y="-8.8" font-family="Times,serif" font-size="14.00"> </text>
<polyline fill="none" stroke="black" points="272.5,-1 272.5,-24 "/>
<text text-anchor="middle" x="284" y="-8.8" font-family="Times,serif" font-size="14.00">4</text>
<polyline fill="none" stroke="black" points="295.5,-1 295.5,-24 "/>
<text text-anchor="middle" x="305.5" y="-8.8" font-family="Times,serif" font-size="14.00"> </text>
<polyline fill="none" stroke="black" points="315.5,-1 315.5,-24 "/>
<text text-anchor="middle" x="327" y="-8.8" font-family="Times,serif" font-size="14.00">5</text>
<polyline fill="none" stroke="black" points="338.5,-1 338.5,-24 "/>
<text text-anchor="middle" x="348.5" y="-8.8" font-family="Times,serif" font-size="14.00"> </text>
<polyline fill="none" stroke="black" points="358.5,-1 358.5,-24 "/>
<text text-anchor="middle" x="370" y="-8.8" font-family="Times,serif" font-size="14.00">6</text>
<polyline fill="none" stroke="black" points="381.5,-1 381.5,-24 "/>
<text text-anchor="middle" x="391.5" y="-8.8" font-family="Times,serif" font-size="14.00"> </text>
<polyline fill="none" stroke="black" points="401.5,-1 401.5,-24 "/>
<text text-anchor="middle" x="413" y="-8.8" font-family="Times,serif" font-size="14.00">0</text>
<polyline fill="none" stroke="black" points="424.5,-1 424.5,-24 "/>
<text text-anchor="middle" x="434.5" y="-8.8" font-family="Times,serif" font-size="14.00"> </text>
<polyline fill="none" stroke="black" points="444.5,-1 444.5,-24 "/>
<text text-anchor="middle" x="456" y="-8.8" font-family="Times,serif" font-size="14.00">0</text>
<polyline fill="none" stroke="black" points="467.5,-1 467.5,-24 "/>
<text text-anchor="middle" x="477.5" y="-8.8" font-family="Times,serif" font-size="14.00"> </text>
</g>
<!-- node_0x60200000fc40&#45;&gt;node_0x60200000fd40 -->
<g id="edge4" class="edge"><title>node_0x60200000fc40:f1&#45;&gt;node_0x60200000fd40</title>
<path fill="none" stroke="black" d="M212,-84C212,-70.635 232.092,-59.2993 257.946,-50.2451"/>
<polygon fill="black" stroke="black" points="259.312,-53.4795 267.705,-47.0131 257.112,-46.8344 259.312,-53.4795"/>
</g>
<!-- node_0x60200000ff40&#45;&gt;node_0x60200000fe40 -->
<g id="edge5" class="edge"><title>node_0x60200000ff40:f0&#45;&gt;node_0x60200000fe40</title>
<path fill="none" stroke="blue" d="M516,-96C461.242,-96 325.564,-69.7517 227.613,-49.1744"/>
<polygon fill="blue" stroke="blue" points="228.167,-45.7142 217.66,-47.0757 226.722,-52.5636 228.167,-45.7142"/>
</g>
<!-- node_0x602000011040 -->
<g id="node8" class="node"><title>node_0x602000011040</title>
<polygon fill="none" stroke="blue" points="505.5,-1 505.5,-47 740.5,-47 740.5,-1 505.5,-1"/>
<text text-anchor="middle" x="623" y="-31.8" font-family="Times,serif" font-size="14.00">node=0x602000011040 items=3 txn=2</text>
<polyline fill="none" stroke="blue" points="505.5,-24 740.5,-24 "/>
<text text-anchor="middle" x="515.5" y="-8.8" font-family="Times,serif" font-size="14.00"> </text>
<polyline fill="none" stroke="blue" points="525.5,-1 525.5,-24 "/>
<text text-anchor="middle" x="537" y="-8.8" font-family="Times,serif" font-size="14.00">4</text>
<polyline fill="none" stroke="blue" points="548.5,-1 548.5,-24 "/>
<text text-anchor="middle" x="558.5" y="-8.8" font-family="Times,serif" font-size="14.00"> </text>
<polyline fill="none" stroke="blue" points="568.5,-1 568.5,-24 "/>
<text text-anchor="middle" x="580" y="-8.8" font-family="Times,serif" font-size="14.00">5</text>
<polyline fill="none" stroke="blue" points="591.5,-1 591.5,-24 "/>
<text text-anchor="middle" x="601.5" y="-8.8" font-family="Times,serif" font-size="14.00"> </text>
<polyline fill="none" stroke="blue" points="611.5,-1 611.5,-24 "/>
<text text-anchor="middle" x="623" y="-8.8" font-family="Times,serif" font-size="14.00">7</text>
<polyline fill="none" stroke="blue" points="634.5,-1 634.5,-24 "/>
<text text-anchor="middle" x="644.5" y="-8.8" font-family="Times,serif" font-size="14.00"> </text>
<polyline fill="none" stroke="blue" points="654.5,-1 654.5,-24 "/>
<text text-anchor="middle" x="666" y="-8.8" font-family="Times,serif" font-size="14.00">0</text>
<polyline fill="none" stroke="blue" points="677.5,-1 677.5,-24 "/>
<text text-anchor="middle" x="687.5" y="-8.8" font-family="Times,serif" font-size="14.00"> </text>
<polyline fill="none" stroke="blue" points="697.5,-1 697.5,-24 "/>
<text text-anchor="middle" x="709" y="-8.8" font-family="Times,serif" font-size="14.00">0</text>
<polyline fill="none" stroke="blue" points="720.5,-1 720.5,-24 "/>
<text text-anchor="middle" x="730.5" y="-8.8" font-family="Times,serif" font-size="14.00"> </text>
</g>
<!-- node_0x60200000ff40&#45;&gt;node_0x602000011040 -->
<g id="edge6" class="edge"><title>node_0x60200000ff40:f1&#45;&gt;node_0x602000011040</title>
<path fill="none" stroke="blue" d="M570,-84C570,-72.931 575.226,-62.9958 582.397,-54.5738"/>
<polygon fill="blue" stroke="blue" points="585.012,-56.9036 589.434,-47.2757 579.973,-52.0447 585.012,-56.9036"/>
</g>
<!-- node_0x60200000fe40&#45;&gt;node_0x60200000fd40 -->
<g id="edge7" class="edge"><title>node_0x60200000fe40&#45;&gt;node_0x60200000fd40</title>
<path fill="none" stroke="white" d="M234.605,-24C240.511,-24 246.417,-24 252.323,-24"/>
</g>
<!-- node_0x60200000fd40&#45;&gt;node_0x602000011040 -->
<g id="edge8" class="edge"><title>node_0x60200000fd40&#45;&gt;node_0x602000011040</title>
<path fill="none" stroke="white" d="M487.605,-24C493.511,-24 499.417,-24 505.323,-24"/>
</g>
</g>
</svg>
