<?xml version="1.0" encoding="UTF-8" standalone="no"?>
<!DOCTYPE svg PUBLIC "-//W3C//DTD SVG 1.1//EN"
 "http://www.w3.org/Graphics/SVG/1.1/DTD/svg11.dtd">
<!-- Generated by graphviz version 12.2.1 (20241206.2353)
 -->
<!-- Title: EntryCache Pages: 1 -->
<svg width="253pt" height="407pt"
 viewBox="0.00 0.00 253.03 407.00" xmlns="http://www.w3.org/2000/svg" xmlns:xlink="http://www.w3.org/1999/xlink">
<g id="graph0" class="graph" transform="scale(1 1) rotate(0) translate(4 403)">
<title>EntryCache</title>
<polygon fill="white" stroke="none" points="-4,4 -4,-403 249.03,-403 249.03,4 -4,4"/>
<g id="clust1" class="cluster">
<title>cluster_LRUQueue</title>
<polygon fill="none" stroke="black" points="8,-8 8,-281 182,-281 182,-8 8,-8"/>
<text text-anchor="middle" x="95" y="-263.7" font-family="Times,serif" font-size="14.00">LRU Queue</text>
<text text-anchor="middle" x="95" y="-247.2" font-family="Times,serif" font-size="14.00">(sorted by incomming order)</text>
</g>
<!-- cache -->
<g id="node1" class="node">
<title>cache</title>
<text text-anchor="start" x="119.88" y="-381.7" font-family="Times,serif" font-weight="bold" font-size="14.00">cache</text>
<polygon fill="#eeeeee" stroke="none" points="105.38,-349 105.38,-373.5 166.62,-373.5 166.62,-349 105.38,-349"/>
<text text-anchor="start" x="109.38" y="-356.2" font-family="Times,serif" font-size="14.00">c_lruhead</text>
<text text-anchor="start" x="109.38" y="-331.7" font-family="Times,serif" font-size="14.00">c_lrutail</text>
<polygon fill="none" stroke="black" points="104.38,-323.5 104.38,-399 167.62,-399 167.62,-323.5 104.38,-323.5"/>
</g>
<!-- backentryr1 -->
<g id="node2" class="node">
<title>backentryr1</title>
<polygon fill="none" stroke="black" points="38.75,-195.5 38.75,-231.5 149.25,-231.5 149.25,-195.5 38.75,-195.5"/>
<text text-anchor="middle" x="94" y="-208.45" font-family="Times,serif" font-size="14.00">backentry HEAD</text>
</g>
<!-- cache&#45;&gt;backentryr1 -->
<g id="edge5" class="edge">
<title>cache:lru_head&#45;&gt;backentryr1</title>
<path fill="none" stroke="black" d="M104.38,-361.25C57.35,-361.25 72.6,-285.34 84.87,-242.71"/>
<polygon fill="black" stroke="black" points="88.16,-243.94 87.69,-233.36 81.45,-241.93 88.16,-243.94"/>
<text text-anchor="middle" x="96.54" y="-292.2" font-family="Times,serif" font-size="14.00">lru_next</text>
</g>
<!-- backentryr3 -->
<g id="node4" class="node">
<title>backentryr3</title>
<polygon fill="none" stroke="black" points="64.88,-16.5 64.88,-52.5 167.12,-52.5 167.12,-16.5 64.88,-16.5"/>
<text text-anchor="middle" x="116" y="-29.45" font-family="Times,serif" font-size="14.00">backentry TAIL</text>
</g>
<!-- cache&#45;&gt;backentryr3 -->
<g id="edge6" class="edge">
<title>cache:lru_tail&#45;&gt;backentryr3</title>
<path fill="none" stroke="black" d="M167.62,-336.75C285.94,-336.75 200.84,-178.76 152,-71 150.48,-67.64 148.49,-64.43 146.22,-61.41"/>
<polygon fill="black" stroke="black" points="149.02,-59.29 139.79,-54.08 143.76,-63.91 149.02,-59.29"/>
<text text-anchor="middle" x="222.15" y="-163.7" font-family="Times,serif" font-size="14.00">lru_prev</text>
</g>
<!-- backentryr2 -->
<g id="node3" class="node">
<title>backentryr2</title>
<polygon fill="none" stroke="black" points="40.88,-106 40.88,-142 125.12,-142 125.12,-106 40.88,-106"/>
<text text-anchor="middle" x="83" y="-118.95" font-family="Times,serif" font-size="14.00">backentry ...</text>
</g>
<!-- backentryr1&#45;&gt;backentryr2 -->
<g id="edge1" class="edge">
<title>backentryr1&#45;&gt;backentryr2</title>
<path fill="none" stroke="black" d="M57.58,-195.15C50.92,-190.25 44.86,-184.23 41,-177 36.01,-167.65 39.92,-158.36 47.02,-150.27"/>
<polygon fill="black" stroke="black" points="49.43,-152.81 54.23,-143.37 44.59,-147.75 49.43,-152.81"/>
<text text-anchor="middle" x="63.5" y="-163.7" font-family="Times,serif" font-size="14.00">lru_next</text>
</g>
<!-- backentryr2&#45;&gt;backentryr1 -->
<g id="edge4" class="edge">
<title>backentryr2&#45;&gt;backentryr1</title>
<path fill="none" stroke="black" d="M85.17,-142.25C86.66,-154.11 88.67,-170.13 90.4,-183.88"/>
<polygon fill="black" stroke="black" points="86.92,-184.23 91.64,-193.71 93.86,-183.35 86.92,-184.23"/>
<text text-anchor="middle" x="112.36" y="-163.7" font-family="Times,serif" font-size="14.00">lru_prev</text>
</g>
<!-- backentryr2&#45;&gt;backentryr3 -->
<g id="edge2" class="edge">
<title>backentryr2&#45;&gt;backentryr3</title>
<path fill="none" stroke="black" d="M60.66,-105.87C50.38,-95.83 41.88,-82.83 49,-71 51.52,-66.81 54.72,-63.09 58.34,-59.79"/>
<polygon fill="black" stroke="black" points="60.44,-62.6 66.26,-53.75 56.19,-57.04 60.44,-62.6"/>
<text text-anchor="middle" x="71.5" y="-74.2" font-family="Times,serif" font-size="14.00">lru_next</text>
</g>
<!-- backentryr3&#45;&gt;backentryr2 -->
<g id="edge3" class="edge">
<title>backentryr3&#45;&gt;backentryr2</title>
<path fill="none" stroke="black" d="M109.49,-52.75C104.93,-64.85 98.74,-81.28 93.48,-95.21"/>
<polygon fill="black" stroke="black" points="90.31,-93.7 90.05,-104.3 96.86,-96.18 90.31,-93.7"/>
<text text-anchor="middle" x="125.33" y="-74.2" font-family="Times,serif" font-size="14.00">lru_prev</text>
</g>
</g>
</svg>
