<?xml version="1.0" encoding="UTF-8" standalone="no"?>
<!DOCTYPE svg PUBLIC "-//W3C//DTD SVG 1.1//EN"
 "http://www.w3.org/Graphics/SVG/1.1/DTD/svg11.dtd">
<!-- Generated by graphviz version 12.2.1 (20241206.2353)
 -->
<!-- Title: EntryCache Pages: 1 -->
<svg width="591pt" height="385pt"
 viewBox="0.00 0.00 591.00 384.50" xmlns="http://www.w3.org/2000/svg" xmlns:xlink="http://www.w3.org/1999/xlink">
<g id="graph0" class="graph" transform="scale(1 1) rotate(0) translate(4 380.5)">
<title>EntryCache</title>
<polygon fill="white" stroke="none" points="-4,4 -4,-380.5 587,-380.5 587,4 -4,4"/>
<g id="clust1" class="cluster">
<title>cluster_RegularLRUQueue</title>
<polygon fill="none" stroke="black" points="8,-8 8,-368.5 182,-368.5 182,-8 8,-8"/>
<text text-anchor="middle" x="95" y="-351.2" font-family="Times,serif" font-size="14.00">Regular LRU Queue</text>
<text text-anchor="middle" x="95" y="-334.7" font-family="Times,serif" font-size="14.00">(sorted by incomming order)</text>
</g>
<g id="clust2" class="cluster">
<title>cluster_PreservedLRUQueue</title>
<polygon fill="none" stroke="black" points="400,-8 400,-368.5 575,-368.5 575,-8 400,-8"/>
<text text-anchor="middle" x="487.5" y="-351.2" font-family="Times,serif" font-size="14.00">Protected LRU Queue</text>
<text text-anchor="middle" x="487.5" y="-334.7" font-family="Times,serif" font-size="14.00">(sorted by increasing weight)</text>
</g>
<!-- cache -->
<g id="node1" class="node">
<title>cache</title>
<text text-anchor="start" x="274.88" y="-212.7" font-family="Times,serif" font-weight="bold" font-size="14.00">cache</text>
<polygon fill="#eeeeee" stroke="none" points="210.88,-180 210.88,-204.5 371.12,-204.5 371.12,-180 210.88,-180"/>
<text text-anchor="start" x="214.88" y="-187.2" font-family="Times,serif" font-size="14.00">c_stats</text>
<text text-anchor="start" x="214.88" y="-162.7" font-family="Times,serif" font-size="14.00">c_lrus[LRU_REGULAR]</text>
<polygon fill="#eeeeee" stroke="none" points="210.88,-131 210.88,-155.5 371.12,-155.5 371.12,-131 210.88,-131"/>
<text text-anchor="start" x="214.88" y="-138.2" font-family="Times,serif" font-size="14.00">c_lrus[LRU_PRESERVED]</text>
<text text-anchor="start" x="214.88" y="-113.7" font-family="Times,serif" font-size="14.00">c_nbpreserved</text>
<polygon fill="none" stroke="black" points="209.88,-105.5 209.88,-230 372.12,-230 372.12,-105.5 209.88,-105.5"/>
</g>
<!-- backentryr1 -->
<g id="node2" class="node">
<title>backentryr1</title>
<polygon fill="none" stroke="black" points="58.75,-283 58.75,-319 169.25,-319 169.25,-283 58.75,-283"/>
<text text-anchor="middle" x="114" y="-295.95" font-family="Times,serif" font-size="14.00">backentry HEAD</text>
</g>
<!-- cache&#45;&gt;backentryr1 -->
<g id="edge11" class="edge">
<title>cache:LRU_REGULAR&#45;&gt;backentryr1</title>
<path fill="none" stroke="black" d="M209.88,-167.75C180.24,-167.75 201.47,-204.72 186,-230 175.45,-247.24 159.69,-263.22 145.6,-275.55"/>
<polygon fill="black" stroke="black" points="143.64,-272.63 138.26,-281.75 148.16,-277.97 143.64,-272.63"/>
<text text-anchor="middle" x="193.88" y="-251.2" font-family="Times,serif" font-size="14.00">lru_next</text>
</g>
<!-- backentryr3 -->
<g id="node4" class="node">
<title>backentryr3</title>
<polygon fill="none" stroke="black" points="64.88,-16.5 64.88,-52.5 167.12,-52.5 167.12,-16.5 64.88,-16.5"/>
<text text-anchor="middle" x="116" y="-29.45" font-family="Times,serif" font-size="14.00">backentry TAIL</text>
</g>
<!-- cache&#45;&gt;backentryr3 -->
<g id="edge12" class="edge">
<title>cache:LRU_REGULAR&#45;&gt;backentryr3</title>
<path fill="none" stroke="black" d="M209.88,-167.75C180.24,-167.75 201.26,-130.9 186,-105.5 175.84,-88.58 160.7,-72.75 147.11,-60.45"/>
<polygon fill="black" stroke="black" points="149.43,-57.83 139.6,-53.88 144.83,-63.1 149.43,-57.83"/>
<text text-anchor="middle" x="194.66" y="-74.2" font-family="Times,serif" font-size="14.00">lru_prev</text>
</g>
<!-- backentryp1 -->
<g id="node5" class="node">
<title>backentryp1</title>
<polygon fill="none" stroke="black" points="407.75,-283 407.75,-319 518.25,-319 518.25,-283 407.75,-283"/>
<text text-anchor="middle" x="463" y="-295.95" font-family="Times,serif" font-size="14.00">backentry HEAD</text>
</g>
<!-- cache&#45;&gt;backentryp1 -->
<g id="edge14" class="edge">
<title>cache:LRU_PRESERVED&#45;&gt;backentryp1</title>
<path fill="none" stroke="black" d="M372.12,-143.25C410.68,-143.25 393.86,-198.86 371.12,-230 357.23,-249.03 290.09,-230.27 317,-264.5 327.17,-277.44 362.81,-286.25 396.33,-291.86"/>
<polygon fill="black" stroke="black" points="395.66,-295.3 406.08,-293.4 396.75,-288.38 395.66,-295.3"/>
<text text-anchor="middle" x="339.5" y="-251.2" font-family="Times,serif" font-size="14.00">lru_next</text>
</g>
<!-- backentryp3 -->
<g id="node7" class="node">
<title>backentryp3</title>
<polygon fill="none" stroke="black" points="407.88,-16.5 407.88,-52.5 510.12,-52.5 510.12,-16.5 407.88,-16.5"/>
<text text-anchor="middle" x="459" y="-29.45" font-family="Times,serif" font-size="14.00">backentry TAIL</text>
</g>
<!-- cache&#45;&gt;backentryp3 -->
<g id="edge13" class="edge">
<title>cache:LRU_PRESERVED&#45;&gt;backentryp3</title>
<path fill="none" stroke="black" d="M372.12,-143.25C388.91,-143.25 381.11,-118.99 371.12,-105.5 356.1,-85.21 332,-107.99 317.25,-87.5 312.96,-81.55 312.74,-76.78 317.25,-71 327.31,-58.11 363.19,-49.2 396.33,-43.53"/>
<polygon fill="black" stroke="black" points="396.62,-47.03 405.93,-41.97 395.5,-40.12 396.62,-47.03"/>
<text text-anchor="middle" x="340.12" y="-74.2" font-family="Times,serif" font-size="14.00">lru_prev</text>
</g>
<!-- backentryr1&#45;&gt;cache -->
<g id="edge10" class="edge">
<title>backentryr1&#45;&gt;cache:LRU_REGULAR</title>
<path fill="none" stroke="black" d="M169.48,-295.82C190.35,-291.22 212.12,-282.15 225,-264.5 229.32,-258.58 227.39,-254.93 225,-248 221.68,-238.39 214.27,-239.58 210.88,-230 203.29,-208.61 188.86,-180.42 199.19,-170.99"/>
<polygon fill="black" stroke="black" points="199.87,-174.44 208.43,-168.19 197.84,-167.74 199.87,-174.44"/>
<text text-anchor="middle" x="250.44" y="-251.2" font-family="Times,serif" font-size="14.00">lru_prev</text>
</g>
<!-- backentryr2 -->
<g id="node3" class="node">
<title>backentryr2</title>
<polygon fill="none" stroke="black" points="41.88,-149.75 41.88,-185.75 126.12,-185.75 126.12,-149.75 41.88,-149.75"/>
<text text-anchor="middle" x="84" y="-162.7" font-family="Times,serif" font-size="14.00">backentry ...</text>
</g>
<!-- backentryr1&#45;&gt;backentryr2 -->
<g id="edge1" class="edge">
<title>backentryr1&#45;&gt;backentryr2</title>
<path fill="none" stroke="black" d="M61.92,-282.71C54.39,-277.97 47.64,-272 43,-264.5 29.29,-242.32 44.03,-214.76 59.52,-194.91"/>
<polygon fill="black" stroke="black" points="62.16,-197.2 65.86,-187.27 56.77,-192.73 62.16,-197.2"/>
<text text-anchor="middle" x="65.5" y="-251.2" font-family="Times,serif" font-size="14.00">lru_next</text>
</g>
<!-- backentryr2&#45;&gt;backentryr1 -->
<g id="edge4" class="edge">
<title>backentryr2&#45;&gt;backentryr1</title>
<path fill="none" stroke="black" d="M87.9,-185.83C92.87,-207.56 101.51,-245.37 107.48,-271.49"/>
<polygon fill="black" stroke="black" points="104.04,-272.13 109.68,-281.1 110.86,-270.57 104.04,-272.13"/>
<text text-anchor="middle" x="128.01" y="-251.2" font-family="Times,serif" font-size="14.00">lru_prev</text>
</g>
<!-- backentryr2&#45;&gt;backentryr3 -->
<g id="edge2" class="edge">
<title>backentryr2&#45;&gt;backentryr3</title>
<path fill="none" stroke="black" d="M66.77,-149.36C49.31,-129.55 26.98,-96.6 43,-71 46.27,-65.77 50.55,-61.3 55.41,-57.47"/>
<polygon fill="black" stroke="black" points="57.07,-60.57 63.42,-52.09 53.17,-54.76 57.07,-60.57"/>
<text text-anchor="middle" x="65.5" y="-74.2" font-family="Times,serif" font-size="14.00">lru_next</text>
</g>
<!-- backentryr3&#45;&gt;cache -->
<g id="edge9" class="edge">
<title>backentryr3&#45;&gt;cache:LRU_REGULAR</title>
<path fill="none" stroke="black" d="M167.56,-39.08C189.25,-43.44 212.54,-52.51 226,-71 230.32,-76.93 228.51,-80.61 226,-87.5 222.42,-97.32 214.53,-95.71 210.88,-105.5 202.93,-126.76 188.73,-155.03 199.15,-164.5"/>
<polygon fill="black" stroke="black" points="197.84,-167.76 208.43,-167.31 199.87,-161.06 197.84,-167.76"/>
<text text-anchor="middle" x="251.1" y="-74.2" font-family="Times,serif" font-size="14.00">lru_next</text>
</g>
<!-- backentryr3&#45;&gt;backentryr2 -->
<g id="edge3" class="edge">
<title>backentryr3&#45;&gt;backentryr2</title>
<path fill="none" stroke="black" d="M111.83,-52.58C106.54,-74.31 97.32,-112.12 90.95,-138.24"/>
<polygon fill="black" stroke="black" points="87.58,-137.31 88.61,-147.85 94.38,-138.96 87.58,-137.31"/>
<text text-anchor="middle" x="129.42" y="-74.2" font-family="Times,serif" font-size="14.00">lru_prev</text>
</g>
<!-- backentryp1&#45;&gt;cache -->
<g id="edge15" class="edge">
<title>backentryp1&#45;&gt;cache:LRU_PRESERVED</title>
<path fill="none" stroke="black" d="M423.46,-282.52C415.85,-277.63 408.6,-271.65 403.25,-264.5 388.98,-245.45 396.71,-170.26 381.82,-148.92"/>
<polygon fill="black" stroke="black" points="383.83,-146.04 373.43,-144.01 380.29,-152.09 383.83,-146.04"/>
<text text-anchor="middle" x="426.12" y="-251.2" font-family="Times,serif" font-size="14.00">lru_prev</text>
</g>
<!-- backentryp2 -->
<g id="node6" class="node">
<title>backentryp2</title>
<polygon fill="none" stroke="black" points="444.88,-149.75 444.88,-185.75 529.12,-185.75 529.12,-149.75 444.88,-149.75"/>
<text text-anchor="middle" x="487" y="-162.7" font-family="Times,serif" font-size="14.00">backentry ...</text>
</g>
<!-- backentryp1&#45;&gt;backentryp2 -->
<g id="edge5" class="edge">
<title>backentryp1&#45;&gt;backentryp2</title>
<path fill="none" stroke="black" d="M456.78,-282.62C453.95,-272.5 451.7,-259.5 454,-248 457.6,-230.01 465.37,-210.99 472.46,-196.1"/>
<polygon fill="black" stroke="black" points="475.46,-197.92 476.77,-187.41 469.19,-194.81 475.46,-197.92"/>
<text text-anchor="middle" x="476.5" y="-251.2" font-family="Times,serif" font-size="14.00">lru_next</text>
</g>
<!-- backentryp2&#45;&gt;backentryp1 -->
<g id="edge8" class="edge">
<title>backentryp2&#45;&gt;backentryp1</title>
<path fill="none" stroke="black" d="M494.26,-186.06C501.4,-205.81 509.8,-238.69 499,-264.5 497.58,-267.9 495.65,-271.14 493.43,-274.18"/>
<polygon fill="black" stroke="black" points="490.97,-271.68 487.05,-281.53 496.25,-276.27 490.97,-271.68"/>
<text text-anchor="middle" x="526.01" y="-251.2" font-family="Times,serif" font-size="14.00">lru_prev</text>
</g>
<!-- backentryp2&#45;&gt;backentryp3 -->
<g id="edge6" class="edge">
<title>backentryp2&#45;&gt;backentryp3</title>
<path fill="none" stroke="black" d="M477.44,-149.45C469.38,-133.8 458.47,-109.86 454,-87.5 452.51,-80.03 452.53,-71.86 453.24,-64.26"/>
<polygon fill="black" stroke="black" points="456.69,-64.85 454.59,-54.46 449.76,-63.89 456.69,-64.85"/>
<text text-anchor="middle" x="476.5" y="-74.2" font-family="Times,serif" font-size="14.00">lru_next</text>
</g>
<!-- backentryp3&#45;&gt;cache -->
<g id="edge16" class="edge">
<title>backentryp3&#45;&gt;cache:LRU_PRESERVED</title>
<path fill="none" stroke="black" d="M425.13,-52.96C417.49,-58.02 409.9,-64.08 404,-71 384.24,-94.15 401.17,-131.48 383.13,-140.99"/>
<polygon fill="black" stroke="black" points="382.7,-137.51 373.61,-142.95 384.11,-144.36 382.7,-137.51"/>
<text text-anchor="middle" x="426.5" y="-74.2" font-family="Times,serif" font-size="14.00">lru_next</text>
</g>
<!-- backentryp3&#45;&gt;backentryp2 -->
<g id="edge7" class="edge">
<title>backentryp3&#45;&gt;backentryp2</title>
<path fill="none" stroke="black" d="M484.99,-52.78C490.65,-57.92 495.88,-64.06 499,-71 508.59,-92.33 504.15,-118.87 498.13,-138.6"/>
<polygon fill="black" stroke="black" points="494.88,-137.3 494.99,-147.9 501.51,-139.55 494.88,-137.3"/>
<text text-anchor="middle" x="526.3" y="-74.2" font-family="Times,serif" font-size="14.00">lru_prev</text>
</g>
</g>
</svg>
