<?xml version="1.0" encoding="UTF-8" standalone="no"?>
<!DOCTYPE svg PUBLIC "-//W3C//DTD SVG 1.1//EN"
 "http://www.w3.org/Graphics/SVG/1.1/DTD/svg11.dtd">
<!-- Generated by graphviz version 2.38.0 (20140413.2041)
 -->
<!-- Title: O_DMC Pages: 1 -->
<svg width="1343pt" height="699pt"
 viewBox="0.00 0.00 1342.84 699.00" xmlns="http://www.w3.org/2000/svg" xmlns:xlink="http://www.w3.org/1999/xlink">
<g id="graph0" class="graph" transform="scale(1 1) rotate(0) translate(4 695)">
<title>O_DMC</title>
<polygon fill="white" stroke="none" points="-4,4 -4,-695 1338.84,-695 1338.84,4 -4,4"/>
<!-- root -->
<g id="node1" class="node"><title>root</title>
<polygon fill="none" stroke="black" stroke-width="2" points="803.484,-678.562 698,-691 592.516,-678.562 592.614,-658.438 803.386,-658.438 803.484,-678.562"/>
<text text-anchor="middle" x="698" y="-669.3" font-family="Times,serif" font-size="14.00">Configuration Server</text>
</g>
<!-- o_dmc -->
<g id="node2" class="node"><title>o_dmc</title>
<polygon fill="none" stroke="black" stroke-width="2" points="737.291,-593.544 737.291,-608.456 714.275,-619 681.725,-619 658.709,-608.456 658.709,-593.544 681.725,-583 714.275,-583 737.291,-593.544"/>
<text text-anchor="middle" x="698" y="-597.3" font-family="Times,serif" font-size="14.00" fill="green">o=dmc</text>
</g>
<!-- root&#45;&gt;o_dmc -->
<g id="edge1" class="edge"><title>root&#45;&gt;o_dmc</title>
<path fill="none" stroke="black" d="M698,-658.17C698,-649.919 698,-639.153 698,-629.256"/>
<polygon fill="black" stroke="black" points="701.5,-629.019 698,-619.019 694.5,-629.019 701.5,-629.019"/>
</g>
<!-- cn_administration -->
<g id="node3" class="node"><title>cn_administration</title>
<polygon fill="none" stroke="black" points="512,-510.5 512,-546.5 632,-546.5 632,-510.5 512,-510.5"/>
<text text-anchor="middle" x="572" y="-524.8" font-family="Times,serif" font-size="14.00">cn=Administration</text>
</g>
<!-- o_dmc&#45;&gt;cn_administration -->
<g id="edge3" class="edge"><title>o_dmc&#45;&gt;cn_administration</title>
<path fill="none" stroke="black" d="M673.706,-586.407C656.015,-576.508 631.675,-562.889 611.241,-551.456"/>
<polygon fill="black" stroke="black" points="612.897,-548.372 602.461,-546.544 609.479,-554.481 612.897,-548.372"/>
</g>
<!-- cn_domains -->
<g id="node4" class="node"><title>cn_domains</title>
<polygon fill="none" stroke="black" points="654.5,-510.5 654.5,-546.5 741.5,-546.5 741.5,-510.5 654.5,-510.5"/>
<text text-anchor="middle" x="698" y="-524.8" font-family="Times,serif" font-size="14.00">cn=Domains</text>
</g>
<!-- o_dmc&#45;&gt;cn_domains -->
<g id="edge2" class="edge"><title>o_dmc&#45;&gt;cn_domains</title>
<path fill="none" stroke="black" d="M698,-582.934C698,-575.17 698,-565.784 698,-557.06"/>
<polygon fill="black" stroke="black" points="701.5,-556.899 698,-546.899 694.5,-556.899 701.5,-556.899"/>
</g>
<!-- dmc_repl -->
<g id="node5" class="node"><title>dmc_repl</title>
<polygon fill="none" stroke="black" points="770.5,-510.5 770.5,-546.5 905.5,-546.5 905.5,-510.5 770.5,-510.5"/>
<text text-anchor="middle" x="838" y="-524.8" font-family="Times,serif" font-size="14.00">cn=DMC Replication</text>
</g>
<!-- o_dmc&#45;&gt;dmc_repl -->
<g id="edge4" class="edge"><title>o_dmc&#45;&gt;dmc_repl</title>
<path fill="none" stroke="black" d="M723.678,-587.069C743.609,-577.033 771.684,-562.895 795.023,-551.142"/>
<polygon fill="black" stroke="black" points="796.68,-554.226 804.037,-546.603 793.532,-547.974 796.68,-554.226"/>
</g>
<!-- uid_admin -->
<g id="node24" class="node"><title>uid_admin</title>
<polygon fill="none" stroke="black" points="425.5,-437.5 425.5,-473.5 502.5,-473.5 502.5,-437.5 425.5,-437.5"/>
<text text-anchor="middle" x="464" y="-451.8" font-family="Times,serif" font-size="14.00">uid=admin</text>
</g>
<!-- cn_administration&#45;&gt;uid_admin -->
<g id="edge6" class="edge"><title>cn_administration&#45;&gt;uid_admin</title>
<path fill="none" stroke="black" d="M546.131,-510.494C531.942,-501.166 514.158,-489.474 498.77,-479.358"/>
<polygon fill="black" stroke="black" points="500.311,-476.182 490.032,-473.614 496.465,-482.032 500.311,-476.182"/>
</g>
<!-- admin_role -->
<g id="node25" class="node"><title>admin_role</title>
<polygon fill="none" stroke="black" points="521,-437.5 521,-473.5 623,-473.5 623,-437.5 521,-437.5"/>
<text text-anchor="middle" x="572" y="-451.8" font-family="Times,serif" font-size="14.00">cn=admin roles</text>
</g>
<!-- cn_administration&#45;&gt;admin_role -->
<g id="edge7" class="edge"><title>cn_administration&#45;&gt;admin_role</title>
<path fill="none" stroke="black" d="M572,-510.313C572,-502.289 572,-492.547 572,-483.569"/>
<polygon fill="black" stroke="black" points="575.5,-483.529 572,-473.529 568.5,-483.529 575.5,-483.529"/>
</g>
<!-- ou_domain -->
<g id="node12" class="node"><title>ou_domain</title>
<polygon fill="none" stroke="black" points="641.5,-437.5 641.5,-473.5 754.5,-473.5 754.5,-437.5 641.5,-437.5"/>
<text text-anchor="middle" x="698" y="-451.8" font-family="Times,serif" font-size="14.00">ou=example.com</text>
</g>
<!-- cn_domains&#45;&gt;ou_domain -->
<g id="edge8" class="edge"><title>cn_domains&#45;&gt;ou_domain</title>
<path fill="none" stroke="black" d="M698,-510.313C698,-502.289 698,-492.547 698,-483.569"/>
<polygon fill="black" stroke="black" points="701.5,-483.529 698,-473.529 694.5,-483.529 701.5,-483.529"/>
</g>
<!-- dmc_repl_servers -->
<g id="node6" class="node"><title>dmc_repl_servers</title>
<ellipse fill="none" stroke="green" cx="850" cy="-455.5" rx="77.1866" ry="18"/>
<text text-anchor="middle" x="850" y="-451.8" font-family="Times,serif" font-size="14.00">cn=Config Servers</text>
</g>
<!-- dmc_repl&#45;&gt;dmc_repl_servers -->
<g id="edge5" class="edge"><title>dmc_repl&#45;&gt;dmc_repl_servers</title>
<path fill="none" stroke="black" d="M840.905,-510.313C842.261,-502.289 843.907,-492.547 845.425,-483.569"/>
<polygon fill="black" stroke="black" points="848.906,-483.972 847.122,-473.529 842.004,-482.806 848.906,-483.972"/>
</g>
<!-- cn_hosts -->
<g id="node7" class="node"><title>cn_hosts</title>
<polygon fill="none" stroke="black" stroke-width="2" points="487,-364.5 487,-400.5 555,-400.5 555,-364.5 487,-364.5"/>
<text text-anchor="middle" x="521" y="-378.8" font-family="Times,serif" font-size="14.00">cn=Hosts</text>
</g>
<!-- cn_host1 -->
<g id="node13" class="node"><title>cn_host1</title>
<polygon fill="none" stroke="black" points="64,-291.5 64,-327.5 294,-327.5 294,-291.5 64,-291.5"/>
<text text-anchor="middle" x="179" y="-305.8" font-family="Times,serif" font-size="14.00">cn=mark.philadelphia.us.example.com</text>
</g>
<!-- cn_hosts&#45;&gt;cn_host1 -->
<g id="edge16" class="edge"><title>cn_hosts&#45;&gt;cn_host1</title>
<path fill="none" stroke="black" d="M486.957,-374.433C437.096,-364.081 342.398,-344.422 271.119,-329.624"/>
<polygon fill="black" stroke="black" points="271.726,-326.176 261.223,-327.57 270.303,-333.029 271.726,-326.176"/>
</g>
<!-- cn_host2 -->
<g id="node14" class="node"><title>cn_host2</title>
<polygon fill="none" stroke="black" points="318,-291.5 318,-327.5 542,-327.5 542,-291.5 318,-291.5"/>
<text text-anchor="middle" x="430" y="-305.8" font-family="Times,serif" font-size="14.00">cn=william.brisbane.au.example.com</text>
</g>
<!-- cn_hosts&#45;&gt;cn_host2 -->
<g id="edge17" class="edge"><title>cn_hosts&#45;&gt;cn_host2</title>
<path fill="none" stroke="black" d="M498.971,-364.313C487.235,-355.156 472.629,-343.76 459.884,-333.816"/>
<polygon fill="black" stroke="black" points="461.863,-330.921 451.826,-327.529 457.557,-336.44 461.863,-330.921"/>
</g>
<!-- host_config_sync -->
<g id="node15" class="node"><title>host_config_sync</title>
<polygon fill="none" stroke="blue" points="560,-291.5 560,-327.5 666,-327.5 666,-291.5 560,-291.5"/>
<text text-anchor="middle" x="613" y="-305.8" font-family="Times,serif" font-size="14.00">cn=Config Sync</text>
</g>
<!-- cn_hosts&#45;&gt;host_config_sync -->
<g id="edge18" class="edge"><title>cn_hosts&#45;&gt;host_config_sync</title>
<path fill="none" stroke="black" d="M543.271,-364.313C555.136,-355.156 569.903,-343.76 582.788,-333.816"/>
<polygon fill="black" stroke="black" points="585.156,-336.409 590.934,-327.529 580.879,-330.868 585.156,-336.409"/>
</g>
<!-- cn_suffixes -->
<g id="node8" class="node"><title>cn_suffixes</title>
<polygon fill="none" stroke="black" stroke-width="2" points="862.5,-364.5 862.5,-400.5 945.5,-400.5 945.5,-364.5 862.5,-364.5"/>
<text text-anchor="middle" x="904" y="-378.8" font-family="Times,serif" font-size="14.00">cn=Suffixes</text>
</g>
<!-- suffix1 -->
<g id="node10" class="node"><title>suffix1</title>
<polygon fill="none" stroke="black" points="821,-291.5 821,-327.5 987,-327.5 987,-291.5 821,-291.5"/>
<text text-anchor="middle" x="904" y="-305.8" font-family="Times,serif" font-size="14.00">cn=&quot;dc=example,dc=com&quot;</text>
</g>
<!-- cn_suffixes&#45;&gt;suffix1 -->
<g id="edge11" class="edge"><title>cn_suffixes&#45;&gt;suffix1</title>
<path fill="none" stroke="black" d="M904,-364.313C904,-356.289 904,-346.547 904,-337.569"/>
<polygon fill="black" stroke="black" points="907.5,-337.529 904,-327.529 900.5,-337.529 907.5,-337.529"/>
</g>
<!-- suffix2 -->
<g id="node11" class="node"><title>suffix2</title>
<polygon fill="none" stroke="black" points="1053.5,-291.5 1053.5,-327.5 1146.5,-327.5 1146.5,-291.5 1053.5,-291.5"/>
<text text-anchor="middle" x="1100" y="-305.8" font-family="Times,serif" font-size="14.00">cn=&quot;o=ipaca&quot;</text>
</g>
<!-- cn_suffixes&#45;&gt;suffix2 -->
<g id="edge12" class="edge"><title>cn_suffixes&#45;&gt;suffix2</title>
<path fill="none" stroke="black" d="M945.567,-366.443C974.183,-356.077 1012.54,-342.183 1043.86,-330.835"/>
<polygon fill="black" stroke="black" points="1045.13,-334.099 1053.34,-327.402 1042.75,-327.517 1045.13,-334.099"/>
</g>
<!-- cn_replication -->
<g id="node9" class="node"><title>cn_replication</title>
<polygon fill="none" stroke="black" points="830,-218.5 830,-254.5 930,-254.5 930,-218.5 830,-218.5"/>
<text text-anchor="middle" x="880" y="-232.8" font-family="Times,serif" font-size="14.00">cn=Replication</text>
</g>
<!-- cn_repl_masters -->
<g id="node26" class="node"><title>cn_repl_masters</title>
<polygon fill="none" stroke="black" points="662.5,-145.5 662.5,-181.5 743.5,-181.5 743.5,-145.5 662.5,-145.5"/>
<text text-anchor="middle" x="703" y="-159.8" font-family="Times,serif" font-size="14.00">cn=Masters</text>
</g>
<!-- cn_replication&#45;&gt;cn_repl_masters -->
<g id="edge24" class="edge"><title>cn_replication&#45;&gt;cn_repl_masters</title>
<path fill="none" stroke="black" d="M837.604,-218.494C812.191,-208.3 779.741,-195.283 753.069,-184.584"/>
<polygon fill="black" stroke="black" points="754.113,-181.232 743.528,-180.757 751.507,-187.729 754.113,-181.232"/>
</g>
<!-- cn_repl_hubs -->
<g id="node27" class="node"><title>cn_repl_hubs</title>
<polygon fill="none" stroke="black" points="762,-145.5 762,-181.5 828,-181.5 828,-145.5 762,-145.5"/>
<text text-anchor="middle" x="795" y="-159.8" font-family="Times,serif" font-size="14.00">cn=Hubs</text>
</g>
<!-- cn_replication&#45;&gt;cn_repl_hubs -->
<g id="edge25" class="edge"><title>cn_replication&#45;&gt;cn_repl_hubs</title>
<path fill="none" stroke="black" d="M859.424,-218.313C848.566,-209.243 835.078,-197.977 823.254,-188.1"/>
<polygon fill="black" stroke="black" points="825.305,-185.253 815.387,-181.529 820.818,-190.626 825.305,-185.253"/>
</g>
<!-- cn_repl_consumers -->
<g id="node28" class="node"><title>cn_repl_consumers</title>
<polygon fill="none" stroke="black" points="846.5,-145.5 846.5,-181.5 945.5,-181.5 945.5,-145.5 846.5,-145.5"/>
<text text-anchor="middle" x="896" y="-159.8" font-family="Times,serif" font-size="14.00">cn=Consumers</text>
</g>
<!-- cn_replication&#45;&gt;cn_repl_consumers -->
<g id="edge26" class="edge"><title>cn_replication&#45;&gt;cn_repl_consumers</title>
<path fill="none" stroke="black" d="M883.873,-218.313C885.681,-210.289 887.877,-200.547 889.9,-191.569"/>
<polygon fill="black" stroke="black" points="893.378,-192.054 892.163,-181.529 886.55,-190.515 893.378,-192.054"/>
</g>
<!-- suffix1&#45;&gt;cn_replication -->
<g id="edge14" class="edge"><title>suffix1&#45;&gt;cn_replication</title>
<path fill="none" stroke="black" d="M898.19,-291.313C895.449,-283.202 892.113,-273.336 889.051,-264.277"/>
<polygon fill="black" stroke="black" points="892.274,-262.881 885.756,-254.529 885.643,-265.123 892.274,-262.881"/>
</g>
<!-- suffix_config_sync -->
<g id="node16" class="node"><title>suffix_config_sync</title>
<polygon fill="none" stroke="blue" points="970,-218.5 970,-254.5 1076,-254.5 1076,-218.5 970,-218.5"/>
<text text-anchor="middle" x="1023" y="-232.8" font-family="Times,serif" font-size="14.00">cn=Config Sync</text>
</g>
<!-- suffix1&#45;&gt;suffix_config_sync -->
<g id="edge13" class="edge"><title>suffix1&#45;&gt;suffix_config_sync</title>
<path fill="none" stroke="black" d="M932.503,-291.494C948.43,-281.991 968.467,-270.036 985.637,-259.792"/>
<polygon fill="black" stroke="black" points="987.522,-262.743 994.317,-254.614 983.936,-256.732 987.522,-262.743"/>
</g>
<!-- dotdotdot -->
<g id="node37" class="node"><title>dotdotdot</title>
<ellipse fill="none" stroke="black" cx="1121" cy="-236.5" rx="27" ry="18"/>
<text text-anchor="middle" x="1121" y="-232.8" font-family="Times,serif" font-size="14.00">...</text>
</g>
<!-- suffix2&#45;&gt;dotdotdot -->
<g id="edge15" class="edge"><title>suffix2&#45;&gt;dotdotdot</title>
<path fill="none" stroke="black" d="M1105.08,-291.313C1107.48,-283.202 1110.4,-273.336 1113.08,-264.277"/>
<polygon fill="black" stroke="black" points="1116.48,-265.111 1115.96,-254.529 1109.77,-263.125 1116.48,-265.111"/>
</g>
<!-- ou_domain&#45;&gt;cn_hosts -->
<g id="edge10" class="edge"><title>ou_domain&#45;&gt;cn_hosts</title>
<path fill="none" stroke="black" d="M655.604,-437.494C628.067,-426.448 592.267,-412.087 564.51,-400.953"/>
<polygon fill="black" stroke="black" points="565.639,-397.635 555.055,-397.16 563.033,-404.132 565.639,-397.635"/>
</g>
<!-- ou_domain&#45;&gt;cn_suffixes -->
<g id="edge9" class="edge"><title>ou_domain&#45;&gt;cn_suffixes</title>
<path fill="none" stroke="black" d="M747.342,-437.494C779.164,-426.526 820.466,-412.291 852.672,-401.191"/>
<polygon fill="black" stroke="black" points="854.041,-404.421 862.354,-397.854 851.76,-397.803 854.041,-404.421"/>
</g>
<!-- cn_inst1 -->
<g id="node31" class="node"><title>cn_inst1</title>
<polygon fill="none" stroke="black" points="0,-218.5 0,-254.5 100,-254.5 100,-218.5 0,-218.5"/>
<text text-anchor="middle" x="50" y="-232.8" font-family="Times,serif" font-size="14.00">cn=slapd&#45;instA</text>
</g>
<!-- cn_host1&#45;&gt;cn_inst1 -->
<g id="edge20" class="edge"><title>cn_host1&#45;&gt;cn_inst1</title>
<path fill="none" stroke="black" d="M148.101,-291.494C130.678,-281.904 108.716,-269.817 89.9917,-259.511"/>
<polygon fill="black" stroke="black" points="91.5421,-256.369 81.0937,-254.614 88.1668,-262.502 91.5421,-256.369"/>
</g>
<!-- cn_config_inst1 -->
<g id="node33" class="node"><title>cn_config_inst1</title>
<polygon fill="none" stroke="purple" stroke-width="2" points="118.5,-218.5 118.5,-254.5 239.5,-254.5 239.5,-218.5 118.5,-218.5"/>
<text text-anchor="middle" x="179" y="-232.8" font-family="Times,serif" font-size="14.00">cn=slapd&#45;CONFIG</text>
</g>
<!-- cn_host1&#45;&gt;cn_config_inst1 -->
<g id="edge21" class="edge"><title>cn_host1&#45;&gt;cn_config_inst1</title>
<path fill="none" stroke="black" d="M179,-291.313C179,-283.289 179,-273.547 179,-264.569"/>
<polygon fill="black" stroke="black" points="182.5,-264.529 179,-254.529 175.5,-264.529 182.5,-264.529"/>
</g>
<!-- cn_inst2 -->
<g id="node32" class="node"><title>cn_inst2</title>
<polygon fill="none" stroke="black" points="257.5,-218.5 257.5,-254.5 356.5,-254.5 356.5,-218.5 257.5,-218.5"/>
<text text-anchor="middle" x="307" y="-232.8" font-family="Times,serif" font-size="14.00">cn=slapd&#45;instB</text>
</g>
<!-- cn_host2&#45;&gt;cn_inst2 -->
<g id="edge22" class="edge"><title>cn_host2&#45;&gt;cn_inst2</title>
<path fill="none" stroke="black" d="M400.538,-291.494C384.077,-281.991 363.366,-270.036 345.619,-259.792"/>
<polygon fill="black" stroke="black" points="347.058,-256.582 336.647,-254.614 343.558,-262.644 347.058,-256.582"/>
</g>
<!-- cn_config_inst2 -->
<g id="node34" class="node"><title>cn_config_inst2</title>
<polygon fill="none" stroke="purple" stroke-width="2" points="374.5,-218.5 374.5,-254.5 495.5,-254.5 495.5,-218.5 374.5,-218.5"/>
<text text-anchor="middle" x="435" y="-232.8" font-family="Times,serif" font-size="14.00">cn=slapd&#45;CONFIG</text>
</g>
<!-- cn_host2&#45;&gt;cn_config_inst2 -->
<g id="edge23" class="edge"><title>cn_host2&#45;&gt;cn_config_inst2</title>
<path fill="none" stroke="black" d="M431.21,-291.313C431.775,-283.289 432.461,-273.547 433.094,-264.569"/>
<polygon fill="black" stroke="black" points="436.59,-264.75 433.801,-254.529 429.607,-264.258 436.59,-264.75"/>
</g>
<!-- config_sync_host_attr -->
<g id="node17" class="node"><title>config_sync_host_attr</title>
<ellipse fill="none" stroke="green" cx="588" cy="-236.5" rx="74.187" ry="18"/>
<text text-anchor="middle" x="588" y="-232.8" font-family="Times,serif" font-size="14.00">cn=host attributes</text>
</g>
<!-- host_config_sync&#45;&gt;config_sync_host_attr -->
<g id="edge31" class="edge"><title>host_config_sync&#45;&gt;config_sync_host_attr</title>
<path fill="none" stroke="black" d="M606.948,-291.313C604.062,-283.115 600.543,-273.123 597.326,-263.985"/>
<polygon fill="black" stroke="black" points="600.619,-262.799 593.996,-254.529 594.016,-265.124 600.619,-262.799"/>
</g>
<!-- config_sync_plugin -->
<g id="node23" class="node"><title>config_sync_plugin</title>
<ellipse fill="none" stroke="green" cx="730" cy="-236.5" rx="50.0912" ry="18"/>
<text text-anchor="middle" x="730" y="-232.8" font-family="Times,serif" font-size="14.00">cn=plugins</text>
</g>
<!-- host_config_sync&#45;&gt;config_sync_plugin -->
<g id="edge19" class="edge"><title>host_config_sync&#45;&gt;config_sync_plugin</title>
<path fill="none" stroke="black" d="M641.024,-291.494C657.72,-281.363 679.009,-268.443 696.577,-257.782"/>
<polygon fill="black" stroke="black" points="698.647,-260.62 705.38,-252.44 695.016,-254.636 698.647,-260.62"/>
</g>
<!-- config_sync_suffix_attr -->
<g id="node19" class="node"><title>config_sync_suffix_attr</title>
<ellipse fill="none" stroke="green" cx="1043" cy="-163.5" rx="79.8859" ry="18"/>
<text text-anchor="middle" x="1043" y="-159.8" font-family="Times,serif" font-size="14.00">cn=suffix attributes</text>
</g>
<!-- suffix_config_sync&#45;&gt;config_sync_suffix_attr -->
<g id="edge33" class="edge"><title>suffix_config_sync&#45;&gt;config_sync_suffix_attr</title>
<path fill="none" stroke="black" d="M1027.84,-218.313C1030.13,-210.202 1032.91,-200.336 1035.46,-191.277"/>
<polygon fill="black" stroke="black" points="1038.86,-192.103 1038.2,-181.529 1032.12,-190.205 1038.86,-192.103"/>
</g>
<!-- config_sync_repl_attr -->
<g id="node21" class="node"><title>config_sync_repl_attr</title>
<ellipse fill="none" stroke="green" cx="1238" cy="-163.5" rx="96.6831" ry="18"/>
<text text-anchor="middle" x="1238" y="-159.8" font-family="Times,serif" font-size="14.00">cn=replication attributes</text>
</g>
<!-- suffix_config_sync&#45;&gt;config_sync_repl_attr -->
<g id="edge35" class="edge"><title>suffix_config_sync&#45;&gt;config_sync_repl_attr</title>
<path fill="none" stroke="black" d="M1074.5,-218.494C1107.29,-207.665 1149.72,-193.652 1183.14,-182.615"/>
<polygon fill="black" stroke="black" points="1184.36,-185.899 1192.76,-179.44 1182.17,-179.252 1184.36,-185.899"/>
</g>
<!-- config_sync_host -->
<g id="node18" class="node"><title>config_sync_host</title>
<ellipse fill="none" stroke="green" cx="572" cy="-163.5" rx="72.2875" ry="18"/>
<text text-anchor="middle" x="572" y="-159.8" font-family="Times,serif" font-size="14.00">cn=host template</text>
</g>
<!-- config_sync_host_attr&#45;&gt;config_sync_host -->
<g id="edge32" class="edge"><title>config_sync_host_attr&#45;&gt;config_sync_host</title>
<path fill="none" stroke="black" d="M584.127,-218.313C582.319,-210.289 580.123,-200.547 578.1,-191.569"/>
<polygon fill="black" stroke="black" points="581.45,-190.515 575.837,-181.529 574.622,-192.054 581.45,-190.515"/>
</g>
<!-- config_sync_suffix -->
<g id="node20" class="node"><title>config_sync_suffix</title>
<ellipse fill="none" stroke="green" cx="1043" cy="-90.5" rx="77.9862" ry="18"/>
<text text-anchor="middle" x="1043" y="-86.8" font-family="Times,serif" font-size="14.00">cn=suffix template</text>
</g>
<!-- config_sync_suffix_attr&#45;&gt;config_sync_suffix -->
<g id="edge34" class="edge"><title>config_sync_suffix_attr&#45;&gt;config_sync_suffix</title>
<path fill="none" stroke="black" d="M1043,-145.313C1043,-137.289 1043,-127.547 1043,-118.569"/>
<polygon fill="black" stroke="black" points="1046.5,-118.529 1043,-108.529 1039.5,-118.529 1046.5,-118.529"/>
</g>
<!-- config_sync_repl -->
<g id="node22" class="node"><title>config_sync_repl</title>
<ellipse fill="none" stroke="green" cx="1238" cy="-90.5" rx="94.7833" ry="18"/>
<text text-anchor="middle" x="1238" y="-86.8" font-family="Times,serif" font-size="14.00">cn=replication template</text>
</g>
<!-- config_sync_repl_attr&#45;&gt;config_sync_repl -->
<g id="edge36" class="edge"><title>config_sync_repl_attr&#45;&gt;config_sync_repl</title>
<path fill="none" stroke="black" d="M1238,-145.313C1238,-137.289 1238,-127.547 1238,-118.569"/>
<polygon fill="black" stroke="black" points="1241.5,-118.529 1238,-108.529 1234.5,-118.529 1241.5,-118.529"/>
</g>
<!-- cn_repl_inst1 -->
<g id="node29" class="node"><title>cn_repl_inst1</title>
<polygon fill="none" stroke="black" points="603.5,-72.5 603.5,-108.5 694.5,-108.5 694.5,-72.5 603.5,-72.5"/>
<text text-anchor="middle" x="649" y="-86.8" font-family="Times,serif" font-size="14.00">cn=host1:389</text>
</g>
<!-- cn_repl_masters&#45;&gt;cn_repl_inst1 -->
<g id="edge27" class="edge"><title>cn_repl_masters&#45;&gt;cn_repl_inst1</title>
<path fill="none" stroke="black" d="M689.928,-145.313C683.362,-136.679 675.281,-126.055 668.04,-116.534"/>
<polygon fill="black" stroke="black" points="670.791,-114.37 661.952,-108.529 665.219,-118.607 670.791,-114.37"/>
</g>
<!-- cn_repl_inst2 -->
<g id="node30" class="node"><title>cn_repl_inst2</title>
<polygon fill="none" stroke="black" points="731.5,-72.5 731.5,-108.5 822.5,-108.5 822.5,-72.5 731.5,-72.5"/>
<text text-anchor="middle" x="777" y="-86.8" font-family="Times,serif" font-size="14.00">cn=host2:389</text>
</g>
<!-- cn_repl_masters&#45;&gt;cn_repl_inst2 -->
<g id="edge28" class="edge"><title>cn_repl_masters&#45;&gt;cn_repl_inst2</title>
<path fill="none" stroke="black" d="M720.913,-145.313C730.185,-136.417 741.658,-125.409 751.807,-115.672"/>
<polygon fill="black" stroke="black" points="754.459,-117.978 759.252,-108.529 749.613,-112.927 754.459,-117.978"/>
</g>
<!-- cn_inst1_agmt -->
<g id="node35" class="node"><title>cn_inst1_agmt</title>
<ellipse fill="none" stroke="green" cx="639" cy="-18" rx="64.9885" ry="18"/>
<text text-anchor="middle" x="639" y="-14.3" font-family="Times,serif" font-size="14.00">cn=agreements</text>
</g>
<!-- cn_repl_inst1&#45;&gt;cn_inst1_agmt -->
<g id="edge29" class="edge"><title>cn_repl_inst1&#45;&gt;cn_inst1_agmt</title>
<path fill="none" stroke="black" d="M646.579,-72.4339C645.478,-64.6695 644.147,-55.2842 642.909,-46.5597"/>
<polygon fill="black" stroke="black" points="646.338,-45.808 641.468,-36.3987 639.407,-46.7912 646.338,-45.808"/>
</g>
<!-- cn_inst2_agmt -->
<g id="node36" class="node"><title>cn_inst2_agmt</title>
<ellipse fill="none" stroke="green" cx="787" cy="-18" rx="64.9885" ry="18"/>
<text text-anchor="middle" x="787" y="-14.3" font-family="Times,serif" font-size="14.00">cn=agreements</text>
</g>
<!-- cn_repl_inst2&#45;&gt;cn_inst2_agmt -->
<g id="edge30" class="edge"><title>cn_repl_inst2&#45;&gt;cn_inst2_agmt</title>
<path fill="none" stroke="black" d="M779.421,-72.4339C780.522,-64.6695 781.853,-55.2842 783.091,-46.5597"/>
<polygon fill="black" stroke="black" points="786.593,-46.7912 784.532,-36.3987 779.662,-45.808 786.593,-46.7912"/>
</g>
</g>
</svg>
