<?xml version="1.0" encoding="UTF-8" standalone="no"?>
<!DOCTYPE svg PUBLIC "-//W3C//DTD SVG 1.1//EN"
 "http://www.w3.org/Graphics/SVG/1.1/DTD/svg11.dtd">
<!-- Generated by graphviz version 2.38.0 (20140413.2041)
 -->
<!-- Title: O_DMC Pages: 1 -->
<svg width="1178pt" height="699pt"
 viewBox="0.00 0.00 1177.79 699.00" xmlns="http://www.w3.org/2000/svg" xmlns:xlink="http://www.w3.org/1999/xlink">
<g id="graph0" class="graph" transform="scale(1 1) rotate(0) translate(4 695)">
<title>O_DMC</title>
<polygon fill="white" stroke="none" points="-4,4 -4,-695 1173.79,-695 1173.79,4 -4,4"/>
<!-- root -->
<g id="node1" class="node"><title>root</title>
<polygon fill="none" stroke="black" stroke-width="2" points="960.484,-678.562 855,-691 749.516,-678.562 749.614,-658.438 960.386,-658.438 960.484,-678.562"/>
<text text-anchor="middle" x="855" y="-669.3" font-family="Times,serif" font-size="14.00">Configuration Server</text>
</g>
<!-- o_dmc -->
<g id="node2" class="node"><title>o_dmc</title>
<polygon fill="none" stroke="black" stroke-width="2" points="894.291,-593.544 894.291,-608.456 871.275,-619 838.725,-619 815.709,-608.456 815.709,-593.544 838.725,-583 871.275,-583 894.291,-593.544"/>
<text text-anchor="middle" x="855" y="-597.3" font-family="Times,serif" font-size="14.00" fill="green">o=dmc</text>
</g>
<!-- root&#45;&gt;o_dmc -->
<g id="edge1" class="edge"><title>root&#45;&gt;o_dmc</title>
<path fill="none" stroke="black" d="M855,-658.17C855,-649.919 855,-639.153 855,-629.256"/>
<polygon fill="black" stroke="black" points="858.5,-629.019 855,-619.019 851.5,-629.019 858.5,-629.019"/>
</g>
<!-- cn_domains -->
<g id="node3" class="node"><title>cn_domains</title>
<polygon fill="none" stroke="black" points="747.5,-510.5 747.5,-546.5 834.5,-546.5 834.5,-510.5 747.5,-510.5"/>
<text text-anchor="middle" x="791" y="-524.8" font-family="Times,serif" font-size="14.00">cn=Domains</text>
</g>
<!-- o_dmc&#45;&gt;cn_domains -->
<g id="edge2" class="edge"><title>o_dmc&#45;&gt;cn_domains</title>
<path fill="none" stroke="black" d="M839.507,-582.934C831.762,-574.402 822.239,-563.912 813.688,-554.493"/>
<polygon fill="black" stroke="black" points="816.108,-551.95 806.795,-546.899 810.925,-556.655 816.108,-551.95"/>
</g>
<!-- cn_administration -->
<g id="node4" class="node"><title>cn_administration</title>
<polygon fill="none" stroke="black" points="859,-510.5 859,-546.5 979,-546.5 979,-510.5 859,-510.5"/>
<text text-anchor="middle" x="919" y="-524.8" font-family="Times,serif" font-size="14.00">cn=Administration</text>
</g>
<!-- o_dmc&#45;&gt;cn_administration -->
<g id="edge3" class="edge"><title>o_dmc&#45;&gt;cn_administration</title>
<path fill="none" stroke="black" d="M870.493,-582.934C878.238,-574.402 887.761,-563.912 896.312,-554.493"/>
<polygon fill="black" stroke="black" points="899.075,-556.655 903.205,-546.899 893.892,-551.95 899.075,-556.655"/>
</g>
<!-- ou_domain -->
<g id="node11" class="node"><title>ou_domain</title>
<polygon fill="none" stroke="black" points="669.5,-437.5 669.5,-473.5 782.5,-473.5 782.5,-437.5 669.5,-437.5"/>
<text text-anchor="middle" x="726" y="-451.8" font-family="Times,serif" font-size="14.00">ou=example.com</text>
</g>
<!-- cn_domains&#45;&gt;ou_domain -->
<g id="edge9" class="edge"><title>cn_domains&#45;&gt;ou_domain</title>
<path fill="none" stroke="black" d="M775.265,-510.313C767.201,-501.505 757.241,-490.625 748.392,-480.958"/>
<polygon fill="black" stroke="black" points="750.924,-478.541 741.59,-473.529 745.761,-483.268 750.924,-478.541"/>
</g>
<!-- dmc_repl -->
<g id="node5" class="node"><title>dmc_repl</title>
<polygon fill="none" stroke="black" points="801,-437.5 801,-473.5 921,-473.5 921,-437.5 801,-437.5"/>
<text text-anchor="middle" x="861" y="-451.8" font-family="Times,serif" font-size="14.00">cn=DMC Network</text>
</g>
<!-- cn_administration&#45;&gt;dmc_repl -->
<g id="edge6" class="edge"><title>cn_administration&#45;&gt;dmc_repl</title>
<path fill="none" stroke="black" d="M904.96,-510.313C897.907,-501.679 889.228,-491.055 881.45,-481.534"/>
<polygon fill="black" stroke="black" points="883.948,-479.059 874.911,-473.529 878.527,-483.488 883.948,-479.059"/>
</g>
<!-- uid_admin -->
<g id="node23" class="node"><title>uid_admin</title>
<polygon fill="none" stroke="black" points="939.5,-437.5 939.5,-473.5 1016.5,-473.5 1016.5,-437.5 939.5,-437.5"/>
<text text-anchor="middle" x="978" y="-451.8" font-family="Times,serif" font-size="14.00">uid=admin</text>
</g>
<!-- cn_administration&#45;&gt;uid_admin -->
<g id="edge4" class="edge"><title>cn_administration&#45;&gt;uid_admin</title>
<path fill="none" stroke="black" d="M933.282,-510.313C940.529,-501.592 949.464,-490.84 957.436,-481.246"/>
<polygon fill="black" stroke="black" points="960.15,-483.457 963.849,-473.529 954.766,-478.983 960.15,-483.457"/>
</g>
<!-- admin_role -->
<g id="node24" class="node"><title>admin_role</title>
<polygon fill="none" stroke="black" points="1035,-437.5 1035,-473.5 1137,-473.5 1137,-437.5 1035,-437.5"/>
<text text-anchor="middle" x="1086" y="-451.8" font-family="Times,serif" font-size="14.00">cn=admin roles</text>
</g>
<!-- cn_administration&#45;&gt;admin_role -->
<g id="edge5" class="edge"><title>cn_administration&#45;&gt;admin_role</title>
<path fill="none" stroke="black" d="M959.001,-510.494C982.274,-500.599 1011.8,-488.045 1036.53,-477.533"/>
<polygon fill="black" stroke="black" points="1037.91,-480.747 1045.75,-473.614 1035.17,-474.305 1037.91,-480.747"/>
</g>
<!-- cn_config_inst1 -->
<g id="node32" class="node"><title>cn_config_inst1</title>
<polygon fill="none" stroke="purple" stroke-width="2" points="788,-364.5 788,-400.5 932,-400.5 932,-364.5 788,-364.5"/>
<text text-anchor="middle" x="860" y="-378.8" font-family="Times,serif" font-size="14.00">cn=Config Host1(uuid)</text>
</g>
<!-- dmc_repl&#45;&gt;cn_config_inst1 -->
<g id="edge7" class="edge"><title>dmc_repl&#45;&gt;cn_config_inst1</title>
<path fill="none" stroke="black" d="M860.758,-437.313C860.645,-429.289 860.508,-419.547 860.381,-410.569"/>
<polygon fill="black" stroke="black" points="863.88,-410.479 860.24,-400.529 856.881,-410.577 863.88,-410.479"/>
</g>
<!-- cn_config_inst2 -->
<g id="node33" class="node"><title>cn_config_inst2</title>
<polygon fill="none" stroke="purple" stroke-width="2" points="950,-364.5 950,-400.5 1094,-400.5 1094,-364.5 950,-364.5"/>
<text text-anchor="middle" x="1022" y="-378.8" font-family="Times,serif" font-size="14.00">cn=Config Host2(uuid)</text>
</g>
<!-- dmc_repl&#45;&gt;cn_config_inst2 -->
<g id="edge8" class="edge"><title>dmc_repl&#45;&gt;cn_config_inst2</title>
<path fill="none" stroke="black" d="M899.564,-437.494C921.902,-427.643 950.218,-415.156 973.991,-404.672"/>
<polygon fill="black" stroke="black" points="975.456,-407.851 983.193,-400.614 972.631,-401.446 975.456,-407.851"/>
</g>
<!-- cn_hosts -->
<g id="node6" class="node"><title>cn_hosts</title>
<polygon fill="none" stroke="black" stroke-width="2" points="417,-364.5 417,-400.5 485,-400.5 485,-364.5 417,-364.5"/>
<text text-anchor="middle" x="451" y="-378.8" font-family="Times,serif" font-size="14.00">cn=Hosts</text>
</g>
<!-- cn_host1 -->
<g id="node12" class="node"><title>cn_host1</title>
<polygon fill="none" stroke="black" points="0,-291.5 0,-327.5 230,-327.5 230,-291.5 0,-291.5"/>
<text text-anchor="middle" x="115" y="-305.8" font-family="Times,serif" font-size="14.00">cn=mark.philadelphia.us.example.com</text>
</g>
<!-- cn_hosts&#45;&gt;cn_host1 -->
<g id="edge17" class="edge"><title>cn_hosts&#45;&gt;cn_host1</title>
<path fill="none" stroke="black" d="M416.933,-374.301C367.877,-363.935 275.584,-344.433 205.895,-329.707"/>
<polygon fill="black" stroke="black" points="206.293,-326.214 195.785,-327.571 204.845,-333.063 206.293,-326.214"/>
</g>
<!-- cn_host2 -->
<g id="node13" class="node"><title>cn_host2</title>
<polygon fill="none" stroke="black" points="248,-291.5 248,-327.5 472,-327.5 472,-291.5 248,-291.5"/>
<text text-anchor="middle" x="360" y="-305.8" font-family="Times,serif" font-size="14.00">cn=william.brisbane.au.example.com</text>
</g>
<!-- cn_hosts&#45;&gt;cn_host2 -->
<g id="edge18" class="edge"><title>cn_hosts&#45;&gt;cn_host2</title>
<path fill="none" stroke="black" d="M428.971,-364.313C417.235,-355.156 402.629,-343.76 389.884,-333.816"/>
<polygon fill="black" stroke="black" points="391.863,-330.921 381.826,-327.529 387.557,-336.44 391.863,-330.921"/>
</g>
<!-- host_config_sync -->
<g id="node14" class="node"><title>host_config_sync</title>
<polygon fill="none" stroke="blue" points="490,-291.5 490,-327.5 596,-327.5 596,-291.5 490,-291.5"/>
<text text-anchor="middle" x="543" y="-305.8" font-family="Times,serif" font-size="14.00">cn=Config Sync</text>
</g>
<!-- cn_hosts&#45;&gt;host_config_sync -->
<g id="edge19" class="edge"><title>cn_hosts&#45;&gt;host_config_sync</title>
<path fill="none" stroke="black" d="M473.271,-364.313C485.136,-355.156 499.903,-343.76 512.788,-333.816"/>
<polygon fill="black" stroke="black" points="515.156,-336.409 520.934,-327.529 510.879,-330.868 515.156,-336.409"/>
</g>
<!-- cn_suffixes -->
<g id="node7" class="node"><title>cn_suffixes</title>
<polygon fill="none" stroke="black" stroke-width="2" points="685.5,-364.5 685.5,-400.5 768.5,-400.5 768.5,-364.5 685.5,-364.5"/>
<text text-anchor="middle" x="727" y="-378.8" font-family="Times,serif" font-size="14.00">cn=Suffixes</text>
</g>
<!-- suffix1 -->
<g id="node9" class="node"><title>suffix1</title>
<polygon fill="none" stroke="black" points="644,-291.5 644,-327.5 810,-327.5 810,-291.5 644,-291.5"/>
<text text-anchor="middle" x="727" y="-305.8" font-family="Times,serif" font-size="14.00">cn=&quot;dc=example,dc=com&quot;</text>
</g>
<!-- cn_suffixes&#45;&gt;suffix1 -->
<g id="edge12" class="edge"><title>cn_suffixes&#45;&gt;suffix1</title>
<path fill="none" stroke="black" d="M727,-364.313C727,-356.289 727,-346.547 727,-337.569"/>
<polygon fill="black" stroke="black" points="730.5,-337.529 727,-327.529 723.5,-337.529 730.5,-337.529"/>
</g>
<!-- suffix2 -->
<g id="node10" class="node"><title>suffix2</title>
<polygon fill="none" stroke="black" points="843.5,-291.5 843.5,-327.5 936.5,-327.5 936.5,-291.5 843.5,-291.5"/>
<text text-anchor="middle" x="890" y="-305.8" font-family="Times,serif" font-size="14.00">cn=&quot;o=ipaca&quot;</text>
</g>
<!-- cn_suffixes&#45;&gt;suffix2 -->
<g id="edge13" class="edge"><title>cn_suffixes&#45;&gt;suffix2</title>
<path fill="none" stroke="black" d="M766.043,-364.494C788.658,-354.643 817.326,-342.156 841.394,-331.672"/>
<polygon fill="black" stroke="black" points="842.941,-334.816 850.711,-327.614 840.145,-328.398 842.941,-334.816"/>
</g>
<!-- cn_replication -->
<g id="node8" class="node"><title>cn_replication</title>
<polygon fill="none" stroke="black" points="660,-218.5 660,-254.5 760,-254.5 760,-218.5 660,-218.5"/>
<text text-anchor="middle" x="710" y="-232.8" font-family="Times,serif" font-size="14.00">cn=Replication</text>
</g>
<!-- cn_repl_masters -->
<g id="node25" class="node"><title>cn_repl_masters</title>
<polygon fill="none" stroke="black" points="493.5,-145.5 493.5,-181.5 574.5,-181.5 574.5,-145.5 493.5,-145.5"/>
<text text-anchor="middle" x="534" y="-159.8" font-family="Times,serif" font-size="14.00">cn=Masters</text>
</g>
<!-- cn_replication&#45;&gt;cn_repl_masters -->
<g id="edge23" class="edge"><title>cn_replication&#45;&gt;cn_repl_masters</title>
<path fill="none" stroke="black" d="M667.844,-218.494C642.664,-208.336 610.538,-195.376 584.072,-184.699"/>
<polygon fill="black" stroke="black" points="585.184,-181.374 574.601,-180.879 582.565,-187.866 585.184,-181.374"/>
</g>
<!-- cn_repl_hubs -->
<g id="node26" class="node"><title>cn_repl_hubs</title>
<polygon fill="none" stroke="black" points="593,-145.5 593,-181.5 659,-181.5 659,-145.5 593,-145.5"/>
<text text-anchor="middle" x="626" y="-159.8" font-family="Times,serif" font-size="14.00">cn=Hubs</text>
</g>
<!-- cn_replication&#45;&gt;cn_repl_hubs -->
<g id="edge24" class="edge"><title>cn_replication&#45;&gt;cn_repl_hubs</title>
<path fill="none" stroke="black" d="M689.666,-218.313C678.935,-209.243 665.606,-197.977 653.922,-188.1"/>
<polygon fill="black" stroke="black" points="656.044,-185.311 646.147,-181.529 651.525,-190.657 656.044,-185.311"/>
</g>
<!-- cn_repl_consumers -->
<g id="node27" class="node"><title>cn_repl_consumers</title>
<polygon fill="none" stroke="black" points="677.5,-145.5 677.5,-181.5 776.5,-181.5 776.5,-145.5 677.5,-145.5"/>
<text text-anchor="middle" x="727" y="-159.8" font-family="Times,serif" font-size="14.00">cn=Consumers</text>
</g>
<!-- cn_replication&#45;&gt;cn_repl_consumers -->
<g id="edge25" class="edge"><title>cn_replication&#45;&gt;cn_repl_consumers</title>
<path fill="none" stroke="black" d="M714.115,-218.313C716.057,-210.202 718.42,-200.336 720.589,-191.277"/>
<polygon fill="black" stroke="black" points="723.998,-192.069 722.923,-181.529 717.19,-190.439 723.998,-192.069"/>
</g>
<!-- suffix1&#45;&gt;cn_replication -->
<g id="edge15" class="edge"><title>suffix1&#45;&gt;cn_replication</title>
<path fill="none" stroke="black" d="M722.885,-291.313C720.943,-283.202 718.58,-273.336 716.411,-264.277"/>
<polygon fill="black" stroke="black" points="719.81,-263.439 714.077,-254.529 713.002,-265.069 719.81,-263.439"/>
</g>
<!-- suffix_config_sync -->
<g id="node15" class="node"><title>suffix_config_sync</title>
<polygon fill="none" stroke="blue" points="800,-218.5 800,-254.5 906,-254.5 906,-218.5 800,-218.5"/>
<text text-anchor="middle" x="853" y="-232.8" font-family="Times,serif" font-size="14.00">cn=Config Sync</text>
</g>
<!-- suffix1&#45;&gt;suffix_config_sync -->
<g id="edge14" class="edge"><title>suffix1&#45;&gt;suffix_config_sync</title>
<path fill="none" stroke="black" d="M757.18,-291.494C774.044,-281.991 795.26,-270.036 813.439,-259.792"/>
<polygon fill="black" stroke="black" points="815.636,-262.572 822.629,-254.614 812.199,-256.474 815.636,-262.572"/>
</g>
<!-- dotdotdot -->
<g id="node36" class="node"><title>dotdotdot</title>
<ellipse fill="none" stroke="black" cx="951" cy="-236.5" rx="27" ry="18"/>
<text text-anchor="middle" x="951" y="-232.8" font-family="Times,serif" font-size="14.00">...</text>
</g>
<!-- suffix2&#45;&gt;dotdotdot -->
<g id="edge16" class="edge"><title>suffix2&#45;&gt;dotdotdot</title>
<path fill="none" stroke="black" d="M904.766,-291.313C912.779,-281.986 922.787,-270.338 931.441,-260.266"/>
<polygon fill="black" stroke="black" points="934.164,-262.467 938.026,-252.601 928.855,-257.905 934.164,-262.467"/>
</g>
<!-- ou_domain&#45;&gt;cn_hosts -->
<g id="edge11" class="edge"><title>ou_domain&#45;&gt;cn_hosts</title>
<path fill="none" stroke="black" d="M669.353,-439.875C617.645,-426.525 542.275,-407.066 494.975,-394.854"/>
<polygon fill="black" stroke="black" points="495.594,-391.399 485.037,-392.288 493.844,-398.176 495.594,-391.399"/>
</g>
<!-- ou_domain&#45;&gt;cn_suffixes -->
<g id="edge10" class="edge"><title>ou_domain&#45;&gt;cn_suffixes</title>
<path fill="none" stroke="black" d="M726.242,-437.313C726.355,-429.289 726.492,-419.547 726.619,-410.569"/>
<polygon fill="black" stroke="black" points="730.119,-410.577 726.76,-400.529 723.12,-410.479 730.119,-410.577"/>
</g>
<!-- cn_inst1 -->
<g id="node30" class="node"><title>cn_inst1</title>
<polygon fill="none" stroke="black" points="65,-218.5 65,-254.5 165,-254.5 165,-218.5 65,-218.5"/>
<text text-anchor="middle" x="115" y="-232.8" font-family="Times,serif" font-size="14.00">cn=slapd&#45;instA</text>
</g>
<!-- cn_host1&#45;&gt;cn_inst1 -->
<g id="edge21" class="edge"><title>cn_host1&#45;&gt;cn_inst1</title>
<path fill="none" stroke="black" d="M115,-291.313C115,-283.289 115,-273.547 115,-264.569"/>
<polygon fill="black" stroke="black" points="118.5,-264.529 115,-254.529 111.5,-264.529 118.5,-264.529"/>
</g>
<!-- cn_inst2 -->
<g id="node31" class="node"><title>cn_inst2</title>
<polygon fill="none" stroke="black" points="225.5,-218.5 225.5,-254.5 324.5,-254.5 324.5,-218.5 225.5,-218.5"/>
<text text-anchor="middle" x="275" y="-232.8" font-family="Times,serif" font-size="14.00">cn=slapd&#45;instB</text>
</g>
<!-- cn_host2&#45;&gt;cn_inst2 -->
<g id="edge22" class="edge"><title>cn_host2&#45;&gt;cn_inst2</title>
<path fill="none" stroke="black" d="M339.424,-291.313C328.566,-282.243 315.078,-270.977 303.254,-261.1"/>
<polygon fill="black" stroke="black" points="305.305,-258.253 295.387,-254.529 300.818,-263.626 305.305,-258.253"/>
</g>
<!-- config_sync_host_attr -->
<g id="node16" class="node"><title>config_sync_host_attr</title>
<ellipse fill="none" stroke="green" cx="417" cy="-236.5" rx="74.187" ry="18"/>
<text text-anchor="middle" x="417" y="-232.8" font-family="Times,serif" font-size="14.00">cn=host attributes</text>
</g>
<!-- host_config_sync&#45;&gt;config_sync_host_attr -->
<g id="edge30" class="edge"><title>host_config_sync&#45;&gt;config_sync_host_attr</title>
<path fill="none" stroke="black" d="M512.82,-291.494C495.176,-281.552 472.768,-268.925 454.058,-258.382"/>
<polygon fill="black" stroke="black" points="455.637,-255.254 445.207,-253.394 452.201,-261.353 455.637,-255.254"/>
</g>
<!-- config_sync_plugin -->
<g id="node22" class="node"><title>config_sync_plugin</title>
<ellipse fill="none" stroke="green" cx="559" cy="-236.5" rx="50.0912" ry="18"/>
<text text-anchor="middle" x="559" y="-232.8" font-family="Times,serif" font-size="14.00">cn=plugins</text>
</g>
<!-- host_config_sync&#45;&gt;config_sync_plugin -->
<g id="edge20" class="edge"><title>host_config_sync&#45;&gt;config_sync_plugin</title>
<path fill="none" stroke="black" d="M546.873,-291.313C548.681,-283.289 550.877,-273.547 552.9,-264.569"/>
<polygon fill="black" stroke="black" points="556.378,-265.054 555.163,-254.529 549.55,-263.515 556.378,-265.054"/>
</g>
<!-- config_sync_suffix_attr -->
<g id="node18" class="node"><title>config_sync_suffix_attr</title>
<ellipse fill="none" stroke="green" cx="874" cy="-163.5" rx="79.8859" ry="18"/>
<text text-anchor="middle" x="874" y="-159.8" font-family="Times,serif" font-size="14.00">cn=suffix attributes</text>
</g>
<!-- suffix_config_sync&#45;&gt;config_sync_suffix_attr -->
<g id="edge32" class="edge"><title>suffix_config_sync&#45;&gt;config_sync_suffix_attr</title>
<path fill="none" stroke="black" d="M858.084,-218.313C860.482,-210.202 863.401,-200.336 866.08,-191.277"/>
<polygon fill="black" stroke="black" points="869.483,-192.111 868.963,-181.529 862.771,-190.125 869.483,-192.111"/>
</g>
<!-- config_sync_repl_attr -->
<g id="node20" class="node"><title>config_sync_repl_attr</title>
<ellipse fill="none" stroke="green" cx="1070" cy="-163.5" rx="96.6831" ry="18"/>
<text text-anchor="middle" x="1070" y="-159.8" font-family="Times,serif" font-size="14.00">cn=replication attributes</text>
</g>
<!-- suffix_config_sync&#45;&gt;config_sync_repl_attr -->
<g id="edge34" class="edge"><title>suffix_config_sync&#45;&gt;config_sync_repl_attr</title>
<path fill="none" stroke="black" d="M904.977,-218.494C938.072,-207.665 980.901,-193.652 1014.63,-182.615"/>
<polygon fill="black" stroke="black" points="1015.92,-185.876 1024.34,-179.44 1013.75,-179.223 1015.92,-185.876"/>
</g>
<!-- config_sync_host -->
<g id="node17" class="node"><title>config_sync_host</title>
<ellipse fill="none" stroke="green" cx="400" cy="-163.5" rx="75.2868" ry="18"/>
<text text-anchor="middle" x="400" y="-159.8" font-family="Times,serif" font-size="14.00">cn=host templates</text>
</g>
<!-- config_sync_host_attr&#45;&gt;config_sync_host -->
<g id="edge31" class="edge"><title>config_sync_host_attr&#45;&gt;config_sync_host</title>
<path fill="none" stroke="black" d="M412.885,-218.313C410.943,-210.202 408.58,-200.336 406.411,-191.277"/>
<polygon fill="black" stroke="black" points="409.81,-190.439 404.077,-181.529 403.002,-192.069 409.81,-190.439"/>
</g>
<!-- config_sync_suffix -->
<g id="node19" class="node"><title>config_sync_suffix</title>
<ellipse fill="none" stroke="green" cx="873" cy="-90.5" rx="81.4863" ry="18"/>
<text text-anchor="middle" x="873" y="-86.8" font-family="Times,serif" font-size="14.00">cn=suffix templates</text>
</g>
<!-- config_sync_suffix_attr&#45;&gt;config_sync_suffix -->
<g id="edge33" class="edge"><title>config_sync_suffix_attr&#45;&gt;config_sync_suffix</title>
<path fill="none" stroke="black" d="M873.758,-145.313C873.645,-137.289 873.508,-127.547 873.381,-118.569"/>
<polygon fill="black" stroke="black" points="876.88,-118.479 873.24,-108.529 869.881,-118.577 876.88,-118.479"/>
</g>
<!-- config_sync_repl -->
<g id="node21" class="node"><title>config_sync_repl</title>
<ellipse fill="none" stroke="green" cx="1071" cy="-90.5" rx="98.5829" ry="18"/>
<text text-anchor="middle" x="1071" y="-86.8" font-family="Times,serif" font-size="14.00">cn=replication templates</text>
</g>
<!-- config_sync_repl_attr&#45;&gt;config_sync_repl -->
<g id="edge35" class="edge"><title>config_sync_repl_attr&#45;&gt;config_sync_repl</title>
<path fill="none" stroke="black" d="M1070.24,-145.313C1070.36,-137.289 1070.49,-127.547 1070.62,-118.569"/>
<polygon fill="black" stroke="black" points="1074.12,-118.577 1070.76,-108.529 1067.12,-118.479 1074.12,-118.577"/>
</g>
<!-- cn_repl_inst1 -->
<g id="node28" class="node"><title>cn_repl_inst1</title>
<polygon fill="none" stroke="black" points="430.5,-72.5 430.5,-108.5 525.5,-108.5 525.5,-72.5 430.5,-72.5"/>
<text text-anchor="middle" x="478" y="-86.8" font-family="Times,serif" font-size="14.00">cn=host1:uuid</text>
</g>
<!-- cn_repl_masters&#45;&gt;cn_repl_inst1 -->
<g id="edge26" class="edge"><title>cn_repl_masters&#45;&gt;cn_repl_inst1</title>
<path fill="none" stroke="black" d="M520.444,-145.313C513.634,-136.679 505.255,-126.055 497.745,-116.534"/>
<polygon fill="black" stroke="black" points="500.372,-114.213 491.431,-108.529 494.876,-118.548 500.372,-114.213"/>
</g>
<!-- cn_repl_inst2 -->
<g id="node29" class="node"><title>cn_repl_inst2</title>
<polygon fill="none" stroke="black" points="560.5,-72.5 560.5,-108.5 655.5,-108.5 655.5,-72.5 560.5,-72.5"/>
<text text-anchor="middle" x="608" y="-86.8" font-family="Times,serif" font-size="14.00">cn=host2:uuid</text>
</g>
<!-- cn_repl_masters&#45;&gt;cn_repl_inst2 -->
<g id="edge27" class="edge"><title>cn_repl_masters&#45;&gt;cn_repl_inst2</title>
<path fill="none" stroke="black" d="M551.913,-145.313C561.185,-136.417 572.658,-125.409 582.807,-115.672"/>
<polygon fill="black" stroke="black" points="585.459,-117.978 590.252,-108.529 580.613,-112.927 585.459,-117.978"/>
</g>
<!-- cn_inst1_agmt -->
<g id="node34" class="node"><title>cn_inst1_agmt</title>
<ellipse fill="none" stroke="green" cx="469" cy="-18" rx="64.9885" ry="18"/>
<text text-anchor="middle" x="469" y="-14.3" font-family="Times,serif" font-size="14.00">cn=agreements</text>
</g>
<!-- cn_repl_inst1&#45;&gt;cn_inst1_agmt -->
<g id="edge28" class="edge"><title>cn_repl_inst1&#45;&gt;cn_inst1_agmt</title>
<path fill="none" stroke="black" d="M475.821,-72.4339C474.83,-64.6695 473.632,-55.2842 472.518,-46.5597"/>
<polygon fill="black" stroke="black" points="475.959,-45.875 471.221,-36.3987 469.016,-46.7614 475.959,-45.875"/>
</g>
<!-- cn_inst2_agmt -->
<g id="node35" class="node"><title>cn_inst2_agmt</title>
<ellipse fill="none" stroke="green" cx="617" cy="-18" rx="64.9885" ry="18"/>
<text text-anchor="middle" x="617" y="-14.3" font-family="Times,serif" font-size="14.00">cn=agreements</text>
</g>
<!-- cn_repl_inst2&#45;&gt;cn_inst2_agmt -->
<g id="edge29" class="edge"><title>cn_repl_inst2&#45;&gt;cn_inst2_agmt</title>
<path fill="none" stroke="black" d="M610.179,-72.4339C611.17,-64.6695 612.368,-55.2842 613.482,-46.5597"/>
<polygon fill="black" stroke="black" points="616.984,-46.7614 614.779,-36.3987 610.041,-45.875 616.984,-46.7614"/>
</g>
</g>
</svg>
