<?xml version="1.0" encoding="UTF-8" standalone="no"?>
<!DOCTYPE svg PUBLIC "-//W3C//DTD SVG 1.1//EN"
 "http://www.w3.org/Graphics/SVG/1.1/DTD/svg11.dtd">
<!-- Generated by graphviz version 2.30.1 (20140821.0912)
 -->
<!-- Title: O_DMC Pages: 1 -->
<svg width="1410pt" height="706pt"
 viewBox="0.00 0.00 1410.00 706.00" xmlns="http://www.w3.org/2000/svg" xmlns:xlink="http://www.w3.org/1999/xlink">
<g id="graph0" class="graph" transform="scale(1 1) rotate(0) translate(4 702)">
<title>O_DMC</title>
<polygon fill="white" stroke="white" points="-4,5 -4,-702 1407,-702 1407,5 -4,5"/>
<!-- root -->
<g id="node1" class="node"><title>root</title>
<polygon fill="none" stroke="black" stroke-width="2" points="895.363,-685.562 790,-698 684.637,-685.562 684.735,-665.438 895.265,-665.438 895.363,-685.562"/>
<text text-anchor="middle" x="790" y="-676.3" font-family="Times,serif" font-size="14.00">Configuration Server</text>
</g>
<!-- o_dmc -->
<g id="node2" class="node"><title>o_dmc</title>
<polygon fill="none" stroke="black" stroke-width="2" points="829.094,-600.544 829.094,-615.456 806.193,-626 773.807,-626 750.906,-615.456 750.906,-600.544 773.807,-590 806.193,-590 829.094,-600.544"/>
<text text-anchor="middle" x="790" y="-604.3" font-family="Times,serif" font-size="14.00" fill="green">o=dmc</text>
</g>
<!-- root&#45;&gt;o_dmc -->
<g id="edge1" class="edge"><title>root&#45;&gt;o_dmc</title>
<path fill="none" stroke="black" d="M790,-665.17C790,-656.919 790,-646.153 790,-636.256"/>
<polygon fill="black" stroke="black" points="793.5,-636.019 790,-626.019 786.5,-636.019 793.5,-636.019"/>
</g>
<!-- cn_domains -->
<g id="node3" class="node"><title>cn_domains</title>
<polygon fill="none" stroke="black" points="673.5,-517 673.5,-553 760.5,-553 760.5,-517 673.5,-517"/>
<text text-anchor="middle" x="717" y="-531.3" font-family="Times,serif" font-size="14.00">cn=Domains</text>
</g>
<!-- o_dmc&#45;&gt;cn_domains -->
<g id="edge2" class="edge"><title>o_dmc&#45;&gt;cn_domains</title>
<path fill="none" stroke="black" d="M772.7,-590.174C763.561,-581.286 752.178,-570.214 742.088,-560.401"/>
<polygon fill="black" stroke="black" points="744.292,-557.662 734.683,-553.198 739.411,-562.68 744.292,-557.662"/>
</g>
<!-- cn_administration -->
<g id="node4" class="node"><title>cn_administration</title>
<polygon fill="none" stroke="black" points="804,-517 804,-553 924,-553 924,-517 804,-517"/>
<text text-anchor="middle" x="864" y="-531.3" font-family="Times,serif" font-size="14.00">cn=Administration</text>
</g>
<!-- o_dmc&#45;&gt;cn_administration -->
<g id="edge3" class="edge"><title>o_dmc&#45;&gt;cn_administration</title>
<path fill="none" stroke="black" d="M807.537,-590.174C816.801,-581.286 828.34,-570.214 838.568,-560.401"/>
<polygon fill="black" stroke="black" points="841.282,-562.647 846.075,-553.198 836.436,-557.596 841.282,-562.647"/>
</g>
<!-- ou_domain -->
<g id="node11" class="node"><title>ou_domain</title>
<polygon fill="none" stroke="black" points="611.5,-443 611.5,-479 724.5,-479 724.5,-443 611.5,-443"/>
<text text-anchor="middle" x="668" y="-457.3" font-family="Times,serif" font-size="14.00">ou=example.com</text>
</g>
<!-- cn_domains&#45;&gt;ou_domain -->
<g id="edge9" class="edge"><title>cn_domains&#45;&gt;ou_domain</title>
<path fill="none" stroke="black" d="M705.388,-516.937C699.494,-508.277 692.209,-497.573 685.64,-487.921"/>
<polygon fill="black" stroke="black" points="688.389,-485.739 679.869,-479.441 682.602,-489.677 688.389,-485.739"/>
</g>
<!-- uid_admin -->
<g id="node23" class="node"><title>uid_admin</title>
<polygon fill="none" stroke="black" points="742.5,-443 742.5,-479 819.5,-479 819.5,-443 742.5,-443"/>
<text text-anchor="middle" x="781" y="-457.3" font-family="Times,serif" font-size="14.00">uid=admin</text>
</g>
<!-- cn_administration&#45;&gt;uid_admin -->
<g id="edge4" class="edge"><title>cn_administration&#45;&gt;uid_admin</title>
<path fill="none" stroke="black" d="M844.33,-516.937C833.658,-507.679 820.293,-496.086 808.595,-485.938"/>
<polygon fill="black" stroke="black" points="810.664,-483.099 800.816,-479.19 806.077,-488.387 810.664,-483.099"/>
</g>
<!-- admin_role -->
<g id="node24" class="node"><title>admin_role</title>
<polygon fill="none" stroke="black" points="838,-443 838,-479 940,-479 940,-443 838,-443"/>
<text text-anchor="middle" x="889" y="-457.3" font-family="Times,serif" font-size="14.00">cn=admin roles</text>
</g>
<!-- cn_administration&#45;&gt;admin_role -->
<g id="edge5" class="edge"><title>cn_administration&#45;&gt;admin_role</title>
<path fill="none" stroke="black" d="M869.925,-516.937C872.809,-508.63 876.346,-498.444 879.588,-489.108"/>
<polygon fill="black" stroke="black" points="882.97,-490.035 882.944,-479.441 876.358,-487.739 882.97,-490.035"/>
</g>
<!-- dmc_repl -->
<g id="node5" class="node"><title>dmc_repl</title>
<polygon fill="none" stroke="black" points="958,-443 958,-479 1078,-479 1078,-443 958,-443"/>
<text text-anchor="middle" x="1018" y="-457.3" font-family="Times,serif" font-size="14.00">cn=DMC Network</text>
</g>
<!-- cn_administration&#45;&gt;dmc_repl -->
<g id="edge6" class="edge"><title>cn_administration&#45;&gt;dmc_repl</title>
<path fill="none" stroke="black" d="M900.496,-516.937C921.994,-506.886 949.38,-494.082 972.305,-483.364"/>
<polygon fill="black" stroke="black" points="973.923,-486.471 981.5,-479.065 970.958,-480.13 973.923,-486.471"/>
</g>
<!-- cn_config_inst1 -->
<g id="node32" class="node"><title>cn_config_inst1</title>
<polygon fill="none" stroke="purple" stroke-width="2" points="920,-369 920,-405 1064,-405 1064,-369 920,-369"/>
<text text-anchor="middle" x="992" y="-383.3" font-family="Times,serif" font-size="14.00">cn=Config Host1(uuid)</text>
</g>
<!-- dmc_repl&#45;&gt;cn_config_inst1 -->
<g id="edge7" class="edge"><title>dmc_repl&#45;&gt;cn_config_inst1</title>
<path fill="none" stroke="black" d="M1011.84,-442.937C1008.84,-434.63 1005.16,-424.444 1001.79,-415.108"/>
<polygon fill="black" stroke="black" points="1004.99,-413.657 998.298,-405.441 998.403,-416.035 1004.99,-413.657"/>
</g>
<!-- cn_config_inst2 -->
<g id="node33" class="node"><title>cn_config_inst2</title>
<polygon fill="none" stroke="purple" stroke-width="2" points="1082,-369 1082,-405 1226,-405 1226,-369 1082,-369"/>
<text text-anchor="middle" x="1154" y="-383.3" font-family="Times,serif" font-size="14.00">cn=Config Host2(uuid)</text>
</g>
<!-- dmc_repl&#45;&gt;cn_config_inst2 -->
<g id="edge8" class="edge"><title>dmc_repl&#45;&gt;cn_config_inst2</title>
<path fill="none" stroke="black" d="M1050.23,-442.937C1068.89,-433.056 1092.58,-420.514 1112.62,-409.91"/>
<polygon fill="black" stroke="black" points="1114.33,-412.962 1121.53,-405.19 1111.05,-406.776 1114.33,-412.962"/>
</g>
<!-- cn_hosts -->
<g id="node6" class="node"><title>cn_hosts</title>
<polygon fill="none" stroke="black" stroke-width="2" points="782,-369 782,-405 850,-405 850,-369 782,-369"/>
<text text-anchor="middle" x="816" y="-383.3" font-family="Times,serif" font-size="14.00">cn=Hosts</text>
</g>
<!-- cn_host1 -->
<g id="node12" class="node"><title>cn_host1</title>
<polygon fill="none" stroke="black" points="675,-295 675,-331 905,-331 905,-295 675,-295"/>
<text text-anchor="middle" x="790" y="-309.3" font-family="Times,serif" font-size="14.00">cn=mark.philadelphia.us.example.com</text>
</g>
<!-- cn_hosts&#45;&gt;cn_host1 -->
<g id="edge17" class="edge"><title>cn_hosts&#45;&gt;cn_host1</title>
<path fill="none" stroke="black" d="M809.838,-368.937C806.839,-360.63 803.16,-350.444 799.789,-341.108"/>
<polygon fill="black" stroke="black" points="802.986,-339.657 796.298,-331.441 796.403,-342.035 802.986,-339.657"/>
</g>
<!-- cn_host2 -->
<g id="node13" class="node"><title>cn_host2</title>
<polygon fill="none" stroke="black" points="923,-295 923,-331 1147,-331 1147,-295 923,-295"/>
<text text-anchor="middle" x="1035" y="-309.3" font-family="Times,serif" font-size="14.00">cn=william.brisbane.au.example.com</text>
</g>
<!-- cn_hosts&#45;&gt;cn_host2 -->
<g id="edge18" class="edge"><title>cn_hosts&#45;&gt;cn_host2</title>
<path fill="none" stroke="black" d="M850.219,-374.75C883.115,-363.935 933.581,-347.343 973.466,-334.23"/>
<polygon fill="black" stroke="black" points="974.693,-337.511 983.1,-331.063 972.507,-330.861 974.693,-337.511"/>
</g>
<!-- host_config_sync -->
<g id="node14" class="node"><title>host_config_sync</title>
<polygon fill="none" stroke="blue" points="1165,-295 1165,-331 1271,-331 1271,-295 1165,-295"/>
<text text-anchor="middle" x="1218" y="-309.3" font-family="Times,serif" font-size="14.00">cn=Config Sync</text>
</g>
<!-- cn_hosts&#45;&gt;host_config_sync -->
<g id="edge19" class="edge"><title>cn_hosts&#45;&gt;host_config_sync</title>
<path fill="none" stroke="black" d="M850.237,-379.159C868.282,-375.643 890.804,-371.396 911,-368 1016.36,-350.286 1046.69,-355.087 1154.69,-332.136"/>
<polygon fill="black" stroke="black" points="1155.65,-335.51 1164.68,-329.98 1154.17,-328.667 1155.65,-335.51"/>
</g>
<!-- cn_suffixes -->
<g id="node7" class="node"><title>cn_suffixes</title>
<polygon fill="none" stroke="black" stroke-width="2" points="568.5,-369 568.5,-405 651.5,-405 651.5,-369 568.5,-369"/>
<text text-anchor="middle" x="610" y="-383.3" font-family="Times,serif" font-size="14.00">cn=Suffixes</text>
</g>
<!-- suffix1 -->
<g id="node9" class="node"><title>suffix1</title>
<polygon fill="none" stroke="black" points="379,-295 379,-331 545,-331 545,-295 379,-295"/>
<text text-anchor="middle" x="462" y="-309.3" font-family="Times,serif" font-size="14.00">cn=&quot;dc=example,dc=com&quot;</text>
</g>
<!-- cn_suffixes&#45;&gt;suffix1 -->
<g id="edge12" class="edge"><title>cn_suffixes&#45;&gt;suffix1</title>
<path fill="none" stroke="black" d="M574.926,-368.937C554.358,-358.931 528.18,-346.196 506.209,-335.507"/>
<polygon fill="black" stroke="black" points="507.602,-332.293 497.078,-331.065 504.54,-338.587 507.602,-332.293"/>
</g>
<!-- suffix2 -->
<g id="node10" class="node"><title>suffix2</title>
<polygon fill="none" stroke="black" points="563.5,-295 563.5,-331 656.5,-331 656.5,-295 563.5,-295"/>
<text text-anchor="middle" x="610" y="-309.3" font-family="Times,serif" font-size="14.00">cn=&quot;o=ipaca&quot;</text>
</g>
<!-- cn_suffixes&#45;&gt;suffix2 -->
<g id="edge13" class="edge"><title>cn_suffixes&#45;&gt;suffix2</title>
<path fill="none" stroke="black" d="M610,-368.937C610,-360.807 610,-350.876 610,-341.705"/>
<polygon fill="black" stroke="black" points="613.5,-341.441 610,-331.441 606.5,-341.441 613.5,-341.441"/>
</g>
<!-- cn_replication -->
<g id="node8" class="node"><title>cn_replication</title>
<polygon fill="none" stroke="black" points="439,-221 439,-257 539,-257 539,-221 439,-221"/>
<text text-anchor="middle" x="489" y="-235.3" font-family="Times,serif" font-size="14.00">cn=Replication</text>
</g>
<!-- cn_repl_masters -->
<g id="node25" class="node"><title>cn_repl_masters</title>
<polygon fill="none" stroke="black" points="402.5,-147 402.5,-183 483.5,-183 483.5,-147 402.5,-147"/>
<text text-anchor="middle" x="443" y="-161.3" font-family="Times,serif" font-size="14.00">cn=Masters</text>
</g>
<!-- cn_replication&#45;&gt;cn_repl_masters -->
<g id="edge23" class="edge"><title>cn_replication&#45;&gt;cn_repl_masters</title>
<path fill="none" stroke="black" d="M478.099,-220.937C472.566,-212.277 465.727,-201.573 459.56,-191.921"/>
<polygon fill="black" stroke="black" points="462.476,-189.983 454.143,-183.441 456.577,-193.752 462.476,-189.983"/>
</g>
<!-- cn_repl_hubs -->
<g id="node26" class="node"><title>cn_repl_hubs</title>
<polygon fill="none" stroke="black" points="502,-147 502,-183 568,-183 568,-147 502,-147"/>
<text text-anchor="middle" x="535" y="-161.3" font-family="Times,serif" font-size="14.00">cn=Hubs</text>
</g>
<!-- cn_replication&#45;&gt;cn_repl_hubs -->
<g id="edge24" class="edge"><title>cn_replication&#45;&gt;cn_repl_hubs</title>
<path fill="none" stroke="black" d="M499.901,-220.937C505.434,-212.277 512.273,-201.573 518.44,-191.921"/>
<polygon fill="black" stroke="black" points="521.423,-193.752 523.857,-183.441 515.524,-189.983 521.423,-193.752"/>
</g>
<!-- cn_repl_consumers -->
<g id="node27" class="node"><title>cn_repl_consumers</title>
<polygon fill="none" stroke="black" points="586.5,-147 586.5,-183 685.5,-183 685.5,-147 586.5,-147"/>
<text text-anchor="middle" x="636" y="-161.3" font-family="Times,serif" font-size="14.00">cn=Consumers</text>
</g>
<!-- cn_replication&#45;&gt;cn_repl_consumers -->
<g id="edge25" class="edge"><title>cn_replication&#45;&gt;cn_repl_consumers</title>
<path fill="none" stroke="black" d="M523.837,-220.937C544.267,-210.931 570.267,-198.196 592.09,-187.507"/>
<polygon fill="black" stroke="black" points="593.718,-190.607 601.159,-183.065 590.638,-184.321 593.718,-190.607"/>
</g>
<!-- suffix_config_sync -->
<g id="node15" class="node"><title>suffix_config_sync</title>
<polygon fill="none" stroke="blue" points="226,-221 226,-257 332,-257 332,-221 226,-221"/>
<text text-anchor="middle" x="279" y="-235.3" font-family="Times,serif" font-size="14.00">cn=Config Sync</text>
</g>
<!-- suffix1&#45;&gt;suffix_config_sync -->
<g id="edge14" class="edge"><title>suffix1&#45;&gt;suffix_config_sync</title>
<path fill="none" stroke="black" d="M418.632,-294.937C392.631,-284.707 359.382,-271.626 331.852,-260.794"/>
<polygon fill="black" stroke="black" points="332.961,-257.469 322.374,-257.065 330.398,-263.983 332.961,-257.469"/>
</g>
<!-- suffix1&#45;&gt;cn_replication -->
<g id="edge15" class="edge"><title>suffix1&#45;&gt;cn_replication</title>
<path fill="none" stroke="black" d="M468.399,-294.937C471.547,-286.542 475.415,-276.227 478.946,-266.81"/>
<polygon fill="black" stroke="black" points="482.226,-268.033 482.46,-257.441 475.671,-265.575 482.226,-268.033"/>
</g>
<!-- dotdotdot -->
<g id="node36" class="node"><title>dotdotdot</title>
<ellipse fill="none" stroke="black" cx="610" cy="-239" rx="27" ry="18"/>
<text text-anchor="middle" x="610" y="-235.3" font-family="Times,serif" font-size="14.00">...</text>
</g>
<!-- suffix2&#45;&gt;dotdotdot -->
<g id="edge16" class="edge"><title>suffix2&#45;&gt;dotdotdot</title>
<path fill="none" stroke="black" d="M610,-294.937C610,-286.807 610,-276.876 610,-267.705"/>
<polygon fill="black" stroke="black" points="613.5,-267.441 610,-257.441 606.5,-267.441 613.5,-267.441"/>
</g>
<!-- ou_domain&#45;&gt;cn_suffixes -->
<g id="edge10" class="edge"><title>ou_domain&#45;&gt;cn_suffixes</title>
<path fill="none" stroke="black" d="M654.255,-442.937C647.136,-434.1 638.304,-423.135 630.406,-413.331"/>
<polygon fill="black" stroke="black" points="633.048,-411.033 624.049,-405.441 627.597,-415.424 633.048,-411.033"/>
</g>
<!-- ou_domain&#45;&gt;cn_hosts -->
<g id="edge11" class="edge"><title>ou_domain&#45;&gt;cn_hosts</title>
<path fill="none" stroke="black" d="M703.074,-442.937C723.942,-432.785 750.583,-419.825 772.748,-409.042"/>
<polygon fill="black" stroke="black" points="774.482,-412.09 781.943,-404.568 771.419,-405.796 774.482,-412.09"/>
</g>
<!-- cn_inst1 -->
<g id="node30" class="node"><title>cn_inst1</title>
<polygon fill="none" stroke="black" points="740,-221 740,-257 840,-257 840,-221 740,-221"/>
<text text-anchor="middle" x="790" y="-235.3" font-family="Times,serif" font-size="14.00">cn=slapd&#45;instA</text>
</g>
<!-- cn_host1&#45;&gt;cn_inst1 -->
<g id="edge21" class="edge"><title>cn_host1&#45;&gt;cn_inst1</title>
<path fill="none" stroke="black" d="M790,-294.937C790,-286.807 790,-276.876 790,-267.705"/>
<polygon fill="black" stroke="black" points="793.5,-267.441 790,-257.441 786.5,-267.441 793.5,-267.441"/>
</g>
<!-- cn_inst2 -->
<g id="node31" class="node"><title>cn_inst2</title>
<polygon fill="none" stroke="black" points="985.5,-221 985.5,-257 1084.5,-257 1084.5,-221 985.5,-221"/>
<text text-anchor="middle" x="1035" y="-235.3" font-family="Times,serif" font-size="14.00">cn=slapd&#45;instB</text>
</g>
<!-- cn_host2&#45;&gt;cn_inst2 -->
<g id="edge22" class="edge"><title>cn_host2&#45;&gt;cn_inst2</title>
<path fill="none" stroke="black" d="M1035,-294.937C1035,-286.807 1035,-276.876 1035,-267.705"/>
<polygon fill="black" stroke="black" points="1038.5,-267.441 1035,-257.441 1031.5,-267.441 1038.5,-267.441"/>
</g>
<!-- config_sync_plugin -->
<g id="node22" class="node"><title>config_sync_plugin</title>
<ellipse fill="none" stroke="green" cx="1185" cy="-239" rx="50.0684" ry="18"/>
<text text-anchor="middle" x="1185" y="-235.3" font-family="Times,serif" font-size="14.00">cn=plugins</text>
</g>
<!-- host_config_sync&#45;&gt;config_sync_plugin -->
<g id="edge20" class="edge"><title>host_config_sync&#45;&gt;config_sync_plugin</title>
<path fill="none" stroke="black" d="M1210.18,-294.937C1206.23,-286.329 1201.36,-275.702 1196.96,-266.095"/>
<polygon fill="black" stroke="black" points="1200.11,-264.573 1192.76,-256.941 1193.75,-267.489 1200.11,-264.573"/>
</g>
<!-- config_sync_host_attr -->
<g id="node16" class="node"><title>config_sync_host_attr</title>
<ellipse fill="none" stroke="green" cx="1327" cy="-239" rx="74.1402" ry="18"/>
<text text-anchor="middle" x="1327" y="-235.3" font-family="Times,serif" font-size="14.00">cn=host attributes</text>
</g>
<!-- host_config_sync&#45;&gt;config_sync_host_attr -->
<g id="edge30" class="edge"><title>host_config_sync&#45;&gt;config_sync_host_attr</title>
<path fill="none" stroke="black" d="M1243.83,-294.937C1258.81,-285.042 1277.83,-272.48 1293.9,-261.866"/>
<polygon fill="black" stroke="black" points="1296.06,-264.631 1302.48,-256.199 1292.2,-258.79 1296.06,-264.631"/>
</g>
<!-- config_sync_suffix_attr -->
<g id="node18" class="node"><title>config_sync_suffix_attr</title>
<ellipse fill="none" stroke="green" cx="82" cy="-165" rx="79.4147" ry="18"/>
<text text-anchor="middle" x="82" y="-161.3" font-family="Times,serif" font-size="14.00">cn=suffix attributes</text>
</g>
<!-- suffix_config_sync&#45;&gt;config_sync_suffix_attr -->
<g id="edge32" class="edge"><title>suffix_config_sync&#45;&gt;config_sync_suffix_attr</title>
<path fill="none" stroke="black" d="M232.314,-220.937C202.026,-209.868 162.602,-195.459 131.728,-184.175"/>
<polygon fill="black" stroke="black" points="132.621,-180.775 122.027,-180.629 130.218,-187.349 132.621,-180.775"/>
</g>
<!-- config_sync_repl_attr -->
<g id="node20" class="node"><title>config_sync_repl_attr</title>
<ellipse fill="none" stroke="green" cx="279" cy="-165" rx="96.2631" ry="18"/>
<text text-anchor="middle" x="279" y="-161.3" font-family="Times,serif" font-size="14.00">cn=replication attributes</text>
</g>
<!-- suffix_config_sync&#45;&gt;config_sync_repl_attr -->
<g id="edge34" class="edge"><title>suffix_config_sync&#45;&gt;config_sync_repl_attr</title>
<path fill="none" stroke="black" d="M279,-220.937C279,-212.807 279,-202.876 279,-193.705"/>
<polygon fill="black" stroke="black" points="282.5,-193.441 279,-183.441 275.5,-193.441 282.5,-193.441"/>
</g>
<!-- config_sync_host -->
<g id="node17" class="node"><title>config_sync_host</title>
<ellipse fill="none" stroke="green" cx="1327" cy="-165" rx="75.0904" ry="18"/>
<text text-anchor="middle" x="1327" y="-161.3" font-family="Times,serif" font-size="14.00">cn=host templates</text>
</g>
<!-- config_sync_host_attr&#45;&gt;config_sync_host -->
<g id="edge31" class="edge"><title>config_sync_host_attr&#45;&gt;config_sync_host</title>
<path fill="none" stroke="black" d="M1327,-220.937C1327,-212.807 1327,-202.876 1327,-193.705"/>
<polygon fill="black" stroke="black" points="1330.5,-193.441 1327,-183.441 1323.5,-193.441 1330.5,-193.441"/>
</g>
<!-- config_sync_suffix -->
<g id="node19" class="node"><title>config_sync_suffix</title>
<ellipse fill="none" stroke="green" cx="81" cy="-91" rx="81.3646" ry="18"/>
<text text-anchor="middle" x="81" y="-87.3" font-family="Times,serif" font-size="14.00">cn=suffix templates</text>
</g>
<!-- config_sync_suffix_attr&#45;&gt;config_sync_suffix -->
<g id="edge33" class="edge"><title>config_sync_suffix_attr&#45;&gt;config_sync_suffix</title>
<path fill="none" stroke="black" d="M81.763,-146.937C81.6501,-138.807 81.5122,-128.876 81.3848,-119.705"/>
<polygon fill="black" stroke="black" points="84.8809,-119.391 81.2422,-109.441 77.8815,-119.488 84.8809,-119.391"/>
</g>
<!-- config_sync_repl -->
<g id="node21" class="node"><title>config_sync_repl</title>
<ellipse fill="none" stroke="green" cx="279" cy="-91" rx="98.1881" ry="18"/>
<text text-anchor="middle" x="279" y="-87.3" font-family="Times,serif" font-size="14.00">cn=replication templates</text>
</g>
<!-- config_sync_repl_attr&#45;&gt;config_sync_repl -->
<g id="edge35" class="edge"><title>config_sync_repl_attr&#45;&gt;config_sync_repl</title>
<path fill="none" stroke="black" d="M279,-146.937C279,-138.807 279,-128.876 279,-119.705"/>
<polygon fill="black" stroke="black" points="282.5,-119.441 279,-109.441 275.5,-119.441 282.5,-119.441"/>
</g>
<!-- cn_repl_inst1 -->
<g id="node28" class="node"><title>cn_repl_inst1</title>
<polygon fill="none" stroke="black" points="395.5,-73 395.5,-109 490.5,-109 490.5,-73 395.5,-73"/>
<text text-anchor="middle" x="443" y="-87.3" font-family="Times,serif" font-size="14.00">cn=host1:uuid</text>
</g>
<!-- cn_repl_masters&#45;&gt;cn_repl_inst1 -->
<g id="edge26" class="edge"><title>cn_repl_masters&#45;&gt;cn_repl_inst1</title>
<path fill="none" stroke="black" d="M443,-146.937C443,-138.807 443,-128.876 443,-119.705"/>
<polygon fill="black" stroke="black" points="446.5,-119.441 443,-109.441 439.5,-119.441 446.5,-119.441"/>
</g>
<!-- cn_repl_inst2 -->
<g id="node29" class="node"><title>cn_repl_inst2</title>
<polygon fill="none" stroke="black" points="525.5,-73 525.5,-109 620.5,-109 620.5,-73 525.5,-73"/>
<text text-anchor="middle" x="573" y="-87.3" font-family="Times,serif" font-size="14.00">cn=host2:uuid</text>
</g>
<!-- cn_repl_masters&#45;&gt;cn_repl_inst2 -->
<g id="edge27" class="edge"><title>cn_repl_masters&#45;&gt;cn_repl_inst2</title>
<path fill="none" stroke="black" d="M473.808,-146.937C491.568,-137.101 514.09,-124.627 533.182,-114.053"/>
<polygon fill="black" stroke="black" points="534.91,-117.097 541.962,-109.19 531.519,-110.973 534.91,-117.097"/>
</g>
<!-- cn_inst1_agmt -->
<g id="node34" class="node"><title>cn_inst1_agmt</title>
<ellipse fill="none" stroke="green" cx="434" cy="-18" rx="64.4914" ry="18"/>
<text text-anchor="middle" x="434" y="-14.3" font-family="Times,serif" font-size="14.00">cn=agreements</text>
</g>
<!-- cn_repl_inst1&#45;&gt;cn_inst1_agmt -->
<g id="edge28" class="edge"><title>cn_repl_inst1&#45;&gt;cn_inst1_agmt</title>
<path fill="none" stroke="black" d="M440.821,-72.8129C439.804,-64.7895 438.569,-55.0475 437.431,-46.0691"/>
<polygon fill="black" stroke="black" points="440.888,-45.5093 436.159,-36.0288 433.944,-46.3896 440.888,-45.5093"/>
</g>
<!-- cn_inst2_agmt -->
<g id="node35" class="node"><title>cn_inst2_agmt</title>
<ellipse fill="none" stroke="green" cx="582" cy="-18" rx="64.4914" ry="18"/>
<text text-anchor="middle" x="582" y="-14.3" font-family="Times,serif" font-size="14.00">cn=agreements</text>
</g>
<!-- cn_repl_inst2&#45;&gt;cn_inst2_agmt -->
<g id="edge29" class="edge"><title>cn_repl_inst2&#45;&gt;cn_inst2_agmt</title>
<path fill="none" stroke="black" d="M575.179,-72.8129C576.196,-64.7895 577.431,-55.0475 578.569,-46.0691"/>
<polygon fill="black" stroke="black" points="582.056,-46.3896 579.841,-36.0288 575.112,-45.5093 582.056,-46.3896"/>
</g>
</g>
</svg>
