<?xml version="1.0" encoding="UTF-8" standalone="no"?>
<!DOCTYPE svg PUBLIC "-//W3C//DTD SVG 1.1//EN"
 "http://www.w3.org/Graphics/SVG/1.1/DTD/svg11.dtd">
<!-- Generated by graphviz version 2.38.0 (20140413.2041)
 -->
<!-- Title: O_DMC Pages: 1 -->
<svg width="1456pt" height="553pt"
 viewBox="0.00 0.00 1456.39 553.00" xmlns="http://www.w3.org/2000/svg" xmlns:xlink="http://www.w3.org/1999/xlink">
<g id="graph0" class="graph" transform="scale(1 1) rotate(0) translate(4 549)">
<title>O_DMC</title>
<polygon fill="white" stroke="none" points="-4,4 -4,-549 1452.39,-549 1452.39,4 -4,4"/>
<!-- root -->
<g id="node1" class="node"><title>root</title>
<polygon fill="none" stroke="black" stroke-width="2" points="1005.85,-532.562 874.345,-545 742.839,-532.562 742.961,-512.438 1005.73,-512.438 1005.85,-532.562"/>
<text text-anchor="middle" x="874.345" y="-523.3" font-family="Times,serif" font-size="14.00">ns&#45;slapd CONFIG instance</text>
</g>
<!-- o_dmc -->
<g id="node2" class="node"><title>o_dmc</title>
<polygon fill="none" stroke="black" points="913.637,-447.544 913.637,-462.456 890.62,-473 858.07,-473 835.054,-462.456 835.054,-447.544 858.07,-437 890.62,-437 913.637,-447.544"/>
<text text-anchor="middle" x="874.345" y="-451.3" font-family="Times,serif" font-size="14.00">o=dmc</text>
</g>
<!-- root&#45;&gt;o_dmc -->
<g id="edge1" class="edge"><title>root&#45;&gt;o_dmc</title>
<path fill="none" stroke="black" d="M874.345,-512.17C874.345,-503.919 874.345,-493.153 874.345,-483.256"/>
<polygon fill="black" stroke="black" points="877.846,-483.019 874.345,-473.019 870.846,-483.019 877.846,-483.019"/>
</g>
<!-- cn_administration -->
<g id="node3" class="node"><title>cn_administration</title>
<polygon fill="none" stroke="black" points="649.345,-364.5 649.345,-400.5 769.345,-400.5 769.345,-364.5 649.345,-364.5"/>
<text text-anchor="middle" x="709.345" y="-378.8" font-family="Times,serif" font-size="14.00">cn=Administration</text>
</g>
<!-- o_dmc&#45;&gt;cn_administration -->
<g id="edge2" class="edge"><title>o_dmc&#45;&gt;cn_administration</title>
<path fill="none" stroke="black" d="M846.355,-442.041C822.4,-431.805 787.345,-416.827 758.691,-404.584"/>
<polygon fill="black" stroke="black" points="759.816,-401.258 749.245,-400.548 757.065,-407.696 759.816,-401.258"/>
</g>
<!-- dmc_settings -->
<g id="node4" class="node"><title>dmc_settings</title>
<ellipse fill="none" stroke="green" cx="874.345" cy="-382.5" rx="75.2868" ry="18"/>
<text text-anchor="middle" x="874.345" y="-378.8" font-family="Times,serif" font-size="14.00">cn=DMC Settings</text>
</g>
<!-- o_dmc&#45;&gt;dmc_settings -->
<g id="edge3" class="edge"><title>o_dmc&#45;&gt;dmc_settings</title>
<path fill="none" stroke="black" d="M874.345,-436.934C874.345,-429.17 874.345,-419.784 874.345,-411.06"/>
<polygon fill="black" stroke="black" points="877.846,-410.899 874.345,-400.899 870.846,-410.899 877.846,-410.899"/>
</g>
<!-- ou_servers -->
<g id="node5" class="node"><title>ou_servers</title>
<polygon fill="none" stroke="black" points="973.345,-364.5 973.345,-400.5 1107.35,-400.5 1107.35,-364.5 973.345,-364.5"/>
<text text-anchor="middle" x="1040.35" y="-378.8" font-family="Times,serif" font-size="14.00">ou=Directory Servers</text>
</g>
<!-- o_dmc&#45;&gt;ou_servers -->
<g id="edge4" class="edge"><title>o_dmc&#45;&gt;ou_servers</title>
<path fill="none" stroke="black" d="M902.13,-442.2C926.178,-431.987 961.543,-416.967 990.48,-404.678"/>
<polygon fill="black" stroke="black" points="992.185,-407.756 1000.02,-400.626 989.448,-401.313 992.185,-407.756"/>
</g>
<!-- uid_admin -->
<g id="node23" class="node"><title>uid_admin</title>
<polygon fill="none" stroke="black" points="581.845,-291.5 581.845,-327.5 658.845,-327.5 658.845,-291.5 581.845,-291.5"/>
<text text-anchor="middle" x="620.345" y="-305.8" font-family="Times,serif" font-size="14.00">uid=admin</text>
</g>
<!-- cn_administration&#45;&gt;uid_admin -->
<g id="edge5" class="edge"><title>cn_administration&#45;&gt;uid_admin</title>
<path fill="none" stroke="black" d="M687.801,-364.313C676.322,-355.156 662.038,-343.76 649.572,-333.816"/>
<polygon fill="black" stroke="black" points="651.691,-331.029 641.691,-327.529 647.326,-336.501 651.691,-331.029"/>
</g>
<!-- admin_role -->
<g id="node24" class="node"><title>admin_role</title>
<polygon fill="none" stroke="black" points="677.345,-291.5 677.345,-327.5 741.345,-327.5 741.345,-291.5 677.345,-291.5"/>
<text text-anchor="middle" x="709.345" y="-305.8" font-family="Times,serif" font-size="14.00">cn=roles</text>
</g>
<!-- cn_administration&#45;&gt;admin_role -->
<g id="edge6" class="edge"><title>cn_administration&#45;&gt;admin_role</title>
<path fill="none" stroke="black" d="M709.345,-364.313C709.345,-356.289 709.345,-346.547 709.345,-337.569"/>
<polygon fill="black" stroke="black" points="712.846,-337.529 709.345,-327.529 705.846,-337.529 712.846,-337.529"/>
</g>
<!-- cn_servers -->
<g id="node6" class="node"><title>cn_servers</title>
<polygon fill="none" stroke="black" points="759.345,-291.5 759.345,-327.5 837.345,-327.5 837.345,-291.5 759.345,-291.5"/>
<text text-anchor="middle" x="798.345" y="-305.8" font-family="Times,serif" font-size="14.00">cn=Servers</text>
</g>
<!-- ou_servers&#45;&gt;cn_servers -->
<g id="edge16" class="edge"><title>ou_servers&#45;&gt;cn_servers</title>
<path fill="none" stroke="black" d="M982.38,-364.494C941.305,-352.443 886.784,-336.447 847.766,-324.999"/>
<polygon fill="black" stroke="black" points="848.279,-321.502 837.698,-322.046 846.308,-328.219 848.279,-321.502"/>
</g>
<!-- cn_server_settings -->
<g id="node7" class="node"><title>cn_server_settings</title>
<polygon fill="none" stroke="black" stroke-width="2" points="985.345,-291.5 985.345,-327.5 1101.35,-327.5 1101.35,-291.5 985.345,-291.5"/>
<text text-anchor="middle" x="1043.35" y="-305.8" font-family="Times,serif" font-size="14.00">cn=Global Config</text>
</g>
<!-- ou_servers&#45;&gt;cn_server_settings -->
<g id="edge8" class="edge"><title>ou_servers&#45;&gt;cn_server_settings</title>
<path fill="none" stroke="black" d="M1041.07,-364.313C1041.41,-356.289 1041.82,-346.547 1042.2,-337.569"/>
<polygon fill="black" stroke="black" points="1045.7,-337.668 1042.63,-327.529 1038.71,-337.372 1045.7,-337.668"/>
</g>
<!-- config_sync -->
<g id="node22" class="node"><title>config_sync</title>
<polygon fill="none" stroke="black" points="1119.35,-291.5 1119.35,-327.5 1225.35,-327.5 1225.35,-291.5 1119.35,-291.5"/>
<text text-anchor="middle" x="1172.35" y="-305.8" font-family="Times,serif" font-size="14.00">cn=Config Sync</text>
</g>
<!-- ou_servers&#45;&gt;config_sync -->
<g id="edge7" class="edge"><title>ou_servers&#45;&gt;config_sync</title>
<path fill="none" stroke="black" d="M1071.96,-364.494C1089.87,-354.861 1112.47,-342.707 1131.68,-332.37"/>
<polygon fill="black" stroke="black" points="1133.38,-335.433 1140.53,-327.614 1130.06,-329.268 1133.38,-335.433"/>
</g>
<!-- ou_domain1 -->
<g id="node15" class="node"><title>ou_domain1</title>
<polygon fill="none" stroke="black" points="298.845,-218.5 298.845,-254.5 411.845,-254.5 411.845,-218.5 298.845,-218.5"/>
<text text-anchor="middle" x="355.345" y="-232.8" font-family="Times,serif" font-size="14.00">ou=example.com</text>
</g>
<!-- cn_servers&#45;&gt;ou_domain1 -->
<g id="edge17" class="edge"><title>cn_servers&#45;&gt;ou_domain1</title>
<path fill="none" stroke="black" d="M759.266,-293.475C756.27,-292.563 753.273,-291.723 750.345,-291 637.021,-263.014 501.549,-248.681 422.313,-242.159"/>
<polygon fill="black" stroke="black" points="422.237,-238.642 411.988,-241.327 421.675,-245.619 422.237,-238.642"/>
</g>
<!-- ou_domain2 -->
<g id="node16" class="node"><title>ou_domain2</title>
<polygon fill="none" stroke="black" points="746.345,-218.5 746.345,-254.5 846.345,-254.5 846.345,-218.5 746.345,-218.5"/>
<text text-anchor="middle" x="796.345" y="-232.8" font-family="Times,serif" font-size="14.00">ou=redhat.com</text>
</g>
<!-- cn_servers&#45;&gt;ou_domain2 -->
<g id="edge18" class="edge"><title>cn_servers&#45;&gt;ou_domain2</title>
<path fill="none" stroke="black" d="M797.861,-291.313C797.635,-283.289 797.361,-273.547 797.108,-264.569"/>
<polygon fill="black" stroke="black" points="800.605,-264.426 796.825,-254.529 793.608,-264.623 800.605,-264.426"/>
</g>
<!-- default_scheme -->
<g id="node8" class="node"><title>default_scheme</title>
<polygon fill="none" stroke="black" points="986.845,-218.5 986.845,-254.5 1101.85,-254.5 1101.85,-218.5 986.845,-218.5"/>
<text text-anchor="middle" x="1044.35" y="-232.8" font-family="Times,serif" font-size="14.00">cn=default profile</text>
</g>
<!-- cn_server_settings&#45;&gt;default_scheme -->
<g id="edge9" class="edge"><title>cn_server_settings&#45;&gt;default_scheme</title>
<path fill="none" stroke="black" d="M1043.59,-291.313C1043.7,-283.289 1043.84,-273.547 1043.96,-264.569"/>
<polygon fill="black" stroke="black" points="1047.46,-264.577 1044.11,-254.529 1040.47,-264.479 1047.46,-264.577"/>
</g>
<!-- custom_scheme -->
<g id="node9" class="node"><title>custom_scheme</title>
<polygon fill="none" stroke="black" points="1120.35,-218.5 1120.35,-254.5 1238.35,-254.5 1238.35,-218.5 1120.35,-218.5"/>
<text text-anchor="middle" x="1179.35" y="-232.8" font-family="Times,serif" font-size="14.00">cn=another profile</text>
</g>
<!-- cn_server_settings&#45;&gt;custom_scheme -->
<g id="edge10" class="edge"><title>cn_server_settings&#45;&gt;custom_scheme</title>
<path fill="none" stroke="black" d="M1075.92,-291.494C1094.37,-281.861 1117.65,-269.707 1137.45,-259.37"/>
<polygon fill="black" stroke="black" points="1139.32,-262.344 1146.56,-254.614 1136.08,-256.139 1139.32,-262.344"/>
</g>
<!-- global_config -->
<g id="node10" class="node"><title>global_config</title>
<ellipse fill="none" stroke="green" cx="927.345" cy="-163.5" rx="46.5926" ry="18"/>
<text text-anchor="middle" x="927.345" y="-159.8" font-family="Times,serif" font-size="14.00">cn=config</text>
</g>
<!-- default_scheme&#45;&gt;global_config -->
<g id="edge11" class="edge"><title>default_scheme&#45;&gt;global_config</title>
<path fill="none" stroke="black" d="M1016.32,-218.494C999.511,-208.293 978.043,-195.265 960.406,-184.562"/>
<polygon fill="black" stroke="black" points="961.942,-181.4 951.577,-179.205 958.31,-187.385 961.942,-181.4"/>
</g>
<!-- global_security -->
<g id="node11" class="node"><title>global_security</title>
<ellipse fill="none" stroke="green" cx="1044.35" cy="-163.5" rx="51.9908" ry="18"/>
<text text-anchor="middle" x="1044.35" y="-159.8" font-family="Times,serif" font-size="14.00">cn=security</text>
</g>
<!-- default_scheme&#45;&gt;global_security -->
<g id="edge12" class="edge"><title>default_scheme&#45;&gt;global_security</title>
<path fill="none" stroke="black" d="M1044.35,-218.313C1044.35,-210.289 1044.35,-200.547 1044.35,-191.569"/>
<polygon fill="black" stroke="black" points="1047.85,-191.529 1044.35,-181.529 1040.85,-191.529 1047.85,-191.529"/>
</g>
<!-- global_suffix -->
<g id="node12" class="node"><title>global_suffix</title>
<ellipse fill="none" stroke="green" cx="1159.35" cy="-163.5" rx="44.6926" ry="18"/>
<text text-anchor="middle" x="1159.35" y="-159.8" font-family="Times,serif" font-size="14.00">cn=suffix</text>
</g>
<!-- default_scheme&#45;&gt;global_suffix -->
<g id="edge13" class="edge"><title>default_scheme&#45;&gt;global_suffix</title>
<path fill="none" stroke="black" d="M1071.89,-218.494C1088.53,-208.223 1109.8,-195.086 1127.21,-184.343"/>
<polygon fill="black" stroke="black" points="1129.24,-187.202 1135.91,-178.97 1125.56,-181.245 1129.24,-187.202"/>
</g>
<!-- global_backend -->
<g id="node13" class="node"><title>global_backend</title>
<ellipse fill="none" stroke="green" cx="1276.35" cy="-163.5" rx="53.8905" ry="18"/>
<text text-anchor="middle" x="1276.35" y="-159.8" font-family="Times,serif" font-size="14.00">cn=backend</text>
</g>
<!-- default_scheme&#45;&gt;global_backend -->
<g id="edge14" class="edge"><title>default_scheme&#45;&gt;global_backend</title>
<path fill="none" stroke="black" d="M1099.92,-218.494C1139.05,-206.518 1190.91,-190.647 1228.26,-179.215"/>
<polygon fill="black" stroke="black" points="1229.37,-182.535 1237.91,-176.262 1227.32,-175.842 1229.37,-182.535"/>
</g>
<!-- global_plugins -->
<g id="node14" class="node"><title>global_plugins</title>
<ellipse fill="none" stroke="green" cx="1398.35" cy="-163.5" rx="50.0912" ry="18"/>
<text text-anchor="middle" x="1398.35" y="-159.8" font-family="Times,serif" font-size="14.00">cn=plugins</text>
</g>
<!-- default_scheme&#45;&gt;global_plugins -->
<g id="edge15" class="edge"><title>default_scheme&#45;&gt;global_plugins</title>
<path fill="none" stroke="black" d="M1102,-220.053C1105.16,-219.33 1108.29,-218.639 1111.35,-218 1211.76,-197.011 1239.29,-204.635 1339.35,-182 1343.51,-181.059 1347.81,-179.985 1352.1,-178.843"/>
<polygon fill="black" stroke="black" points="1353.33,-182.133 1362.03,-176.086 1351.46,-175.388 1353.33,-182.133"/>
</g>
<!-- ou_domain1_settings -->
<g id="node17" class="node"><title>ou_domain1_settings</title>
<ellipse fill="none" stroke="green" cx="99.3454" cy="-163.5" rx="84.485" ry="18"/>
<text text-anchor="middle" x="99.3454" y="-159.8" font-family="Times,serif" font-size="14.00">cn=domain settings?</text>
</g>
<!-- ou_domain1&#45;&gt;ou_domain1_settings -->
<g id="edge19" class="edge"><title>ou_domain1&#45;&gt;ou_domain1_settings</title>
<path fill="none" stroke="black" d="M298.531,-219.743C256.937,-208.207 200.64,-192.593 158.507,-180.908"/>
<polygon fill="black" stroke="black" points="159.234,-177.478 148.662,-178.178 157.363,-184.223 159.234,-177.478"/>
</g>
<!-- cn_host1 -->
<g id="node19" class="node"><title>cn_host1</title>
<polygon fill="none" stroke="black" points="201.845,-145.5 201.845,-181.5 346.845,-181.5 346.845,-145.5 201.845,-145.5"/>
<text text-anchor="middle" x="274.345" y="-159.8" font-family="Times,serif" font-size="14.00">cn=host1.example.com</text>
</g>
<!-- ou_domain1&#45;&gt;cn_host1 -->
<g id="edge21" class="edge"><title>ou_domain1&#45;&gt;cn_host1</title>
<path fill="none" stroke="black" d="M335.738,-218.313C325.49,-209.33 312.784,-198.193 301.595,-188.386"/>
<polygon fill="black" stroke="black" points="303.6,-185.488 293.773,-181.529 298.986,-190.753 303.6,-185.488"/>
</g>
<!-- cn_host2 -->
<g id="node20" class="node"><title>cn_host2</title>
<polygon fill="none" stroke="black" points="364.845,-145.5 364.845,-181.5 509.845,-181.5 509.845,-145.5 364.845,-145.5"/>
<text text-anchor="middle" x="437.345" y="-159.8" font-family="Times,serif" font-size="14.00">cn=host2.example.com</text>
</g>
<!-- ou_domain1&#45;&gt;cn_host2 -->
<g id="edge22" class="edge"><title>ou_domain1&#45;&gt;cn_host2</title>
<path fill="none" stroke="black" d="M375.195,-218.313C385.67,-209.243 398.682,-197.977 410.089,-188.1"/>
<polygon fill="black" stroke="black" points="412.409,-190.721 417.678,-181.529 407.827,-185.429 412.409,-190.721"/>
</g>
<!-- ou_domain2_settings -->
<g id="node18" class="node"><title>ou_domain2_settings</title>
<ellipse fill="none" stroke="green" cx="628.345" cy="-163.5" rx="84.485" ry="18"/>
<text text-anchor="middle" x="628.345" y="-159.8" font-family="Times,serif" font-size="14.00">cn=domain settings?</text>
</g>
<!-- ou_domain2&#45;&gt;ou_domain2_settings -->
<g id="edge20" class="edge"><title>ou_domain2&#45;&gt;ou_domain2_settings</title>
<path fill="none" stroke="black" d="M756.105,-218.494C731.401,-208.053 699.692,-194.652 674.044,-183.813"/>
<polygon fill="black" stroke="black" points="675.112,-180.465 664.538,-179.796 672.387,-186.912 675.112,-180.465"/>
</g>
<!-- cn_host3 -->
<g id="node21" class="node"><title>cn_host3</title>
<polygon fill="none" stroke="black" points="730.345,-145.5 730.345,-181.5 862.345,-181.5 862.345,-145.5 730.345,-145.5"/>
<text text-anchor="middle" x="796.345" y="-159.8" font-family="Times,serif" font-size="14.00">cn=host1.redhat.com</text>
</g>
<!-- ou_domain2&#45;&gt;cn_host3 -->
<g id="edge23" class="edge"><title>ou_domain2&#45;&gt;cn_host3</title>
<path fill="none" stroke="black" d="M796.345,-218.313C796.345,-210.289 796.345,-200.547 796.345,-191.569"/>
<polygon fill="black" stroke="black" points="799.846,-191.529 796.345,-181.529 792.846,-191.529 799.846,-191.529"/>
</g>
<!-- cn_inst1 -->
<g id="node25" class="node"><title>cn_inst1</title>
<polygon fill="none" stroke="black" points="2.34544,-72.5 2.34544,-108.5 102.345,-108.5 102.345,-72.5 2.34544,-72.5"/>
<text text-anchor="middle" x="52.3454" y="-86.8" font-family="Times,serif" font-size="14.00">cn=slapd&#45;instA</text>
</g>
<!-- cn_host1&#45;&gt;cn_inst1 -->
<g id="edge24" class="edge"><title>cn_host1&#45;&gt;cn_inst1</title>
<path fill="none" stroke="black" d="M221.171,-145.494C188.364,-135.001 146.207,-121.519 112.227,-110.651"/>
<polygon fill="black" stroke="black" points="113.012,-107.228 102.421,-107.515 110.879,-113.895 113.012,-107.228"/>
</g>
<!-- cn_inst2 -->
<g id="node26" class="node"><title>cn_inst2</title>
<polygon fill="none" stroke="black" points="121.845,-72.5 121.845,-108.5 220.845,-108.5 220.845,-72.5 121.845,-72.5"/>
<text text-anchor="middle" x="171.345" y="-86.8" font-family="Times,serif" font-size="14.00">cn=slapd&#45;instB</text>
</g>
<!-- cn_host1&#45;&gt;cn_inst2 -->
<g id="edge25" class="edge"><title>cn_host1&#45;&gt;cn_inst2</title>
<path fill="none" stroke="black" d="M249.674,-145.494C236.142,-136.166 219.181,-124.474 204.506,-114.358"/>
<polygon fill="black" stroke="black" points="206.392,-111.407 196.172,-108.614 202.419,-117.171 206.392,-111.407"/>
</g>
<!-- cn_config_inst1 -->
<g id="node35" class="node"><title>cn_config_inst1</title>
<polygon fill="none" stroke="purple" stroke-width="2" points="238.845,-72.5 238.845,-108.5 359.845,-108.5 359.845,-72.5 238.845,-72.5"/>
<text text-anchor="middle" x="299.345" y="-86.8" font-family="Times,serif" font-size="14.00">cn=slapd&#45;CONFIG</text>
</g>
<!-- cn_host1&#45;&gt;cn_config_inst1 -->
<g id="edge26" class="edge"><title>cn_host1&#45;&gt;cn_config_inst1</title>
<path fill="none" stroke="black" d="M280.397,-145.313C283.284,-137.115 286.802,-127.123 290.02,-117.985"/>
<polygon fill="black" stroke="black" points="293.329,-119.124 293.349,-108.529 286.727,-116.799 293.329,-119.124"/>
</g>
<!-- cn_inst3 -->
<g id="node27" class="node"><title>cn_inst3</title>
<polygon fill="none" stroke="black" points="378.345,-72.5 378.345,-108.5 478.345,-108.5 478.345,-72.5 378.345,-72.5"/>
<text text-anchor="middle" x="428.345" y="-86.8" font-family="Times,serif" font-size="14.00">cn=slapd&#45;instA</text>
</g>
<!-- cn_host2&#45;&gt;cn_inst3 -->
<g id="edge28" class="edge"><title>cn_host2&#45;&gt;cn_inst3</title>
<path fill="none" stroke="black" d="M435.167,-145.313C434.15,-137.289 432.915,-127.547 431.777,-118.569"/>
<polygon fill="black" stroke="black" points="435.234,-118.009 430.504,-108.529 428.289,-118.89 435.234,-118.009"/>
</g>
<!-- cn_config_inst2 -->
<g id="node36" class="node"><title>cn_config_inst2</title>
<polygon fill="none" stroke="purple" stroke-width="2" points="496.845,-72.5 496.845,-108.5 617.845,-108.5 617.845,-72.5 496.845,-72.5"/>
<text text-anchor="middle" x="557.345" y="-86.8" font-family="Times,serif" font-size="14.00">cn=slapd&#45;CONFIG</text>
</g>
<!-- cn_host2&#45;&gt;cn_config_inst2 -->
<g id="edge29" class="edge"><title>cn_host2&#45;&gt;cn_config_inst2</title>
<path fill="none" stroke="black" d="M466.088,-145.494C482.149,-135.991 502.355,-124.036 519.668,-113.792"/>
<polygon fill="black" stroke="black" points="521.597,-116.718 528.421,-108.614 518.032,-110.694 521.597,-116.718"/>
</g>
<!-- cn_inst4 -->
<g id="node28" class="node"><title>cn_inst4</title>
<polygon fill="none" stroke="black" points="636.345,-72.5 636.345,-108.5 736.345,-108.5 736.345,-72.5 636.345,-72.5"/>
<text text-anchor="middle" x="686.345" y="-86.8" font-family="Times,serif" font-size="14.00">cn=slapd&#45;instA</text>
</g>
<!-- cn_host3&#45;&gt;cn_inst4 -->
<g id="edge31" class="edge"><title>cn_host3&#45;&gt;cn_inst4</title>
<path fill="none" stroke="black" d="M769.998,-145.494C755.411,-136.079 737.093,-124.255 721.32,-114.075"/>
<polygon fill="black" stroke="black" points="723.159,-111.096 712.859,-108.614 719.363,-116.977 723.159,-111.096"/>
</g>
<!-- cn_inst5 -->
<g id="node29" class="node"><title>cn_inst5</title>
<polygon fill="none" stroke="black" points="754.845,-72.5 754.845,-108.5 853.845,-108.5 853.845,-72.5 754.845,-72.5"/>
<text text-anchor="middle" x="804.345" y="-86.8" font-family="Times,serif" font-size="14.00">cn=slapd&#45;instB</text>
</g>
<!-- cn_host3&#45;&gt;cn_inst5 -->
<g id="edge32" class="edge"><title>cn_host3&#45;&gt;cn_inst5</title>
<path fill="none" stroke="black" d="M798.282,-145.313C799.186,-137.289 800.284,-127.547 801.295,-118.569"/>
<polygon fill="black" stroke="black" points="804.785,-118.858 802.427,-108.529 797.829,-118.074 804.785,-118.858"/>
</g>
<!-- cn_config_inst3 -->
<g id="node37" class="node"><title>cn_config_inst3</title>
<polygon fill="none" stroke="purple" stroke-width="2" points="871.845,-72.5 871.845,-108.5 992.845,-108.5 992.845,-72.5 871.845,-72.5"/>
<text text-anchor="middle" x="932.345" y="-86.8" font-family="Times,serif" font-size="14.00">cn=slapd&#45;CONFIG</text>
</g>
<!-- cn_host3&#45;&gt;cn_config_inst3 -->
<g id="edge33" class="edge"><title>cn_host3&#45;&gt;cn_config_inst3</title>
<path fill="none" stroke="black" d="M828.921,-145.494C847.373,-135.861 870.654,-123.707 890.453,-113.37"/>
<polygon fill="black" stroke="black" points="892.32,-116.344 899.565,-108.614 889.08,-110.139 892.32,-116.344"/>
</g>
<!-- cn_inst1_settings -->
<g id="node30" class="node"><title>cn_inst1_settings</title>
<ellipse fill="none" stroke="green" cx="51.3454" cy="-18" rx="51.1914" ry="18"/>
<text text-anchor="middle" x="51.3454" y="-14.3" font-family="Times,serif" font-size="14.00">cn=settings</text>
</g>
<!-- cn_inst1&#45;&gt;cn_inst1_settings -->
<g id="edge35" class="edge"><title>cn_inst1&#45;&gt;cn_inst1_settings</title>
<path fill="none" stroke="black" d="M52.1034,-72.4339C51.9932,-64.6695 51.8601,-55.2842 51.7364,-46.5597"/>
<polygon fill="black" stroke="black" points="55.2338,-46.348 51.5922,-36.3987 48.2345,-46.4474 55.2338,-46.348"/>
</g>
<!-- cn_inst2_settings -->
<g id="node31" class="node"><title>cn_inst2_settings</title>
<ellipse fill="none" stroke="green" cx="172.345" cy="-18" rx="51.1914" ry="18"/>
<text text-anchor="middle" x="172.345" y="-14.3" font-family="Times,serif" font-size="14.00">cn=settings</text>
</g>
<!-- cn_inst2&#45;&gt;cn_inst2_settings -->
<g id="edge36" class="edge"><title>cn_inst2&#45;&gt;cn_inst2_settings</title>
<path fill="none" stroke="black" d="M171.588,-72.4339C171.698,-64.6695 171.831,-55.2842 171.955,-46.5597"/>
<polygon fill="black" stroke="black" points="175.456,-46.4474 172.099,-36.3987 168.457,-46.348 175.456,-46.4474"/>
</g>
<!-- cn_inst3_settings -->
<g id="node32" class="node"><title>cn_inst3_settings</title>
<ellipse fill="none" stroke="green" cx="428.345" cy="-18" rx="51.1914" ry="18"/>
<text text-anchor="middle" x="428.345" y="-14.3" font-family="Times,serif" font-size="14.00">cn=settings</text>
</g>
<!-- cn_inst3&#45;&gt;cn_inst3_settings -->
<g id="edge37" class="edge"><title>cn_inst3&#45;&gt;cn_inst3_settings</title>
<path fill="none" stroke="black" d="M428.345,-72.4339C428.345,-64.6695 428.345,-55.2842 428.345,-46.5597"/>
<polygon fill="black" stroke="black" points="431.846,-46.3987 428.345,-36.3987 424.846,-46.3987 431.846,-46.3987"/>
</g>
<!-- cn_inst4_settings -->
<g id="node33" class="node"><title>cn_inst4_settings</title>
<ellipse fill="none" stroke="green" cx="684.345" cy="-18" rx="51.1914" ry="18"/>
<text text-anchor="middle" x="684.345" y="-14.3" font-family="Times,serif" font-size="14.00">cn=settings</text>
</g>
<!-- cn_inst4&#45;&gt;cn_inst4_settings -->
<g id="edge38" class="edge"><title>cn_inst4&#45;&gt;cn_inst4_settings</title>
<path fill="none" stroke="black" d="M685.861,-72.4339C685.641,-64.6695 685.375,-55.2842 685.127,-46.5597"/>
<polygon fill="black" stroke="black" points="688.621,-46.2954 684.839,-36.3987 681.624,-46.494 688.621,-46.2954"/>
</g>
<!-- cn_inst5_settings -->
<g id="node34" class="node"><title>cn_inst5_settings</title>
<ellipse fill="none" stroke="green" cx="805.345" cy="-18" rx="51.1914" ry="18"/>
<text text-anchor="middle" x="805.345" y="-14.3" font-family="Times,serif" font-size="14.00">cn=settings</text>
</g>
<!-- cn_inst5&#45;&gt;cn_inst5_settings -->
<g id="edge39" class="edge"><title>cn_inst5&#45;&gt;cn_inst5_settings</title>
<path fill="none" stroke="black" d="M804.588,-72.4339C804.698,-64.6695 804.831,-55.2842 804.955,-46.5597"/>
<polygon fill="black" stroke="black" points="808.456,-46.4474 805.099,-36.3987 801.457,-46.348 808.456,-46.4474"/>
</g>
<!-- cn_config1_settings -->
<g id="node38" class="node"><title>cn_config1_settings</title>
<ellipse fill="none" stroke="green" cx="299.345" cy="-18" rx="51.1914" ry="18"/>
<text text-anchor="middle" x="299.345" y="-14.3" font-family="Times,serif" font-size="14.00">cn=settings</text>
</g>
<!-- cn_config_inst1&#45;&gt;cn_config1_settings -->
<g id="edge27" class="edge"><title>cn_config_inst1&#45;&gt;cn_config1_settings</title>
<path fill="none" stroke="black" d="M299.345,-72.4339C299.345,-64.6695 299.345,-55.2842 299.345,-46.5597"/>
<polygon fill="black" stroke="black" points="302.846,-46.3987 299.345,-36.3987 295.846,-46.3987 302.846,-46.3987"/>
</g>
<!-- cn_config2_settings -->
<g id="node39" class="node"><title>cn_config2_settings</title>
<ellipse fill="none" stroke="green" cx="557.345" cy="-18" rx="51.1914" ry="18"/>
<text text-anchor="middle" x="557.345" y="-14.3" font-family="Times,serif" font-size="14.00">cn=settings</text>
</g>
<!-- cn_config_inst2&#45;&gt;cn_config2_settings -->
<g id="edge30" class="edge"><title>cn_config_inst2&#45;&gt;cn_config2_settings</title>
<path fill="none" stroke="black" d="M557.345,-72.4339C557.345,-64.6695 557.345,-55.2842 557.345,-46.5597"/>
<polygon fill="black" stroke="black" points="560.846,-46.3987 557.345,-36.3987 553.846,-46.3987 560.846,-46.3987"/>
</g>
<!-- cn_config3_settings -->
<g id="node40" class="node"><title>cn_config3_settings</title>
<ellipse fill="none" stroke="green" cx="932.345" cy="-18" rx="51.1914" ry="18"/>
<text text-anchor="middle" x="932.345" y="-14.3" font-family="Times,serif" font-size="14.00">cn=settings</text>
</g>
<!-- cn_config_inst3&#45;&gt;cn_config3_settings -->
<g id="edge34" class="edge"><title>cn_config_inst3&#45;&gt;cn_config3_settings</title>
<path fill="none" stroke="black" d="M932.345,-72.4339C932.345,-64.6695 932.345,-55.2842 932.345,-46.5597"/>
<polygon fill="black" stroke="black" points="935.846,-46.3987 932.345,-36.3987 928.846,-46.3987 935.846,-46.3987"/>
</g>
</g>
</svg>
