<?xml version="1.0" encoding="UTF-8" standalone="no"?>
<!DOCTYPE svg PUBLIC "-//W3C//DTD SVG 1.1//EN"
 "http://www.w3.org/Graphics/SVG/1.1/DTD/svg11.dtd">
<!-- Generated by graphviz version 2.38.0 (20140413.2041)
 -->
<!-- Title: ODMC Pages: 1 -->
<svg width="1248pt" height="410pt"
 viewBox="0.00 0.00 1247.50 410.00" xmlns="http://www.w3.org/2000/svg" xmlns:xlink="http://www.w3.org/1999/xlink">
<g id="graph0" class="graph" transform="scale(1 1) rotate(0) translate(4 406)">
<title>ODMC</title>
<polygon fill="white" stroke="none" points="-4,4 -4,-406 1243.5,-406 1243.5,4 -4,4"/>
<!-- root -->
<g id="node1" class="node"><title>root</title>
<polygon fill="none" stroke="black" points="977.5,-365.5 977.5,-401.5 1087.5,-401.5 1087.5,-365.5 977.5,-365.5"/>
<text text-anchor="middle" x="1032.5" y="-379.8" font-family="Times,serif" font-size="14.00">ns&#45;slapd&#45;instance</text>
</g>
<!-- o_dmc -->
<g id="node2" class="node"><title>o_dmc</title>
<polygon fill="none" stroke="black" points="792.5,-292.5 792.5,-328.5 848.5,-328.5 848.5,-292.5 792.5,-292.5"/>
<text text-anchor="middle" x="820.5" y="-306.8" font-family="Times,serif" font-size="14.00">o=dmc</text>
</g>
<!-- root&#45;&gt;o_dmc -->
<g id="edge1" class="edge"><title>root&#45;&gt;o_dmc</title>
<path fill="none" stroke="black" d="M981.721,-365.494C943.814,-352.798 892.835,-335.725 858.433,-324.204"/>
<polygon fill="black" stroke="black" points="859.352,-320.821 848.758,-320.964 857.129,-327.458 859.352,-320.821"/>
</g>
<!-- dc_example -->
<g id="node3" class="node"><title>dc_example</title>
<polygon fill="none" stroke="black" points="966,-292.5 966,-328.5 1099,-328.5 1099,-292.5 966,-292.5"/>
<text text-anchor="middle" x="1032.5" y="-306.8" font-family="Times,serif" font-size="14.00">dc=example,dc=com</text>
</g>
<!-- root&#45;&gt;dc_example -->
<g id="edge24" class="edge"><title>root&#45;&gt;dc_example</title>
<path fill="none" stroke="black" d="M1032.5,-365.313C1032.5,-357.289 1032.5,-347.547 1032.5,-338.569"/>
<polygon fill="black" stroke="black" points="1036,-338.529 1032.5,-328.529 1029,-338.529 1036,-338.529"/>
</g>
<!-- dc_bazaar -->
<g id="node4" class="node"><title>dc_bazaar</title>
<polygon fill="none" stroke="black" points="1117.5,-292.5 1117.5,-328.5 1239.5,-328.5 1239.5,-292.5 1117.5,-292.5"/>
<text text-anchor="middle" x="1178.5" y="-306.8" font-family="Times,serif" font-size="14.00">dc=bazaar,dc=com</text>
</g>
<!-- root&#45;&gt;dc_bazaar -->
<g id="edge26" class="edge"><title>root&#45;&gt;dc_bazaar</title>
<path fill="none" stroke="black" d="M1067.47,-365.494C1087.46,-355.773 1112.72,-343.487 1134.1,-333.09"/>
<polygon fill="black" stroke="black" points="1135.85,-336.134 1143.31,-328.614 1132.79,-329.839 1135.85,-336.134"/>
</g>
<!-- cn_settings -->
<g id="node5" class="node"><title>cn_settings</title>
<polygon fill="none" stroke="black" points="101,-219.5 101,-255.5 180,-255.5 180,-219.5 101,-219.5"/>
<text text-anchor="middle" x="140.5" y="-233.8" font-family="Times,serif" font-size="14.00">cn=settings</text>
</g>
<!-- o_dmc&#45;&gt;cn_settings -->
<g id="edge2" class="edge"><title>o_dmc&#45;&gt;cn_settings</title>
<path fill="none" stroke="black" d="M792.147,-306.54C687.787,-295.643 324.177,-257.678 190.396,-243.71"/>
<polygon fill="black" stroke="black" points="190.726,-240.225 180.416,-242.668 189.999,-247.187 190.726,-240.225"/>
</g>
<!-- cn_hosts -->
<g id="node6" class="node"><title>cn_hosts</title>
<polygon fill="none" stroke="black" points="417,-219.5 417,-255.5 482,-255.5 482,-219.5 417,-219.5"/>
<text text-anchor="middle" x="449.5" y="-233.8" font-family="Times,serif" font-size="14.00">cn=hosts</text>
</g>
<!-- o_dmc&#45;&gt;cn_hosts -->
<g id="edge3" class="edge"><title>o_dmc&#45;&gt;cn_hosts</title>
<path fill="none" stroke="black" d="M792.31,-304.105C727.79,-291.758 569.052,-261.379 492.354,-246.701"/>
<polygon fill="black" stroke="black" points="492.574,-243.18 482.094,-244.738 491.258,-250.055 492.574,-243.18"/>
</g>
<!-- cn_suffixes -->
<g id="node7" class="node"><title>cn_suffixes</title>
<polygon fill="none" stroke="black" points="722.5,-219.5 722.5,-255.5 802.5,-255.5 802.5,-219.5 722.5,-219.5"/>
<text text-anchor="middle" x="762.5" y="-233.8" font-family="Times,serif" font-size="14.00">cn=suffixes</text>
</g>
<!-- o_dmc&#45;&gt;cn_suffixes -->
<g id="edge4" class="edge"><title>o_dmc&#45;&gt;cn_suffixes</title>
<path fill="none" stroke="black" d="M806.46,-292.313C799.407,-283.679 790.728,-273.055 782.95,-263.534"/>
<polygon fill="black" stroke="black" points="785.448,-261.059 776.411,-255.529 780.027,-265.488 785.448,-261.059"/>
</g>
<!-- cn_administrators -->
<g id="node8" class="node"><title>cn_administrators</title>
<polygon fill="none" stroke="black" points="821.5,-219.5 821.5,-255.5 937.5,-255.5 937.5,-219.5 821.5,-219.5"/>
<text text-anchor="middle" x="879.5" y="-233.8" font-family="Times,serif" font-size="14.00">cn=administrators</text>
</g>
<!-- o_dmc&#45;&gt;cn_administrators -->
<g id="edge5" class="edge"><title>o_dmc&#45;&gt;cn_administrators</title>
<path fill="none" stroke="black" d="M834.782,-292.313C842.029,-283.592 850.964,-272.84 858.936,-263.246"/>
<polygon fill="black" stroke="black" points="861.65,-265.457 865.349,-255.529 856.266,-260.983 861.65,-265.457"/>
</g>
<!-- cn_roles -->
<g id="node9" class="node"><title>cn_roles</title>
<polygon fill="none" stroke="black" points="960.5,-219.5 960.5,-255.5 1024.5,-255.5 1024.5,-219.5 960.5,-219.5"/>
<text text-anchor="middle" x="992.5" y="-233.8" font-family="Times,serif" font-size="14.00">cn=roles</text>
</g>
<!-- o_dmc&#45;&gt;cn_roles -->
<g id="edge6" class="edge"><title>o_dmc&#45;&gt;cn_roles</title>
<path fill="none" stroke="black" d="M848.518,-297.935C876.296,-286.468 919.181,-268.765 950.929,-255.66"/>
<polygon fill="black" stroke="black" points="952.488,-258.803 960.396,-251.752 949.817,-252.333 952.488,-258.803"/>
</g>
<!-- dc_ex_dot -->
<g id="node24" class="node"><title>dc_ex_dot</title>
<polygon fill="none" stroke="black" points="1042.5,-219.5 1042.5,-255.5 1096.5,-255.5 1096.5,-219.5 1042.5,-219.5"/>
<text text-anchor="middle" x="1069.5" y="-233.8" font-family="Times,serif" font-size="14.00">...</text>
</g>
<!-- dc_example&#45;&gt;dc_ex_dot -->
<g id="edge25" class="edge"><title>dc_example&#45;&gt;dc_ex_dot</title>
<path fill="none" stroke="black" d="M1041.46,-292.313C1045.82,-283.941 1051.16,-273.697 1056,-264.403"/>
<polygon fill="black" stroke="black" points="1059.11,-266.014 1060.63,-255.529 1052.9,-262.779 1059.11,-266.014"/>
</g>
<!-- dc_baz_dot -->
<g id="node25" class="node"><title>dc_baz_dot</title>
<polygon fill="none" stroke="black" points="1151.5,-219.5 1151.5,-255.5 1205.5,-255.5 1205.5,-219.5 1151.5,-219.5"/>
<text text-anchor="middle" x="1178.5" y="-233.8" font-family="Times,serif" font-size="14.00">...</text>
</g>
<!-- dc_bazaar&#45;&gt;dc_baz_dot -->
<g id="edge27" class="edge"><title>dc_bazaar&#45;&gt;dc_baz_dot</title>
<path fill="none" stroke="black" d="M1178.5,-292.313C1178.5,-284.289 1178.5,-274.547 1178.5,-265.569"/>
<polygon fill="black" stroke="black" points="1182,-265.529 1178.5,-255.529 1175,-265.529 1182,-265.529"/>
</g>
<!-- cn_encryption -->
<g id="node10" class="node"><title>cn_encryption</title>
<polygon fill="none" stroke="black" points="0,-146.5 0,-182.5 95,-182.5 95,-146.5 0,-146.5"/>
<text text-anchor="middle" x="47.5" y="-160.8" font-family="Times,serif" font-size="14.00">cn=encryption</text>
</g>
<!-- cn_settings&#45;&gt;cn_encryption -->
<g id="edge10" class="edge"><title>cn_settings&#45;&gt;cn_encryption</title>
<path fill="none" stroke="black" d="M117.987,-219.313C105.993,-210.156 91.0659,-198.76 78.0405,-188.816"/>
<polygon fill="black" stroke="black" points="79.8777,-185.815 69.8054,-182.529 75.63,-191.379 79.8777,-185.815"/>
</g>
<!-- cn_settings_dot -->
<g id="node11" class="node"><title>cn_settings_dot</title>
<polygon fill="none" stroke="black" points="113.5,-146.5 113.5,-182.5 167.5,-182.5 167.5,-146.5 113.5,-146.5"/>
<text text-anchor="middle" x="140.5" y="-160.8" font-family="Times,serif" font-size="14.00">...</text>
</g>
<!-- cn_settings&#45;&gt;cn_settings_dot -->
<g id="edge11" class="edge"><title>cn_settings&#45;&gt;cn_settings_dot</title>
<path fill="none" stroke="black" d="M140.5,-219.313C140.5,-211.289 140.5,-201.547 140.5,-192.569"/>
<polygon fill="black" stroke="black" points="144,-192.529 140.5,-182.529 137,-192.529 144,-192.529"/>
</g>
<!-- cn_ma -->
<g id="node18" class="node"><title>cn_ma</title>
<polygon fill="none" stroke="black" points="186,-146.5 186,-182.5 349,-182.5 349,-146.5 186,-146.5"/>
<text text-anchor="middle" x="267.5" y="-160.8" font-family="Times,serif" font-size="14.00">cn=master&#45;a.example.com</text>
</g>
<!-- cn_hosts&#45;&gt;cn_ma -->
<g id="edge12" class="edge"><title>cn_hosts&#45;&gt;cn_ma</title>
<path fill="none" stroke="black" d="M416.962,-223.807C390.276,-213.396 351.958,-198.448 320.802,-186.293"/>
<polygon fill="black" stroke="black" points="321.971,-182.993 311.383,-182.619 319.427,-189.514 321.971,-182.993"/>
</g>
<!-- cn_mb -->
<g id="node19" class="node"><title>cn_mb</title>
<polygon fill="none" stroke="black" points="367.5,-146.5 367.5,-182.5 531.5,-182.5 531.5,-146.5 367.5,-146.5"/>
<text text-anchor="middle" x="449.5" y="-160.8" font-family="Times,serif" font-size="14.00">cn=master&#45;b.example.com</text>
</g>
<!-- cn_hosts&#45;&gt;cn_mb -->
<g id="edge13" class="edge"><title>cn_hosts&#45;&gt;cn_mb</title>
<path fill="none" stroke="black" d="M449.5,-219.313C449.5,-211.289 449.5,-201.547 449.5,-192.569"/>
<polygon fill="black" stroke="black" points="453,-192.529 449.5,-182.529 446,-192.529 453,-192.529"/>
</g>
<!-- cn_dc_example -->
<g id="node12" class="node"><title>cn_dc_example</title>
<polygon fill="none" stroke="black" points="550,-146.5 550,-182.5 683,-182.5 683,-146.5 550,-146.5"/>
<text text-anchor="middle" x="616.5" y="-160.8" font-family="Times,serif" font-size="14.00">dc=example,dc=com</text>
</g>
<!-- cn_suffixes&#45;&gt;cn_dc_example -->
<g id="edge18" class="edge"><title>cn_suffixes&#45;&gt;cn_dc_example</title>
<path fill="none" stroke="black" d="M727.529,-219.494C707.541,-209.773 682.275,-197.487 660.897,-187.09"/>
<polygon fill="black" stroke="black" points="662.215,-183.839 651.691,-182.614 659.154,-190.134 662.215,-183.839"/>
</g>
<!-- cn_dc_bazaar -->
<g id="node13" class="node"><title>cn_dc_bazaar</title>
<polygon fill="none" stroke="black" points="701.5,-146.5 701.5,-182.5 823.5,-182.5 823.5,-146.5 701.5,-146.5"/>
<text text-anchor="middle" x="762.5" y="-160.8" font-family="Times,serif" font-size="14.00">dc=bazaar,dc=com</text>
</g>
<!-- cn_suffixes&#45;&gt;cn_dc_bazaar -->
<g id="edge19" class="edge"><title>cn_suffixes&#45;&gt;cn_dc_bazaar</title>
<path fill="none" stroke="black" d="M762.5,-219.313C762.5,-211.289 762.5,-201.547 762.5,-192.569"/>
<polygon fill="black" stroke="black" points="766,-192.529 762.5,-182.529 759,-192.529 766,-192.529"/>
</g>
<!-- uid_admin -->
<g id="node26" class="node"><title>uid_admin</title>
<polygon fill="none" stroke="black" points="842,-146.5 842,-182.5 919,-182.5 919,-146.5 842,-146.5"/>
<text text-anchor="middle" x="880.5" y="-160.8" font-family="Times,serif" font-size="14.00">uid=admin</text>
</g>
<!-- cn_administrators&#45;&gt;uid_admin -->
<g id="edge7" class="edge"><title>cn_administrators&#45;&gt;uid_admin</title>
<path fill="none" stroke="black" d="M879.742,-219.313C879.855,-211.289 879.992,-201.547 880.119,-192.569"/>
<polygon fill="black" stroke="black" points="883.619,-192.577 880.26,-182.529 876.62,-192.479 883.619,-192.577"/>
</g>
<!-- cn_domain_admins -->
<g id="node27" class="node"><title>cn_domain_admins</title>
<polygon fill="none" stroke="black" points="937.5,-146.5 937.5,-182.5 1059.5,-182.5 1059.5,-146.5 937.5,-146.5"/>
<text text-anchor="middle" x="998.5" y="-160.8" font-family="Times,serif" font-size="14.00">cn=domain admins</text>
</g>
<!-- cn_roles&#45;&gt;cn_domain_admins -->
<g id="edge8" class="edge"><title>cn_roles&#45;&gt;cn_domain_admins</title>
<path fill="none" stroke="black" d="M993.952,-219.313C994.63,-211.289 995.454,-201.547 996.212,-192.569"/>
<polygon fill="black" stroke="black" points="999.706,-192.788 997.061,-182.529 992.731,-192.199 999.706,-192.788"/>
</g>
<!-- cn_roles_dot -->
<g id="node28" class="node"><title>cn_roles_dot</title>
<polygon fill="none" stroke="black" points="1077.5,-146.5 1077.5,-182.5 1131.5,-182.5 1131.5,-146.5 1077.5,-146.5"/>
<text text-anchor="middle" x="1104.5" y="-160.8" font-family="Times,serif" font-size="14.00">...</text>
</g>
<!-- cn_roles&#45;&gt;cn_roles_dot -->
<g id="edge9" class="edge"><title>cn_roles&#45;&gt;cn_roles_dot</title>
<path fill="none" stroke="black" d="M1019.33,-219.494C1034.18,-210.079 1052.83,-198.255 1068.89,-188.075"/>
<polygon fill="black" stroke="black" points="1070.93,-190.924 1077.5,-182.614 1067.18,-185.012 1070.93,-190.924"/>
</g>
<!-- cn_ex_settings -->
<g id="node14" class="node"><title>cn_ex_settings</title>
<polygon fill="none" stroke="black" points="577,-73.5 577,-109.5 656,-109.5 656,-73.5 577,-73.5"/>
<text text-anchor="middle" x="616.5" y="-87.8" font-family="Times,serif" font-size="14.00">cn=settings</text>
</g>
<!-- cn_dc_example&#45;&gt;cn_ex_settings -->
<g id="edge20" class="edge"><title>cn_dc_example&#45;&gt;cn_ex_settings</title>
<path fill="none" stroke="black" d="M616.5,-146.313C616.5,-138.289 616.5,-128.547 616.5,-119.569"/>
<polygon fill="black" stroke="black" points="620,-119.529 616.5,-109.529 613,-119.529 620,-119.529"/>
</g>
<!-- cn_baz_settings -->
<g id="node15" class="node"><title>cn_baz_settings</title>
<polygon fill="none" stroke="black" points="723,-73.5 723,-109.5 802,-109.5 802,-73.5 723,-73.5"/>
<text text-anchor="middle" x="762.5" y="-87.8" font-family="Times,serif" font-size="14.00">cn=settings</text>
</g>
<!-- cn_dc_bazaar&#45;&gt;cn_baz_settings -->
<g id="edge21" class="edge"><title>cn_dc_bazaar&#45;&gt;cn_baz_settings</title>
<path fill="none" stroke="black" d="M762.5,-146.313C762.5,-138.289 762.5,-128.547 762.5,-119.569"/>
<polygon fill="black" stroke="black" points="766,-119.529 762.5,-109.529 759,-119.529 766,-119.529"/>
</g>
<!-- cn_ex_settings_dot -->
<g id="node16" class="node"><title>cn_ex_settings_dot</title>
<polygon fill="none" stroke="black" points="589.5,-0.5 589.5,-36.5 643.5,-36.5 643.5,-0.5 589.5,-0.5"/>
<text text-anchor="middle" x="616.5" y="-14.8" font-family="Times,serif" font-size="14.00">...</text>
</g>
<!-- cn_ex_settings&#45;&gt;cn_ex_settings_dot -->
<g id="edge22" class="edge"><title>cn_ex_settings&#45;&gt;cn_ex_settings_dot</title>
<path fill="none" stroke="black" d="M616.5,-73.3129C616.5,-65.2895 616.5,-55.5475 616.5,-46.5691"/>
<polygon fill="black" stroke="black" points="620,-46.5288 616.5,-36.5288 613,-46.5289 620,-46.5288"/>
</g>
<!-- cn_baz_settings_dot -->
<g id="node17" class="node"><title>cn_baz_settings_dot</title>
<polygon fill="none" stroke="black" points="735.5,-0.5 735.5,-36.5 789.5,-36.5 789.5,-0.5 735.5,-0.5"/>
<text text-anchor="middle" x="762.5" y="-14.8" font-family="Times,serif" font-size="14.00">...</text>
</g>
<!-- cn_baz_settings&#45;&gt;cn_baz_settings_dot -->
<g id="edge23" class="edge"><title>cn_baz_settings&#45;&gt;cn_baz_settings_dot</title>
<path fill="none" stroke="black" d="M762.5,-73.3129C762.5,-65.2895 762.5,-55.5475 762.5,-46.5691"/>
<polygon fill="black" stroke="black" points="766,-46.5288 762.5,-36.5288 759,-46.5289 766,-46.5288"/>
</g>
<!-- cn_ma_settings -->
<g id="node20" class="node"><title>cn_ma_settings</title>
<polygon fill="none" stroke="black" points="228,-73.5 228,-109.5 307,-109.5 307,-73.5 228,-73.5"/>
<text text-anchor="middle" x="267.5" y="-87.8" font-family="Times,serif" font-size="14.00">cn=settings</text>
</g>
<!-- cn_ma&#45;&gt;cn_ma_settings -->
<g id="edge14" class="edge"><title>cn_ma&#45;&gt;cn_ma_settings</title>
<path fill="none" stroke="black" d="M267.5,-146.313C267.5,-138.289 267.5,-128.547 267.5,-119.569"/>
<polygon fill="black" stroke="black" points="271,-119.529 267.5,-109.529 264,-119.529 271,-119.529"/>
</g>
<!-- cn_mb_settings -->
<g id="node21" class="node"><title>cn_mb_settings</title>
<polygon fill="none" stroke="black" points="410,-73.5 410,-109.5 489,-109.5 489,-73.5 410,-73.5"/>
<text text-anchor="middle" x="449.5" y="-87.8" font-family="Times,serif" font-size="14.00">cn=settings</text>
</g>
<!-- cn_mb&#45;&gt;cn_mb_settings -->
<g id="edge15" class="edge"><title>cn_mb&#45;&gt;cn_mb_settings</title>
<path fill="none" stroke="black" d="M449.5,-146.313C449.5,-138.289 449.5,-128.547 449.5,-119.569"/>
<polygon fill="black" stroke="black" points="453,-119.529 449.5,-109.529 446,-119.529 453,-119.529"/>
</g>
<!-- cn_ma_settings_dot -->
<g id="node22" class="node"><title>cn_ma_settings_dot</title>
<polygon fill="none" stroke="black" points="240.5,-0.5 240.5,-36.5 294.5,-36.5 294.5,-0.5 240.5,-0.5"/>
<text text-anchor="middle" x="267.5" y="-14.8" font-family="Times,serif" font-size="14.00">...</text>
</g>
<!-- cn_ma_settings&#45;&gt;cn_ma_settings_dot -->
<g id="edge16" class="edge"><title>cn_ma_settings&#45;&gt;cn_ma_settings_dot</title>
<path fill="none" stroke="black" d="M267.5,-73.3129C267.5,-65.2895 267.5,-55.5475 267.5,-46.5691"/>
<polygon fill="black" stroke="black" points="271,-46.5288 267.5,-36.5288 264,-46.5289 271,-46.5288"/>
</g>
<!-- cn_mb_settings_dot -->
<g id="node23" class="node"><title>cn_mb_settings_dot</title>
<polygon fill="none" stroke="black" points="422.5,-0.5 422.5,-36.5 476.5,-36.5 476.5,-0.5 422.5,-0.5"/>
<text text-anchor="middle" x="449.5" y="-14.8" font-family="Times,serif" font-size="14.00">...</text>
</g>
<!-- cn_mb_settings&#45;&gt;cn_mb_settings_dot -->
<g id="edge17" class="edge"><title>cn_mb_settings&#45;&gt;cn_mb_settings_dot</title>
<path fill="none" stroke="black" d="M449.5,-73.3129C449.5,-65.2895 449.5,-55.5475 449.5,-46.5691"/>
<polygon fill="black" stroke="black" points="453,-46.5288 449.5,-36.5288 446,-46.5289 453,-46.5288"/>
</g>
</g>
</svg>
