<?xml version="1.0" encoding="UTF-8" standalone="no"?>
<!DOCTYPE svg PUBLIC "-//W3C//DTD SVG 1.1//EN"
 "http://www.w3.org/Graphics/SVG/1.1/DTD/svg11.dtd">
<!-- Generated by graphviz version 2.30.1 (20140821.0912)
 -->
<!-- Title: ODMC Pages: 1 -->
<svg width="1247pt" height="416pt"
 viewBox="0.00 0.00 1247.00 416.00" xmlns="http://www.w3.org/2000/svg" xmlns:xlink="http://www.w3.org/1999/xlink">
<g id="graph0" class="graph" transform="scale(1 1) rotate(0) translate(4 412)">
<title>ODMC</title>
<polygon fill="white" stroke="white" points="-4,5 -4,-412 1244,-412 1244,5 -4,5"/>
<!-- root -->
<g id="node1" class="node"><title>root</title>
<polygon fill="none" stroke="black" points="977,-371 977,-407 1087,-407 1087,-371 977,-371"/>
<text text-anchor="middle" x="1032" y="-385.3" font-family="Times,serif" font-size="14.00">ns&#45;slapd&#45;instance</text>
</g>
<!-- o_dmc -->
<g id="node2" class="node"><title>o_dmc</title>
<polygon fill="none" stroke="black" points="792,-297 792,-333 848,-333 848,-297 792,-297"/>
<text text-anchor="middle" x="820" y="-311.3" font-family="Times,serif" font-size="14.00">o=dmc</text>
</g>
<!-- root&#45;&gt;o_dmc -->
<g id="edge1" class="edge"><title>root&#45;&gt;o_dmc</title>
<path fill="none" stroke="black" d="M981.759,-370.937C943.757,-358.031 892.388,-340.585 857.822,-328.845"/>
<polygon fill="black" stroke="black" points="858.7,-325.447 848.106,-325.545 856.449,-332.075 858.7,-325.447"/>
</g>
<!-- dc_example -->
<g id="node3" class="node"><title>dc_example</title>
<polygon fill="none" stroke="black" points="965.5,-297 965.5,-333 1098.5,-333 1098.5,-297 965.5,-297"/>
<text text-anchor="middle" x="1032" y="-311.3" font-family="Times,serif" font-size="14.00">dc=example,dc=com</text>
</g>
<!-- root&#45;&gt;dc_example -->
<g id="edge24" class="edge"><title>root&#45;&gt;dc_example</title>
<path fill="none" stroke="black" d="M1032,-370.937C1032,-362.807 1032,-352.876 1032,-343.705"/>
<polygon fill="black" stroke="black" points="1035.5,-343.441 1032,-333.441 1028.5,-343.441 1035.5,-343.441"/>
</g>
<!-- dc_bazaar -->
<g id="node4" class="node"><title>dc_bazaar</title>
<polygon fill="none" stroke="black" points="1117,-297 1117,-333 1239,-333 1239,-297 1117,-297"/>
<text text-anchor="middle" x="1178" y="-311.3" font-family="Times,serif" font-size="14.00">dc=bazaar,dc=com</text>
</g>
<!-- root&#45;&gt;dc_bazaar -->
<g id="edge26" class="edge"><title>root&#45;&gt;dc_bazaar</title>
<path fill="none" stroke="black" d="M1066.6,-370.937C1086.89,-360.931 1112.71,-348.196 1134.39,-337.507"/>
<polygon fill="black" stroke="black" points="1135.98,-340.627 1143.4,-333.065 1132.88,-334.349 1135.98,-340.627"/>
</g>
<!-- cn_settings -->
<g id="node5" class="node"><title>cn_settings</title>
<polygon fill="none" stroke="black" points="100.5,-223 100.5,-259 179.5,-259 179.5,-223 100.5,-223"/>
<text text-anchor="middle" x="140" y="-237.3" font-family="Times,serif" font-size="14.00">cn=settings</text>
</g>
<!-- o_dmc&#45;&gt;cn_settings -->
<g id="edge2" class="edge"><title>o_dmc&#45;&gt;cn_settings</title>
<path fill="none" stroke="black" d="M791.647,-310.998C687.287,-299.948 323.677,-261.448 189.896,-247.283"/>
<polygon fill="black" stroke="black" points="190.229,-243.799 179.916,-246.226 189.492,-250.76 190.229,-243.799"/>
</g>
<!-- cn_hosts -->
<g id="node6" class="node"><title>cn_hosts</title>
<polygon fill="none" stroke="black" points="416.5,-223 416.5,-259 481.5,-259 481.5,-223 416.5,-223"/>
<text text-anchor="middle" x="449" y="-237.3" font-family="Times,serif" font-size="14.00">cn=hosts</text>
</g>
<!-- o_dmc&#45;&gt;cn_hosts -->
<g id="edge3" class="edge"><title>o_dmc&#45;&gt;cn_hosts</title>
<path fill="none" stroke="black" d="M791.81,-308.529C727.29,-296.008 568.552,-265.201 491.854,-250.317"/>
<polygon fill="black" stroke="black" points="492.078,-246.795 481.594,-248.326 490.745,-253.667 492.078,-246.795"/>
</g>
<!-- cn_suffixes -->
<g id="node7" class="node"><title>cn_suffixes</title>
<polygon fill="none" stroke="black" points="722,-223 722,-259 802,-259 802,-223 722,-223"/>
<text text-anchor="middle" x="762" y="-237.3" font-family="Times,serif" font-size="14.00">cn=suffixes</text>
</g>
<!-- o_dmc&#45;&gt;cn_suffixes -->
<g id="edge4" class="edge"><title>o_dmc&#45;&gt;cn_suffixes</title>
<path fill="none" stroke="black" d="M806.255,-296.937C799.136,-288.1 790.304,-277.135 782.406,-267.331"/>
<polygon fill="black" stroke="black" points="785.048,-265.033 776.049,-259.441 779.597,-269.424 785.048,-265.033"/>
</g>
<!-- cn_administrators -->
<g id="node8" class="node"><title>cn_administrators</title>
<polygon fill="none" stroke="black" points="821,-223 821,-259 937,-259 937,-223 821,-223"/>
<text text-anchor="middle" x="879" y="-237.3" font-family="Times,serif" font-size="14.00">cn=administrators</text>
</g>
<!-- o_dmc&#45;&gt;cn_administrators -->
<g id="edge5" class="edge"><title>o_dmc&#45;&gt;cn_administrators</title>
<path fill="none" stroke="black" d="M833.982,-296.937C841.223,-288.1 850.209,-277.135 858.243,-267.331"/>
<polygon fill="black" stroke="black" points="861.077,-269.394 864.708,-259.441 855.663,-264.957 861.077,-269.394"/>
</g>
<!-- cn_roles -->
<g id="node9" class="node"><title>cn_roles</title>
<polygon fill="none" stroke="black" points="960,-223 960,-259 1024,-259 1024,-223 960,-223"/>
<text text-anchor="middle" x="992" y="-237.3" font-family="Times,serif" font-size="14.00">cn=roles</text>
</g>
<!-- o_dmc&#45;&gt;cn_roles -->
<g id="edge6" class="edge"><title>o_dmc&#45;&gt;cn_roles</title>
<path fill="none" stroke="black" d="M848.018,-302.272C875.796,-290.644 918.681,-272.692 950.429,-259.402"/>
<polygon fill="black" stroke="black" points="952.023,-262.529 959.896,-255.439 949.32,-256.072 952.023,-262.529"/>
</g>
<!-- dc_ex_dot -->
<g id="node24" class="node"><title>dc_ex_dot</title>
<polygon fill="none" stroke="black" points="1042,-223 1042,-259 1096,-259 1096,-223 1042,-223"/>
<text text-anchor="middle" x="1069" y="-237.3" font-family="Times,serif" font-size="14.00">...</text>
</g>
<!-- dc_example&#45;&gt;dc_ex_dot -->
<g id="edge25" class="edge"><title>dc_example&#45;&gt;dc_ex_dot</title>
<path fill="none" stroke="black" d="M1040.77,-296.937C1045.13,-288.454 1050.5,-278.009 1055.38,-268.513"/>
<polygon fill="black" stroke="black" points="1058.58,-269.935 1060.04,-259.441 1052.35,-266.735 1058.58,-269.935"/>
</g>
<!-- dc_baz_dot -->
<g id="node25" class="node"><title>dc_baz_dot</title>
<polygon fill="none" stroke="black" points="1151,-223 1151,-259 1205,-259 1205,-223 1151,-223"/>
<text text-anchor="middle" x="1178" y="-237.3" font-family="Times,serif" font-size="14.00">...</text>
</g>
<!-- dc_bazaar&#45;&gt;dc_baz_dot -->
<g id="edge27" class="edge"><title>dc_bazaar&#45;&gt;dc_baz_dot</title>
<path fill="none" stroke="black" d="M1178,-296.937C1178,-288.807 1178,-278.876 1178,-269.705"/>
<polygon fill="black" stroke="black" points="1181.5,-269.441 1178,-259.441 1174.5,-269.441 1181.5,-269.441"/>
</g>
<!-- cn_encryption -->
<g id="node10" class="node"><title>cn_encryption</title>
<polygon fill="none" stroke="black" points="-0.5,-149 -0.5,-185 94.5,-185 94.5,-149 -0.5,-149"/>
<text text-anchor="middle" x="47" y="-163.3" font-family="Times,serif" font-size="14.00">cn=encryption</text>
</g>
<!-- cn_settings&#45;&gt;cn_encryption -->
<g id="edge10" class="edge"><title>cn_settings&#45;&gt;cn_encryption</title>
<path fill="none" stroke="black" d="M117.96,-222.937C105.772,-213.501 90.4502,-201.639 77.1657,-191.354"/>
<polygon fill="black" stroke="black" points="79.2537,-188.544 69.2038,-185.19 74.9684,-194.079 79.2537,-188.544"/>
</g>
<!-- cn_settings_dot -->
<g id="node11" class="node"><title>cn_settings_dot</title>
<polygon fill="none" stroke="black" points="113,-149 113,-185 167,-185 167,-149 113,-149"/>
<text text-anchor="middle" x="140" y="-163.3" font-family="Times,serif" font-size="14.00">...</text>
</g>
<!-- cn_settings&#45;&gt;cn_settings_dot -->
<g id="edge11" class="edge"><title>cn_settings&#45;&gt;cn_settings_dot</title>
<path fill="none" stroke="black" d="M140,-222.937C140,-214.807 140,-204.876 140,-195.705"/>
<polygon fill="black" stroke="black" points="143.5,-195.441 140,-185.441 136.5,-195.441 143.5,-195.441"/>
</g>
<!-- cn_ma -->
<g id="node18" class="node"><title>cn_ma</title>
<polygon fill="none" stroke="black" points="185.5,-149 185.5,-185 348.5,-185 348.5,-149 185.5,-149"/>
<text text-anchor="middle" x="267" y="-163.3" font-family="Times,serif" font-size="14.00">cn=master&#45;a.example.com</text>
</g>
<!-- cn_hosts&#45;&gt;cn_ma -->
<g id="edge12" class="edge"><title>cn_hosts&#45;&gt;cn_ma</title>
<path fill="none" stroke="black" d="M416.462,-227.128C389.591,-216.497 350.925,-201.201 319.654,-188.83"/>
<polygon fill="black" stroke="black" points="320.794,-185.517 310.207,-185.093 318.218,-192.026 320.794,-185.517"/>
</g>
<!-- cn_mb -->
<g id="node19" class="node"><title>cn_mb</title>
<polygon fill="none" stroke="black" points="367,-149 367,-185 531,-185 531,-149 367,-149"/>
<text text-anchor="middle" x="449" y="-163.3" font-family="Times,serif" font-size="14.00">cn=master&#45;b.example.com</text>
</g>
<!-- cn_hosts&#45;&gt;cn_mb -->
<g id="edge13" class="edge"><title>cn_hosts&#45;&gt;cn_mb</title>
<path fill="none" stroke="black" d="M449,-222.937C449,-214.807 449,-204.876 449,-195.705"/>
<polygon fill="black" stroke="black" points="452.5,-195.441 449,-185.441 445.5,-195.441 452.5,-195.441"/>
</g>
<!-- cn_dc_example -->
<g id="node12" class="node"><title>cn_dc_example</title>
<polygon fill="none" stroke="black" points="549.5,-149 549.5,-185 682.5,-185 682.5,-149 549.5,-149"/>
<text text-anchor="middle" x="616" y="-163.3" font-family="Times,serif" font-size="14.00">dc=example,dc=com</text>
</g>
<!-- cn_suffixes&#45;&gt;cn_dc_example -->
<g id="edge18" class="edge"><title>cn_suffixes&#45;&gt;cn_dc_example</title>
<path fill="none" stroke="black" d="M727.4,-222.937C707.109,-212.931 681.286,-200.196 659.611,-189.507"/>
<polygon fill="black" stroke="black" points="661.121,-186.349 650.604,-185.065 658.025,-192.627 661.121,-186.349"/>
</g>
<!-- cn_dc_bazaar -->
<g id="node13" class="node"><title>cn_dc_bazaar</title>
<polygon fill="none" stroke="black" points="701,-149 701,-185 823,-185 823,-149 701,-149"/>
<text text-anchor="middle" x="762" y="-163.3" font-family="Times,serif" font-size="14.00">dc=bazaar,dc=com</text>
</g>
<!-- cn_suffixes&#45;&gt;cn_dc_bazaar -->
<g id="edge19" class="edge"><title>cn_suffixes&#45;&gt;cn_dc_bazaar</title>
<path fill="none" stroke="black" d="M762,-222.937C762,-214.807 762,-204.876 762,-195.705"/>
<polygon fill="black" stroke="black" points="765.5,-195.441 762,-185.441 758.5,-195.441 765.5,-195.441"/>
</g>
<!-- uid_admin -->
<g id="node26" class="node"><title>uid_admin</title>
<polygon fill="none" stroke="black" points="841.5,-149 841.5,-185 918.5,-185 918.5,-149 841.5,-149"/>
<text text-anchor="middle" x="880" y="-163.3" font-family="Times,serif" font-size="14.00">uid=admin</text>
</g>
<!-- cn_administrators&#45;&gt;uid_admin -->
<g id="edge7" class="edge"><title>cn_administrators&#45;&gt;uid_admin</title>
<path fill="none" stroke="black" d="M879.237,-222.937C879.35,-214.807 879.488,-204.876 879.615,-195.705"/>
<polygon fill="black" stroke="black" points="883.118,-195.488 879.758,-185.441 876.119,-195.391 883.118,-195.488"/>
</g>
<!-- cn_domain_admins -->
<g id="node27" class="node"><title>cn_domain_admins</title>
<polygon fill="none" stroke="black" points="937,-149 937,-185 1059,-185 1059,-149 937,-149"/>
<text text-anchor="middle" x="998" y="-163.3" font-family="Times,serif" font-size="14.00">cn=domain admins</text>
</g>
<!-- cn_roles&#45;&gt;cn_domain_admins -->
<g id="edge8" class="edge"><title>cn_roles&#45;&gt;cn_domain_admins</title>
<path fill="none" stroke="black" d="M993.422,-222.937C994.099,-214.807 994.927,-204.876 995.691,-195.705"/>
<polygon fill="black" stroke="black" points="999.204,-195.697 996.547,-185.441 992.228,-195.115 999.204,-195.697"/>
</g>
<!-- cn_roles_dot -->
<g id="node28" class="node"><title>cn_roles_dot</title>
<polygon fill="none" stroke="black" points="1077,-149 1077,-185 1131,-185 1131,-149 1077,-149"/>
<text text-anchor="middle" x="1104" y="-163.3" font-family="Times,serif" font-size="14.00">...</text>
</g>
<!-- cn_roles&#45;&gt;cn_roles_dot -->
<g id="edge9" class="edge"><title>cn_roles&#45;&gt;cn_roles_dot</title>
<path fill="none" stroke="black" d="M1018.54,-222.937C1033.5,-213.323 1052.37,-201.19 1068.57,-190.774"/>
<polygon fill="black" stroke="black" points="1070.74,-193.542 1077.26,-185.19 1066.96,-187.654 1070.74,-193.542"/>
</g>
<!-- cn_ex_settings -->
<g id="node14" class="node"><title>cn_ex_settings</title>
<polygon fill="none" stroke="black" points="576.5,-75 576.5,-111 655.5,-111 655.5,-75 576.5,-75"/>
<text text-anchor="middle" x="616" y="-89.3" font-family="Times,serif" font-size="14.00">cn=settings</text>
</g>
<!-- cn_dc_example&#45;&gt;cn_ex_settings -->
<g id="edge20" class="edge"><title>cn_dc_example&#45;&gt;cn_ex_settings</title>
<path fill="none" stroke="black" d="M616,-148.937C616,-140.807 616,-130.876 616,-121.705"/>
<polygon fill="black" stroke="black" points="619.5,-121.441 616,-111.441 612.5,-121.441 619.5,-121.441"/>
</g>
<!-- cn_baz_settings -->
<g id="node15" class="node"><title>cn_baz_settings</title>
<polygon fill="none" stroke="black" points="722.5,-75 722.5,-111 801.5,-111 801.5,-75 722.5,-75"/>
<text text-anchor="middle" x="762" y="-89.3" font-family="Times,serif" font-size="14.00">cn=settings</text>
</g>
<!-- cn_dc_bazaar&#45;&gt;cn_baz_settings -->
<g id="edge21" class="edge"><title>cn_dc_bazaar&#45;&gt;cn_baz_settings</title>
<path fill="none" stroke="black" d="M762,-148.937C762,-140.807 762,-130.876 762,-121.705"/>
<polygon fill="black" stroke="black" points="765.5,-121.441 762,-111.441 758.5,-121.441 765.5,-121.441"/>
</g>
<!-- cn_ex_settings_dot -->
<g id="node16" class="node"><title>cn_ex_settings_dot</title>
<polygon fill="none" stroke="black" points="589,-1 589,-37 643,-37 643,-1 589,-1"/>
<text text-anchor="middle" x="616" y="-15.3" font-family="Times,serif" font-size="14.00">...</text>
</g>
<!-- cn_ex_settings&#45;&gt;cn_ex_settings_dot -->
<g id="edge22" class="edge"><title>cn_ex_settings&#45;&gt;cn_ex_settings_dot</title>
<path fill="none" stroke="black" d="M616,-74.937C616,-66.8072 616,-56.8761 616,-47.7047"/>
<polygon fill="black" stroke="black" points="619.5,-47.4406 616,-37.4407 612.5,-47.4407 619.5,-47.4406"/>
</g>
<!-- cn_baz_settings_dot -->
<g id="node17" class="node"><title>cn_baz_settings_dot</title>
<polygon fill="none" stroke="black" points="735,-1 735,-37 789,-37 789,-1 735,-1"/>
<text text-anchor="middle" x="762" y="-15.3" font-family="Times,serif" font-size="14.00">...</text>
</g>
<!-- cn_baz_settings&#45;&gt;cn_baz_settings_dot -->
<g id="edge23" class="edge"><title>cn_baz_settings&#45;&gt;cn_baz_settings_dot</title>
<path fill="none" stroke="black" d="M762,-74.937C762,-66.8072 762,-56.8761 762,-47.7047"/>
<polygon fill="black" stroke="black" points="765.5,-47.4406 762,-37.4407 758.5,-47.4407 765.5,-47.4406"/>
</g>
<!-- cn_ma_settings -->
<g id="node20" class="node"><title>cn_ma_settings</title>
<polygon fill="none" stroke="black" points="227.5,-75 227.5,-111 306.5,-111 306.5,-75 227.5,-75"/>
<text text-anchor="middle" x="267" y="-89.3" font-family="Times,serif" font-size="14.00">cn=settings</text>
</g>
<!-- cn_ma&#45;&gt;cn_ma_settings -->
<g id="edge14" class="edge"><title>cn_ma&#45;&gt;cn_ma_settings</title>
<path fill="none" stroke="black" d="M267,-148.937C267,-140.807 267,-130.876 267,-121.705"/>
<polygon fill="black" stroke="black" points="270.5,-121.441 267,-111.441 263.5,-121.441 270.5,-121.441"/>
</g>
<!-- cn_mb_settings -->
<g id="node21" class="node"><title>cn_mb_settings</title>
<polygon fill="none" stroke="black" points="409.5,-75 409.5,-111 488.5,-111 488.5,-75 409.5,-75"/>
<text text-anchor="middle" x="449" y="-89.3" font-family="Times,serif" font-size="14.00">cn=settings</text>
</g>
<!-- cn_mb&#45;&gt;cn_mb_settings -->
<g id="edge15" class="edge"><title>cn_mb&#45;&gt;cn_mb_settings</title>
<path fill="none" stroke="black" d="M449,-148.937C449,-140.807 449,-130.876 449,-121.705"/>
<polygon fill="black" stroke="black" points="452.5,-121.441 449,-111.441 445.5,-121.441 452.5,-121.441"/>
</g>
<!-- cn_ma_settings_dot -->
<g id="node22" class="node"><title>cn_ma_settings_dot</title>
<polygon fill="none" stroke="black" points="240,-1 240,-37 294,-37 294,-1 240,-1"/>
<text text-anchor="middle" x="267" y="-15.3" font-family="Times,serif" font-size="14.00">...</text>
</g>
<!-- cn_ma_settings&#45;&gt;cn_ma_settings_dot -->
<g id="edge16" class="edge"><title>cn_ma_settings&#45;&gt;cn_ma_settings_dot</title>
<path fill="none" stroke="black" d="M267,-74.937C267,-66.8072 267,-56.8761 267,-47.7047"/>
<polygon fill="black" stroke="black" points="270.5,-47.4406 267,-37.4407 263.5,-47.4407 270.5,-47.4406"/>
</g>
<!-- cn_mb_settings_dot -->
<g id="node23" class="node"><title>cn_mb_settings_dot</title>
<polygon fill="none" stroke="black" points="422,-1 422,-37 476,-37 476,-1 422,-1"/>
<text text-anchor="middle" x="449" y="-15.3" font-family="Times,serif" font-size="14.00">...</text>
</g>
<!-- cn_mb_settings&#45;&gt;cn_mb_settings_dot -->
<g id="edge17" class="edge"><title>cn_mb_settings&#45;&gt;cn_mb_settings_dot</title>
<path fill="none" stroke="black" d="M449,-74.937C449,-66.8072 449,-56.8761 449,-47.7047"/>
<polygon fill="black" stroke="black" points="452.5,-47.4406 449,-37.4407 445.5,-47.4407 452.5,-47.4406"/>
</g>
</g>
</svg>
