<?xml version="1.0" encoding="UTF-8" standalone="no"?>
<!DOCTYPE svg PUBLIC "-//W3C//DTD SVG 1.1//EN"
 "http://www.w3.org/Graphics/SVG/1.1/DTD/svg11.dtd">
<!-- Generated by graphviz version 2.30.1 (20140821.0912)
 -->
<!-- Title: FilterBasic Pages: 1 -->
<svg width="496pt" height="120pt"
 viewBox="0.00 0.00 496.00 120.00" xmlns="http://www.w3.org/2000/svg" xmlns:xlink="http://www.w3.org/1999/xlink">
<g id="graph0" class="graph" transform="scale(1 1) rotate(0) translate(4 116)">
<title>FilterBasic</title>
<polygon fill="white" stroke="white" points="-4,5 -4,-116 493,-116 493,5 -4,5"/>
<!-- root_and -->
<g id="node1" class="node"><title>root_and</title>
<polygon fill="none" stroke="black" points="195,-75 195,-111 249,-111 249,-75 195,-75"/>
<text text-anchor="middle" x="222" y="-89.3" font-family="Times,serif" font-size="14.00">&amp;</text>
</g>
<!-- uid_baz -->
<g id="node2" class="node"><title>uid_baz</title>
<polygon fill="none" stroke="black" points="0,-1 0,-37 140,-37 140,-1 0,-1"/>
<text text-anchor="middle" x="30.5" y="-15.3" font-family="Times,serif" font-size="14.00">uid=baz</text>
<polyline fill="none" stroke="black" points="61,-1 61,-37 "/>
<text text-anchor="middle" x="80" y="-15.3" font-family="Times,serif" font-size="14.00">t 20</text>
<polyline fill="none" stroke="black" points="99,-1 99,-37 "/>
<text text-anchor="middle" x="119.5" y="-15.3" font-family="Times,serif" font-size="14.00">u 15</text>
</g>
<!-- root_and&#45;&gt;uid_baz -->
<g id="edge1" class="edge"><title>root_and&#45;&gt;uid_baz</title>
<path fill="none" stroke="black" d="M194.825,-79.1278C172.77,-68.6807 141.202,-53.7272 115.331,-41.4724"/>
<polygon fill="black" stroke="black" points="116.621,-38.2108 106.085,-37.0929 113.624,-44.5369 116.621,-38.2108"/>
</g>
<!-- cn_bar -->
<g id="node3" class="node"><title>cn_bar</title>
<polygon fill="none" stroke="black" points="158.5,-1 158.5,-37 285.5,-37 285.5,-1 158.5,-1"/>
<text text-anchor="middle" x="186" y="-15.3" font-family="Times,serif" font-size="14.00">cn=bar</text>
<polyline fill="none" stroke="black" points="213.5,-1 213.5,-37 "/>
<text text-anchor="middle" x="232.5" y="-15.3" font-family="Times,serif" font-size="14.00">t 30</text>
<polyline fill="none" stroke="black" points="251.5,-1 251.5,-37 "/>
<text text-anchor="middle" x="268.5" y="-15.3" font-family="Times,serif" font-size="14.00">u 8</text>
</g>
<!-- root_and&#45;&gt;cn_bar -->
<g id="edge2" class="edge"><title>root_and&#45;&gt;cn_bar</title>
<path fill="none" stroke="black" d="M222,-74.937C222,-66.8072 222,-56.8761 222,-47.7047"/>
<polygon fill="black" stroke="black" points="225.5,-47.4406 222,-37.4407 218.5,-47.4407 225.5,-47.4406"/>
</g>
<!-- oc_foo -->
<g id="node4" class="node"><title>oc_foo</title>
<polygon fill="none" stroke="black" points="304,-1 304,-37 488,-37 488,-1 304,-1"/>
<text text-anchor="middle" x="356.5" y="-15.3" font-family="Times,serif" font-size="14.00">objectClass=foo</text>
<polyline fill="none" stroke="black" points="409,-1 409,-37 "/>
<text text-anchor="middle" x="428" y="-15.3" font-family="Times,serif" font-size="14.00">t 40</text>
<polyline fill="none" stroke="black" points="447,-1 447,-37 "/>
<text text-anchor="middle" x="467.5" y="-15.3" font-family="Times,serif" font-size="14.00">u 15</text>
</g>
<!-- root_and&#45;&gt;oc_foo -->
<g id="edge3" class="edge"><title>root_and&#45;&gt;oc_foo</title>
<path fill="none" stroke="black" d="M249.188,-80.75C274.827,-70.1405 313.9,-53.9724 345.292,-40.9826"/>
<polygon fill="black" stroke="black" points="346.863,-44.1206 354.764,-37.063 344.186,-37.6525 346.863,-44.1206"/>
</g>
</g>
</svg>
