<?xml version="1.0" encoding="UTF-8" standalone="no"?>
<!DOCTYPE svg PUBLIC "-//W3C//DTD SVG 1.1//EN"
 "http://www.w3.org/Graphics/SVG/1.1/DTD/svg11.dtd">
<!-- Generated by graphviz version 2.30.1 (20140821.0912)
 -->
<!-- Title: FilterComplex Pages: 1 -->
<svg width="970pt" height="194pt"
 viewBox="0.00 0.00 970.00 194.00" xmlns="http://www.w3.org/2000/svg" xmlns:xlink="http://www.w3.org/1999/xlink">
<g id="graph0" class="graph" transform="scale(1 1) rotate(0) translate(4 190)">
<title>FilterComplex</title>
<polygon fill="white" stroke="white" points="-4,5 -4,-190 967,-190 967,5 -4,5"/>
<!-- root_and -->
<g id="node1" class="node"><title>root_and</title>
<polygon fill="none" stroke="black" points="538,-149 538,-185 666,-185 666,-149 538,-149"/>
<text text-anchor="middle" x="552" y="-163.3" font-family="Times,serif" font-size="14.00">&amp;</text>
<polyline fill="none" stroke="black" points="566,-149 566,-185 "/>
<text text-anchor="middle" x="597" y="-163.3" font-family="Times,serif" font-size="14.00">fg 0.975</text>
<polyline fill="none" stroke="black" points="628,-149 628,-185 "/>
<text text-anchor="middle" x="647" y="-163.3" font-family="Times,serif" font-size="14.00">t 90</text>
</g>
<!-- child_or1 -->
<g id="node2" class="node"><title>child_or1</title>
<polygon fill="none" stroke="black" points="230,-75 230,-111 350,-111 350,-75 230,-75"/>
<text text-anchor="middle" x="240" y="-89.3" font-family="Times,serif" font-size="14.00">|</text>
<polyline fill="none" stroke="black" points="250,-75 250,-111 "/>
<text text-anchor="middle" x="281" y="-89.3" font-family="Times,serif" font-size="14.00">fg 0.075</text>
<polyline fill="none" stroke="black" points="312,-75 312,-111 "/>
<text text-anchor="middle" x="331" y="-89.3" font-family="Times,serif" font-size="14.00">t 90</text>
</g>
<!-- root_and&#45;&gt;child_or1 -->
<g id="edge1" class="edge"><title>root_and&#45;&gt;child_or1</title>
<path fill="none" stroke="black" d="M537.732,-151.169C486.031,-139.238 413.483,-122.496 360.256,-110.213"/>
<polygon fill="black" stroke="black" points="360.747,-106.734 350.216,-107.896 359.172,-113.555 360.747,-106.734"/>
</g>
<!-- child_not1 -->
<g id="node6" class="node"><title>child_not1</title>
<polygon fill="none" stroke="black" points="467.5,-75 467.5,-111 588.5,-111 588.5,-75 467.5,-75"/>
<text text-anchor="middle" x="478" y="-89.3" font-family="Times,serif" font-size="14.00">!</text>
<polyline fill="none" stroke="black" points="488.5,-75 488.5,-111 "/>
<text text-anchor="middle" x="519.5" y="-89.3" font-family="Times,serif" font-size="14.00">fg 0.975</text>
<polyline fill="none" stroke="black" points="550.5,-75 550.5,-111 "/>
<text text-anchor="middle" x="569.5" y="-89.3" font-family="Times,serif" font-size="14.00">t 40</text>
</g>
<!-- root_and&#45;&gt;child_not1 -->
<g id="edge2" class="edge"><title>root_and&#45;&gt;child_not1</title>
<path fill="none" stroke="black" d="M584.463,-148.937C575.04,-139.768 563.261,-128.308 552.904,-118.231"/>
<polygon fill="black" stroke="black" points="555.276,-115.655 545.668,-111.19 550.394,-120.672 555.276,-115.655"/>
</g>
<!-- sn_pres -->
<g id="node8" class="node"><title>sn_pres</title>
<polygon fill="none" stroke="black" points="607,-75 607,-111 745,-111 745,-75 607,-75"/>
<text text-anchor="middle" x="629" y="-89.3" font-family="Times,serif" font-size="14.00">sn=*</text>
<polyline fill="none" stroke="black" points="651,-75 651,-111 "/>
<text text-anchor="middle" x="679" y="-89.3" font-family="Times,serif" font-size="14.00">fg 0.75</text>
<polyline fill="none" stroke="black" points="707,-75 707,-111 "/>
<text text-anchor="middle" x="726" y="-89.3" font-family="Times,serif" font-size="14.00">t 30</text>
</g>
<!-- root_and&#45;&gt;sn_pres -->
<g id="edge3" class="edge"><title>root_and&#45;&gt;sn_pres</title>
<path fill="none" stroke="black" d="M619.537,-148.937C628.96,-139.768 640.739,-128.308 651.096,-118.231"/>
<polygon fill="black" stroke="black" points="653.606,-120.672 658.332,-111.19 648.724,-115.655 653.606,-120.672"/>
</g>
<!-- oc_foo -->
<g id="node9" class="node"><title>oc_foo</title>
<polygon fill="none" stroke="black" points="763.5,-75 763.5,-111 962.5,-111 962.5,-75 763.5,-75"/>
<text text-anchor="middle" x="816" y="-89.3" font-family="Times,serif" font-size="14.00">objectClass=foo</text>
<polyline fill="none" stroke="black" points="868.5,-75 868.5,-111 "/>
<text text-anchor="middle" x="896.5" y="-89.3" font-family="Times,serif" font-size="14.00">fg 0.05</text>
<polyline fill="none" stroke="black" points="924.5,-75 924.5,-111 "/>
<text text-anchor="middle" x="943.5" y="-89.3" font-family="Times,serif" font-size="14.00">t 40</text>
</g>
<!-- root_and&#45;&gt;oc_foo -->
<g id="edge4" class="edge"><title>root_and&#45;&gt;oc_foo</title>
<path fill="none" stroke="black" d="M663.853,-148.937C702.15,-138.372 751.474,-124.766 791.452,-113.737"/>
<polygon fill="black" stroke="black" points="792.43,-117.098 801.139,-111.065 790.568,-110.351 792.43,-117.098"/>
</g>
<!-- uid_a -->
<g id="node3" class="node"><title>uid_a</title>
<polygon fill="none" stroke="black" points="0,-1 0,-37 148,-37 148,-1 0,-1"/>
<text text-anchor="middle" x="24" y="-15.3" font-family="Times,serif" font-size="14.00">uid=a</text>
<polyline fill="none" stroke="black" points="48,-1 48,-37 "/>
<text text-anchor="middle" x="79" y="-15.3" font-family="Times,serif" font-size="14.00">fg 0.025</text>
<polyline fill="none" stroke="black" points="110,-1 110,-37 "/>
<text text-anchor="middle" x="129" y="-15.3" font-family="Times,serif" font-size="14.00">t 30</text>
</g>
<!-- child_or1&#45;&gt;uid_a -->
<g id="edge5" class="edge"><title>child_or1&#45;&gt;uid_a</title>
<path fill="none" stroke="black" d="M238.811,-74.937C207.586,-64.5286 167.504,-51.1679 134.686,-40.2287"/>
<polygon fill="black" stroke="black" points="135.789,-36.9071 125.195,-37.0651 133.575,-43.5479 135.789,-36.9071"/>
</g>
<!-- uid_b -->
<g id="node4" class="node"><title>uid_b</title>
<polygon fill="none" stroke="black" points="166.5,-1 166.5,-37 315.5,-37 315.5,-1 166.5,-1"/>
<text text-anchor="middle" x="191" y="-15.3" font-family="Times,serif" font-size="14.00">uid=b</text>
<polyline fill="none" stroke="black" points="215.5,-1 215.5,-37 "/>
<text text-anchor="middle" x="246.5" y="-15.3" font-family="Times,serif" font-size="14.00">fg 0.025</text>
<polyline fill="none" stroke="black" points="277.5,-1 277.5,-37 "/>
<text text-anchor="middle" x="296.5" y="-15.3" font-family="Times,serif" font-size="14.00">t 30</text>
</g>
<!-- child_or1&#45;&gt;uid_b -->
<g id="edge6" class="edge"><title>child_or1&#45;&gt;uid_b</title>
<path fill="none" stroke="black" d="M278.388,-74.937C272.494,-66.277 265.209,-55.5731 258.64,-45.9207"/>
<polygon fill="black" stroke="black" points="261.389,-43.7386 252.869,-37.4407 255.602,-47.677 261.389,-43.7386"/>
</g>
<!-- uid_c -->
<g id="node5" class="node"><title>uid_c</title>
<polygon fill="none" stroke="black" points="334,-1 334,-37 482,-37 482,-1 334,-1"/>
<text text-anchor="middle" x="358" y="-15.3" font-family="Times,serif" font-size="14.00">uid=c</text>
<polyline fill="none" stroke="black" points="382,-1 382,-37 "/>
<text text-anchor="middle" x="413" y="-15.3" font-family="Times,serif" font-size="14.00">fg 0.025</text>
<polyline fill="none" stroke="black" points="444,-1 444,-37 "/>
<text text-anchor="middle" x="463" y="-15.3" font-family="Times,serif" font-size="14.00">t 30</text>
</g>
<!-- child_or1&#45;&gt;uid_c -->
<g id="edge7" class="edge"><title>child_or1&#45;&gt;uid_c</title>
<path fill="none" stroke="black" d="M317.964,-74.937C333.866,-65.2341 353.973,-52.9655 371.15,-42.4848"/>
<polygon fill="black" stroke="black" points="373.114,-45.3865 379.827,-37.19 369.468,-39.411 373.114,-45.3865"/>
</g>
<!-- cn_bar -->
<g id="node7" class="node"><title>cn_bar</title>
<polygon fill="none" stroke="black" points="500.5,-1 500.5,-37 655.5,-37 655.5,-1 500.5,-1"/>
<text text-anchor="middle" x="528" y="-15.3" font-family="Times,serif" font-size="14.00">cn=bar</text>
<polyline fill="none" stroke="black" points="555.5,-1 555.5,-37 "/>
<text text-anchor="middle" x="586.5" y="-15.3" font-family="Times,serif" font-size="14.00">fg 0.025</text>
<polyline fill="none" stroke="black" points="617.5,-1 617.5,-37 "/>
<text text-anchor="middle" x="636.5" y="-15.3" font-family="Times,serif" font-size="14.00">t 30</text>
</g>
<!-- child_not1&#45;&gt;cn_bar -->
<g id="edge8" class="edge"><title>child_not1&#45;&gt;cn_bar</title>
<path fill="none" stroke="black" d="M539.849,-74.937C545.863,-66.277 553.296,-55.5731 559.999,-45.9207"/>
<polygon fill="black" stroke="black" points="563.059,-47.6508 565.888,-37.4407 557.31,-43.658 563.059,-47.6508"/>
</g>
</g>
</svg>
