<?xml version="1.0" encoding="UTF-8" standalone="no"?>
<!DOCTYPE svg PUBLIC "-//W3C//DTD SVG 1.1//EN"
 "http://www.w3.org/Graphics/SVG/1.1/DTD/svg11.dtd">
<!-- Generated by graphviz version 2.38.0 (20140413.2041)
 -->
<!-- Title: FilterBasic Pages: 1 -->
<svg width="565pt" height="118pt"
 viewBox="0.00 0.00 565.00 118.00" xmlns="http://www.w3.org/2000/svg" xmlns:xlink="http://www.w3.org/1999/xlink">
<g id="graph0" class="graph" transform="scale(1 1) rotate(0) translate(4 114)">
<title>FilterBasic</title>
<polygon fill="white" stroke="none" points="-4,4 -4,-114 561,-114 561,4 -4,4"/>
<!-- root_and -->
<g id="node1" class="node"><title>root_and</title>
<polygon fill="none" stroke="black" points="229.5,-73.5 229.5,-109.5 283.5,-109.5 283.5,-73.5 229.5,-73.5"/>
<text text-anchor="middle" x="256.5" y="-87.8" font-family="Times,serif" font-size="14.00">&amp;</text>
</g>
<!-- uid_baz -->
<g id="node2" class="node"><title>uid_baz</title>
<polygon fill="none" stroke="black" points="0,-0.5 0,-36.5 161,-36.5 161,-0.5 0,-0.5"/>
<text text-anchor="middle" x="30.5" y="-14.8" font-family="Times,serif" font-size="14.00">uid=baz</text>
<polyline fill="none" stroke="black" points="61,-0.5 61,-36.5 "/>
<text text-anchor="middle" x="92" y="-14.8" font-family="Times,serif" font-size="14.00">fg 0.033</text>
<polyline fill="none" stroke="black" points="123,-0.5 123,-36.5 "/>
<text text-anchor="middle" x="142" y="-14.8" font-family="Times,serif" font-size="14.00">t 20</text>
</g>
<!-- root_and&#45;&gt;uid_baz -->
<g id="edge1" class="edge"><title>root_and&#45;&gt;uid_baz</title>
<path fill="none" stroke="black" d="M229.386,-79.5618C203.607,-69.1626 164.156,-53.2477 132.34,-40.4126"/>
<polygon fill="black" stroke="black" points="133.317,-37.033 122.734,-36.5377 130.699,-43.5247 133.317,-37.033"/>
</g>
<!-- cn_bar -->
<g id="node3" class="node"><title>cn_bar</title>
<polygon fill="none" stroke="black" points="179,-0.5 179,-36.5 334,-36.5 334,-0.5 179,-0.5"/>
<text text-anchor="middle" x="206.5" y="-14.8" font-family="Times,serif" font-size="14.00">cn=bar</text>
<polyline fill="none" stroke="black" points="234,-0.5 234,-36.5 "/>
<text text-anchor="middle" x="265" y="-14.8" font-family="Times,serif" font-size="14.00">fg 0.093</text>
<polyline fill="none" stroke="black" points="296,-0.5 296,-36.5 "/>
<text text-anchor="middle" x="315" y="-14.8" font-family="Times,serif" font-size="14.00">t 30</text>
</g>
<!-- root_and&#45;&gt;cn_bar -->
<g id="edge2" class="edge"><title>root_and&#45;&gt;cn_bar</title>
<path fill="none" stroke="black" d="M256.5,-73.3129C256.5,-65.2895 256.5,-55.5475 256.5,-46.5691"/>
<polygon fill="black" stroke="black" points="260,-46.5288 256.5,-36.5288 253,-46.5289 260,-46.5288"/>
</g>
<!-- oc_foo -->
<g id="node4" class="node"><title>oc_foo</title>
<polygon fill="none" stroke="black" points="352,-0.5 352,-36.5 557,-36.5 557,-0.5 352,-0.5"/>
<text text-anchor="middle" x="404.5" y="-14.8" font-family="Times,serif" font-size="14.00">objectClass=foo</text>
<polyline fill="none" stroke="black" points="457,-0.5 457,-36.5 "/>
<text text-anchor="middle" x="488" y="-14.8" font-family="Times,serif" font-size="14.00">fg 0.066</text>
<polyline fill="none" stroke="black" points="519,-0.5 519,-36.5 "/>
<text text-anchor="middle" x="538" y="-14.8" font-family="Times,serif" font-size="14.00">t 40</text>
</g>
<!-- root_and&#45;&gt;oc_foo -->
<g id="edge3" class="edge"><title>root_and&#45;&gt;oc_foo</title>
<path fill="none" stroke="black" d="M283.616,-80.7766C312.686,-70.3525 359.697,-53.4949 397.06,-40.0973"/>
<polygon fill="black" stroke="black" points="398.593,-43.2656 406.825,-36.5956 396.231,-36.6764 398.593,-43.2656"/>
</g>
</g>
</svg>
