<?xml version="1.0" encoding="UTF-8" standalone="no"?>
<!DOCTYPE svg PUBLIC "-//W3C//DTD SVG 1.1//EN"
 "http://www.w3.org/Graphics/SVG/1.1/DTD/svg11.dtd">
<!-- Generated by graphviz version 2.38.0 (20140413.2041)
 -->
<!-- Title: FilterBasic Pages: 1 -->
<svg width="496pt" height="118pt"
 viewBox="0.00 0.00 496.00 118.00" xmlns="http://www.w3.org/2000/svg" xmlns:xlink="http://www.w3.org/1999/xlink">
<g id="graph0" class="graph" transform="scale(1 1) rotate(0) translate(4 114)">
<title>FilterBasic</title>
<polygon fill="white" stroke="none" points="-4,4 -4,-114 492,-114 492,4 -4,4"/>
<!-- root_and -->
<g id="node1" class="node"><title>root_and</title>
<polygon fill="none" stroke="black" points="195,-73.5 195,-109.5 249,-109.5 249,-73.5 195,-73.5"/>
<text text-anchor="middle" x="222" y="-87.8" font-family="Times,serif" font-size="14.00">&amp;</text>
</g>
<!-- uid_baz -->
<g id="node2" class="node"><title>uid_baz</title>
<polygon fill="none" stroke="black" points="0,-0.5 0,-36.5 140,-36.5 140,-0.5 0,-0.5"/>
<text text-anchor="middle" x="30.5" y="-14.8" font-family="Times,serif" font-size="14.00">uid=baz</text>
<polyline fill="none" stroke="black" points="61,-0.5 61,-36.5 "/>
<text text-anchor="middle" x="80" y="-14.8" font-family="Times,serif" font-size="14.00">t 20</text>
<polyline fill="none" stroke="black" points="99,-0.5 99,-36.5 "/>
<text text-anchor="middle" x="119.5" y="-14.8" font-family="Times,serif" font-size="14.00">u 15</text>
</g>
<!-- root_and&#45;&gt;uid_baz -->
<g id="edge1" class="edge"><title>root_and&#45;&gt;uid_baz</title>
<path fill="none" stroke="black" d="M194.825,-77.8066C172.922,-67.5756 141.637,-52.962 115.867,-40.9246"/>
<polygon fill="black" stroke="black" points="117.191,-37.6803 106.65,-36.6192 114.229,-44.0225 117.191,-37.6803"/>
</g>
<!-- cn_bar -->
<g id="node3" class="node"><title>cn_bar</title>
<polygon fill="none" stroke="black" points="158.5,-0.5 158.5,-36.5 285.5,-36.5 285.5,-0.5 158.5,-0.5"/>
<text text-anchor="middle" x="186" y="-14.8" font-family="Times,serif" font-size="14.00">cn=bar</text>
<polyline fill="none" stroke="black" points="213.5,-0.5 213.5,-36.5 "/>
<text text-anchor="middle" x="232.5" y="-14.8" font-family="Times,serif" font-size="14.00">t 30</text>
<polyline fill="none" stroke="black" points="251.5,-0.5 251.5,-36.5 "/>
<text text-anchor="middle" x="268.5" y="-14.8" font-family="Times,serif" font-size="14.00">u 8</text>
</g>
<!-- root_and&#45;&gt;cn_bar -->
<g id="edge2" class="edge"><title>root_and&#45;&gt;cn_bar</title>
<path fill="none" stroke="black" d="M222,-73.3129C222,-65.2895 222,-55.5475 222,-46.5691"/>
<polygon fill="black" stroke="black" points="225.5,-46.5288 222,-36.5288 218.5,-46.5289 225.5,-46.5288"/>
</g>
<!-- oc_foo -->
<g id="node4" class="node"><title>oc_foo</title>
<polygon fill="none" stroke="black" points="304,-0.5 304,-36.5 488,-36.5 488,-0.5 304,-0.5"/>
<text text-anchor="middle" x="356.5" y="-14.8" font-family="Times,serif" font-size="14.00">objectClass=foo</text>
<polyline fill="none" stroke="black" points="409,-0.5 409,-36.5 "/>
<text text-anchor="middle" x="428" y="-14.8" font-family="Times,serif" font-size="14.00">t 40</text>
<polyline fill="none" stroke="black" points="447,-0.5 447,-36.5 "/>
<text text-anchor="middle" x="467.5" y="-14.8" font-family="Times,serif" font-size="14.00">u 15</text>
</g>
<!-- root_and&#45;&gt;oc_foo -->
<g id="edge3" class="edge"><title>root_and&#45;&gt;oc_foo</title>
<path fill="none" stroke="black" d="M249.188,-79.4062C274.654,-69.0148 313.373,-53.2158 344.655,-40.4513"/>
<polygon fill="black" stroke="black" points="346.165,-43.6153 354.101,-36.5966 343.52,-37.1341 346.165,-43.6153"/>
</g>
</g>
</svg>
