<?xml version="1.0" encoding="UTF-8" standalone="no"?>
<!DOCTYPE svg PUBLIC "-//W3C//DTD SVG 1.1//EN"
 "http://www.w3.org/Graphics/SVG/1.1/DTD/svg11.dtd">
<!-- Generated by graphviz version 2.30.1 (20140821.0912)
 -->
<!-- Title: FilterBasic Pages: 1 -->
<svg width="564pt" height="120pt"
 viewBox="0.00 0.00 564.00 120.00" xmlns="http://www.w3.org/2000/svg" xmlns:xlink="http://www.w3.org/1999/xlink">
<g id="graph0" class="graph" transform="scale(1 1) rotate(0) translate(4 116)">
<title>FilterBasic</title>
<polygon fill="white" stroke="white" points="-4,5 -4,-116 561,-116 561,5 -4,5"/>
<!-- root_and -->
<g id="node1" class="node"><title>root_and</title>
<polygon fill="none" stroke="black" points="229,-75 229,-111 283,-111 283,-75 229,-75"/>
<text text-anchor="middle" x="256" y="-89.3" font-family="Times,serif" font-size="14.00">&amp;</text>
</g>
<!-- uid_baz -->
<g id="node2" class="node"><title>uid_baz</title>
<polygon fill="none" stroke="black" points="-0.5,-1 -0.5,-37 160.5,-37 160.5,-1 -0.5,-1"/>
<text text-anchor="middle" x="30" y="-15.3" font-family="Times,serif" font-size="14.00">uid=baz</text>
<polyline fill="none" stroke="black" points="60.5,-1 60.5,-37 "/>
<text text-anchor="middle" x="91.5" y="-15.3" font-family="Times,serif" font-size="14.00">fg 0.033</text>
<polyline fill="none" stroke="black" points="122.5,-1 122.5,-37 "/>
<text text-anchor="middle" x="141.5" y="-15.3" font-family="Times,serif" font-size="14.00">t 20</text>
</g>
<!-- root_and&#45;&gt;uid_baz -->
<g id="edge1" class="edge"><title>root_and&#45;&gt;uid_baz</title>
<path fill="none" stroke="black" d="M228.886,-80.9078C202.932,-70.2905 163.121,-54.0039 131.194,-40.9428"/>
<polygon fill="black" stroke="black" points="132.143,-37.5498 121.562,-37.0028 129.493,-44.0286 132.143,-37.5498"/>
</g>
<!-- cn_bar -->
<g id="node3" class="node"><title>cn_bar</title>
<polygon fill="none" stroke="black" points="178.5,-1 178.5,-37 333.5,-37 333.5,-1 178.5,-1"/>
<text text-anchor="middle" x="206" y="-15.3" font-family="Times,serif" font-size="14.00">cn=bar</text>
<polyline fill="none" stroke="black" points="233.5,-1 233.5,-37 "/>
<text text-anchor="middle" x="264.5" y="-15.3" font-family="Times,serif" font-size="14.00">fg 0.093</text>
<polyline fill="none" stroke="black" points="295.5,-1 295.5,-37 "/>
<text text-anchor="middle" x="314.5" y="-15.3" font-family="Times,serif" font-size="14.00">t 30</text>
</g>
<!-- root_and&#45;&gt;cn_bar -->
<g id="edge2" class="edge"><title>root_and&#45;&gt;cn_bar</title>
<path fill="none" stroke="black" d="M256,-74.937C256,-66.8072 256,-56.8761 256,-47.7047"/>
<polygon fill="black" stroke="black" points="259.5,-47.4406 256,-37.4407 252.5,-47.4407 259.5,-47.4406"/>
</g>
<!-- oc_foo -->
<g id="node4" class="node"><title>oc_foo</title>
<polygon fill="none" stroke="black" points="351.5,-1 351.5,-37 556.5,-37 556.5,-1 351.5,-1"/>
<text text-anchor="middle" x="404" y="-15.3" font-family="Times,serif" font-size="14.00">objectClass=foo</text>
<polyline fill="none" stroke="black" points="456.5,-1 456.5,-37 "/>
<text text-anchor="middle" x="487.5" y="-15.3" font-family="Times,serif" font-size="14.00">fg 0.066</text>
<polyline fill="none" stroke="black" points="518.5,-1 518.5,-37 "/>
<text text-anchor="middle" x="537.5" y="-15.3" font-family="Times,serif" font-size="14.00">t 40</text>
</g>
<!-- root_and&#45;&gt;oc_foo -->
<g id="edge3" class="edge"><title>root_and&#45;&gt;oc_foo</title>
<path fill="none" stroke="black" d="M283.116,-82.1397C312.38,-71.498 359.827,-54.2448 397.308,-40.6153"/>
<polygon fill="black" stroke="black" points="398.896,-43.7623 407.097,-37.0555 396.503,-37.1837 398.896,-43.7623"/>
</g>
</g>
</svg>
