<?xml version="1.0" encoding="UTF-8" standalone="no"?>
<!DOCTYPE svg PUBLIC "-//W3C//DTD SVG 1.1//EN"
 "http://www.w3.org/Graphics/SVG/1.1/DTD/svg11.dtd">
<!-- Generated by graphviz version 2.38.0 (20140413.2041)
 -->
<!-- Title: FilterBasic Pages: 1 -->
<svg width="265pt" height="118pt"
 viewBox="0.00 0.00 265.00 118.00" xmlns="http://www.w3.org/2000/svg" xmlns:xlink="http://www.w3.org/1999/xlink">
<g id="graph0" class="graph" transform="scale(1 1) rotate(0) translate(4 114)">
<title>FilterBasic</title>
<polygon fill="white" stroke="none" points="-4,4 -4,-114 261,-114 261,4 -4,4"/>
<!-- root_and -->
<g id="node1" class="node"><title>root_and</title>
<polygon fill="none" stroke="black" points="79.5,-73.5 79.5,-109.5 133.5,-109.5 133.5,-73.5 79.5,-73.5"/>
<text text-anchor="middle" x="106.5" y="-87.8" font-family="Times,serif" font-size="14.00">&amp;</text>
</g>
<!-- uid_baz -->
<g id="node2" class="node"><title>uid_baz</title>
<polygon fill="none" stroke="black" points="0,-0.5 0,-36.5 61,-36.5 61,-0.5 0,-0.5"/>
<text text-anchor="middle" x="30.5" y="-14.8" font-family="Times,serif" font-size="14.00">uid=baz</text>
</g>
<!-- root_and&#45;&gt;uid_baz -->
<g id="edge1" class="edge"><title>root_and&#45;&gt;uid_baz</title>
<path fill="none" stroke="black" d="M88.1025,-73.3129C78.4872,-64.3302 66.5661,-53.1933 56.0677,-43.3856"/>
<polygon fill="black" stroke="black" points="58.4248,-40.7979 48.7281,-36.5288 53.6461,-45.9131 58.4248,-40.7979"/>
</g>
<!-- cn_bar -->
<g id="node3" class="node"><title>cn_bar</title>
<polygon fill="none" stroke="black" points="79,-0.5 79,-36.5 134,-36.5 134,-0.5 79,-0.5"/>
<text text-anchor="middle" x="106.5" y="-14.8" font-family="Times,serif" font-size="14.00">cn=bar</text>
</g>
<!-- root_and&#45;&gt;cn_bar -->
<g id="edge2" class="edge"><title>root_and&#45;&gt;cn_bar</title>
<path fill="none" stroke="black" d="M106.5,-73.3129C106.5,-65.2895 106.5,-55.5475 106.5,-46.5691"/>
<polygon fill="black" stroke="black" points="110,-46.5288 106.5,-36.5288 103,-46.5289 110,-46.5288"/>
</g>
<!-- oc_foo -->
<g id="node4" class="node"><title>oc_foo</title>
<polygon fill="none" stroke="black" points="152,-0.5 152,-36.5 257,-36.5 257,-0.5 152,-0.5"/>
<text text-anchor="middle" x="204.5" y="-14.8" font-family="Times,serif" font-size="14.00">objectClass=foo</text>
</g>
<!-- root_and&#45;&gt;oc_foo -->
<g id="edge3" class="edge"><title>root_and&#45;&gt;oc_foo</title>
<path fill="none" stroke="black" d="M130.223,-73.3129C142.983,-64.0685 158.892,-52.5427 172.709,-42.5321"/>
<polygon fill="black" stroke="black" points="174.951,-45.2302 180.995,-36.5288 170.844,-39.5615 174.951,-45.2302"/>
</g>
</g>
</svg>
