<?xml version="1.0" encoding="UTF-8" standalone="no"?>
<!DOCTYPE svg PUBLIC "-//W3C//DTD SVG 1.1//EN"
 "http://www.w3.org/Graphics/SVG/1.1/DTD/svg11.dtd">
<!-- Generated by graphviz version 2.30.1 (20140821.0912)
 -->
<!-- Title: FilterComplex Pages: 1 -->
<svg width="455pt" height="194pt"
 viewBox="0.00 0.00 455.00 194.00" xmlns="http://www.w3.org/2000/svg" xmlns:xlink="http://www.w3.org/1999/xlink">
<g id="graph0" class="graph" transform="scale(1 1) rotate(0) translate(4 190)">
<title>FilterComplex</title>
<polygon fill="white" stroke="white" points="-4,5 -4,-190 452,-190 452,5 -4,5"/>
<!-- root_and -->
<g id="node1" class="node"><title>root_and</title>
<polygon fill="none" stroke="black" points="234,-149 234,-185 288,-185 288,-149 234,-149"/>
<text text-anchor="middle" x="261" y="-163.3" font-family="Times,serif" font-size="14.00">&amp;</text>
</g>
<!-- child_or1 -->
<g id="node2" class="node"><title>child_or1</title>
<polygon fill="none" stroke="black" points="90,-75 90,-111 144,-111 144,-75 90,-75"/>
<text text-anchor="middle" x="117" y="-89.3" font-family="Times,serif" font-size="14.00">|</text>
</g>
<!-- root_and&#45;&gt;child_or1 -->
<g id="edge1" class="edge"><title>root_and&#45;&gt;child_or1</title>
<path fill="none" stroke="black" d="M233.915,-152.457C211.231,-141.115 178.643,-124.822 153.632,-112.316"/>
<polygon fill="black" stroke="black" points="154.963,-109.068 144.453,-107.727 151.832,-115.329 154.963,-109.068"/>
</g>
<!-- child_not1 -->
<g id="node6" class="node"><title>child_not1</title>
<polygon fill="none" stroke="black" points="198,-75 198,-111 252,-111 252,-75 198,-75"/>
<text text-anchor="middle" x="225" y="-89.3" font-family="Times,serif" font-size="14.00">!</text>
</g>
<!-- root_and&#45;&gt;child_not1 -->
<g id="edge2" class="edge"><title>root_and&#45;&gt;child_not1</title>
<path fill="none" stroke="black" d="M252.469,-148.937C248.227,-140.454 243.005,-130.009 238.256,-120.513"/>
<polygon fill="black" stroke="black" points="241.323,-118.82 233.72,-111.441 235.062,-121.95 241.323,-118.82"/>
</g>
<!-- sn_pres -->
<g id="node8" class="node"><title>sn_pres</title>
<polygon fill="none" stroke="black" points="270,-75 270,-111 324,-111 324,-75 270,-75"/>
<text text-anchor="middle" x="297" y="-89.3" font-family="Times,serif" font-size="14.00">sn=*</text>
</g>
<!-- root_and&#45;&gt;sn_pres -->
<g id="edge3" class="edge"><title>root_and&#45;&gt;sn_pres</title>
<path fill="none" stroke="black" d="M269.531,-148.937C273.773,-140.454 278.995,-130.009 283.744,-120.513"/>
<polygon fill="black" stroke="black" points="286.938,-121.95 288.28,-111.441 280.677,-118.82 286.938,-121.95"/>
</g>
<!-- oc_foo -->
<g id="node9" class="node"><title>oc_foo</title>
<polygon fill="none" stroke="black" points="342.5,-75 342.5,-111 447.5,-111 447.5,-75 342.5,-75"/>
<text text-anchor="middle" x="395" y="-89.3" font-family="Times,serif" font-size="14.00">objectClass=foo</text>
</g>
<!-- root_and&#45;&gt;oc_foo -->
<g id="edge4" class="edge"><title>root_and&#45;&gt;oc_foo</title>
<path fill="none" stroke="black" d="M288.117,-151.43C307.121,-141.219 332.856,-127.391 354.311,-115.863"/>
<polygon fill="black" stroke="black" points="356.06,-118.896 363.212,-111.08 352.746,-112.73 356.06,-118.896"/>
</g>
<!-- uid_a -->
<g id="node3" class="node"><title>uid_a</title>
<polygon fill="none" stroke="black" points="0,-1 0,-37 54,-37 54,-1 0,-1"/>
<text text-anchor="middle" x="27" y="-15.3" font-family="Times,serif" font-size="14.00">uid=a</text>
</g>
<!-- child_or1&#45;&gt;uid_a -->
<g id="edge5" class="edge"><title>child_or1&#45;&gt;uid_a</title>
<path fill="none" stroke="black" d="M95.6713,-74.937C83.9877,-65.5902 69.3281,-53.8625 56.557,-43.6456"/>
<polygon fill="black" stroke="black" points="58.4827,-40.704 48.4875,-37.19 54.1098,-46.1701 58.4827,-40.704"/>
</g>
<!-- uid_b -->
<g id="node4" class="node"><title>uid_b</title>
<polygon fill="none" stroke="black" points="72,-1 72,-37 126,-37 126,-1 72,-1"/>
<text text-anchor="middle" x="99" y="-15.3" font-family="Times,serif" font-size="14.00">uid=b</text>
</g>
<!-- child_or1&#45;&gt;uid_b -->
<g id="edge6" class="edge"><title>child_or1&#45;&gt;uid_b</title>
<path fill="none" stroke="black" d="M112.734,-74.937C110.68,-66.7188 108.165,-56.66 105.851,-47.4059"/>
<polygon fill="black" stroke="black" points="109.181,-46.2932 103.36,-37.4407 102.39,-47.991 109.181,-46.2932"/>
</g>
<!-- uid_c -->
<g id="node5" class="node"><title>uid_c</title>
<polygon fill="none" stroke="black" points="144,-1 144,-37 198,-37 198,-1 144,-1"/>
<text text-anchor="middle" x="171" y="-15.3" font-family="Times,serif" font-size="14.00">uid=c</text>
</g>
<!-- child_or1&#45;&gt;uid_c -->
<g id="edge7" class="edge"><title>child_or1&#45;&gt;uid_c</title>
<path fill="none" stroke="black" d="M129.797,-74.937C136.359,-66.1886 144.484,-55.3545 151.781,-45.6256"/>
<polygon fill="black" stroke="black" points="154.719,-47.5407 157.919,-37.4407 149.119,-43.3407 154.719,-47.5407"/>
</g>
<!-- cn_bar -->
<g id="node7" class="node"><title>cn_bar</title>
<polygon fill="none" stroke="black" points="216.5,-1 216.5,-37 271.5,-37 271.5,-1 216.5,-1"/>
<text text-anchor="middle" x="244" y="-15.3" font-family="Times,serif" font-size="14.00">cn=bar</text>
</g>
<!-- child_not1&#45;&gt;cn_bar -->
<g id="edge8" class="edge"><title>child_not1&#45;&gt;cn_bar</title>
<path fill="none" stroke="black" d="M229.503,-74.937C231.671,-66.7188 234.326,-56.66 236.768,-47.4059"/>
<polygon fill="black" stroke="black" points="240.23,-48.0027 239.398,-37.4407 233.462,-46.2166 240.23,-48.0027"/>
</g>
</g>
</svg>
