<?xml version="1.0" encoding="UTF-8" standalone="no"?>
<!DOCTYPE svg PUBLIC "-//W3C//DTD SVG 1.1//EN"
 "http://www.w3.org/Graphics/SVG/1.1/DTD/svg11.dtd">
<!-- Generated by graphviz version 2.38.0 (20140413.2041)
 -->
<!-- Title: FilterComplex Pages: 1 -->
<svg width="456pt" height="191pt"
 viewBox="0.00 0.00 455.50 191.00" xmlns="http://www.w3.org/2000/svg" xmlns:xlink="http://www.w3.org/1999/xlink">
<g id="graph0" class="graph" transform="scale(1 1) rotate(0) translate(4 187)">
<title>FilterComplex</title>
<polygon fill="white" stroke="none" points="-4,4 -4,-187 451.5,-187 451.5,4 -4,4"/>
<!-- root_and -->
<g id="node1" class="node"><title>root_and</title>
<polygon fill="none" stroke="black" points="234,-146.5 234,-182.5 288,-182.5 288,-146.5 234,-146.5"/>
<text text-anchor="middle" x="261" y="-160.8" font-family="Times,serif" font-size="14.00">&amp;</text>
</g>
<!-- child_or1 -->
<g id="node2" class="node"><title>child_or1</title>
<polygon fill="none" stroke="black" points="90,-73.5 90,-109.5 144,-109.5 144,-73.5 90,-73.5"/>
<text text-anchor="middle" x="117" y="-87.8" font-family="Times,serif" font-size="14.00">|</text>
</g>
<!-- root_and&#45;&gt;child_or1 -->
<g id="edge1" class="edge"><title>root_and&#45;&gt;child_or1</title>
<path fill="none" stroke="black" d="M233.915,-150.145C211.231,-138.961 178.643,-122.894 153.632,-110.562"/>
<polygon fill="black" stroke="black" points="154.97,-107.319 144.453,-106.036 151.875,-113.598 154.97,-107.319"/>
</g>
<!-- child_not1 -->
<g id="node6" class="node"><title>child_not1</title>
<polygon fill="none" stroke="black" points="198,-73.5 198,-109.5 252,-109.5 252,-73.5 198,-73.5"/>
<text text-anchor="middle" x="225" y="-87.8" font-family="Times,serif" font-size="14.00">!</text>
</g>
<!-- root_and&#45;&gt;child_not1 -->
<g id="edge2" class="edge"><title>root_and&#45;&gt;child_not1</title>
<path fill="none" stroke="black" d="M252.285,-146.313C248.085,-138.028 242.955,-127.91 238.281,-118.693"/>
<polygon fill="black" stroke="black" points="241.278,-116.865 233.634,-109.529 235.035,-120.031 241.278,-116.865"/>
</g>
<!-- sn_pres -->
<g id="node8" class="node"><title>sn_pres</title>
<polygon fill="none" stroke="black" points="270,-73.5 270,-109.5 324,-109.5 324,-73.5 270,-73.5"/>
<text text-anchor="middle" x="297" y="-87.8" font-family="Times,serif" font-size="14.00">sn=*</text>
</g>
<!-- root_and&#45;&gt;sn_pres -->
<g id="edge3" class="edge"><title>root_and&#45;&gt;sn_pres</title>
<path fill="none" stroke="black" d="M269.715,-146.313C273.915,-138.028 279.045,-127.91 283.719,-118.693"/>
<polygon fill="black" stroke="black" points="286.965,-120.031 288.366,-109.529 280.722,-116.865 286.965,-120.031"/>
</g>
<!-- oc_foo -->
<g id="node9" class="node"><title>oc_foo</title>
<polygon fill="none" stroke="black" points="342.5,-73.5 342.5,-109.5 447.5,-109.5 447.5,-73.5 342.5,-73.5"/>
<text text-anchor="middle" x="395" y="-87.8" font-family="Times,serif" font-size="14.00">objectClass=foo</text>
</g>
<!-- root_and&#45;&gt;oc_foo -->
<g id="edge4" class="edge"><title>root_and&#45;&gt;oc_foo</title>
<path fill="none" stroke="black" d="M288.117,-149.132C306.987,-139.134 332.494,-125.619 353.857,-114.3"/>
<polygon fill="black" stroke="black" points="355.53,-117.374 362.728,-109.599 352.253,-111.189 355.53,-117.374"/>
</g>
<!-- uid_a -->
<g id="node3" class="node"><title>uid_a</title>
<polygon fill="none" stroke="black" points="0,-0.5 0,-36.5 54,-36.5 54,-0.5 0,-0.5"/>
<text text-anchor="middle" x="27" y="-14.8" font-family="Times,serif" font-size="14.00">uid=a</text>
</g>
<!-- child_or1&#45;&gt;uid_a -->
<g id="edge5" class="edge"><title>child_or1&#45;&gt;uid_a</title>
<path fill="none" stroke="black" d="M95.2135,-73.3129C83.6059,-64.1558 69.1606,-52.76 56.5553,-42.8158"/>
<polygon fill="black" stroke="black" points="58.6047,-39.9746 48.5859,-36.5288 54.2692,-45.4704 58.6047,-39.9746"/>
</g>
<!-- uid_b -->
<g id="node4" class="node"><title>uid_b</title>
<polygon fill="none" stroke="black" points="72,-0.5 72,-36.5 126,-36.5 126,-0.5 72,-0.5"/>
<text text-anchor="middle" x="99" y="-14.8" font-family="Times,serif" font-size="14.00">uid=b</text>
</g>
<!-- child_or1&#45;&gt;uid_b -->
<g id="edge6" class="edge"><title>child_or1&#45;&gt;uid_b</title>
<path fill="none" stroke="black" d="M112.643,-73.3129C110.586,-65.2023 108.085,-55.3355 105.788,-46.2766"/>
<polygon fill="black" stroke="black" points="109.167,-45.362 103.317,-36.5288 102.382,-47.0823 109.167,-45.362"/>
</g>
<!-- uid_c -->
<g id="node5" class="node"><title>uid_c</title>
<polygon fill="none" stroke="black" points="144,-0.5 144,-36.5 198,-36.5 198,-0.5 144,-0.5"/>
<text text-anchor="middle" x="171" y="-14.8" font-family="Times,serif" font-size="14.00">uid=c</text>
</g>
<!-- child_or1&#45;&gt;uid_c -->
<g id="edge7" class="edge"><title>child_or1&#45;&gt;uid_c</title>
<path fill="none" stroke="black" d="M130.072,-73.3129C136.638,-64.679 144.719,-54.0551 151.96,-44.5341"/>
<polygon fill="black" stroke="black" points="154.781,-46.6071 158.048,-36.5288 149.209,-42.3695 154.781,-46.6071"/>
</g>
<!-- cn_bar -->
<g id="node7" class="node"><title>cn_bar</title>
<polygon fill="none" stroke="black" points="216.5,-0.5 216.5,-36.5 271.5,-36.5 271.5,-0.5 216.5,-0.5"/>
<text text-anchor="middle" x="244" y="-14.8" font-family="Times,serif" font-size="14.00">cn=bar</text>
</g>
<!-- child_not1&#45;&gt;cn_bar -->
<g id="edge8" class="edge"><title>child_not1&#45;&gt;cn_bar</title>
<path fill="none" stroke="black" d="M229.599,-73.3129C231.77,-65.2023 234.41,-55.3355 236.834,-46.2766"/>
<polygon fill="black" stroke="black" points="240.239,-47.0937 239.443,-36.5288 233.477,-45.2841 240.239,-47.0937"/>
</g>
</g>
</svg>
