<?xml version="1.0" encoding="UTF-8" standalone="no"?>
<!DOCTYPE svg PUBLIC "-//W3C//DTD SVG 1.1//EN"
 "http://www.w3.org/Graphics/SVG/1.1/DTD/svg11.dtd">
<!-- Generated by graphviz version 2.38.0 (20140413.2041)
 -->
<!-- Title: FilterComplex Pages: 1 -->
<svg width="971pt" height="191pt"
 viewBox="0.00 0.00 970.50 191.00" xmlns="http://www.w3.org/2000/svg" xmlns:xlink="http://www.w3.org/1999/xlink">
<g id="graph0" class="graph" transform="scale(1 1) rotate(0) translate(4 187)">
<title>FilterComplex</title>
<polygon fill="white" stroke="none" points="-4,4 -4,-187 966.5,-187 966.5,4 -4,4"/>
<!-- root_and -->
<g id="node1" class="node"><title>root_and</title>
<polygon fill="none" stroke="black" points="538,-146.5 538,-182.5 666,-182.5 666,-146.5 538,-146.5"/>
<text text-anchor="middle" x="552" y="-160.8" font-family="Times,serif" font-size="14.00">&amp;</text>
<polyline fill="none" stroke="black" points="566,-146.5 566,-182.5 "/>
<text text-anchor="middle" x="597" y="-160.8" font-family="Times,serif" font-size="14.00">fg 0.975</text>
<polyline fill="none" stroke="black" points="628,-146.5 628,-182.5 "/>
<text text-anchor="middle" x="647" y="-160.8" font-family="Times,serif" font-size="14.00">t 90</text>
</g>
<!-- child_or1 -->
<g id="node2" class="node"><title>child_or1</title>
<polygon fill="none" stroke="black" points="230,-73.5 230,-109.5 350,-109.5 350,-73.5 230,-73.5"/>
<text text-anchor="middle" x="240" y="-87.8" font-family="Times,serif" font-size="14.00">|</text>
<polyline fill="none" stroke="black" points="250,-73.5 250,-109.5 "/>
<text text-anchor="middle" x="281" y="-87.8" font-family="Times,serif" font-size="14.00">fg 0.075</text>
<polyline fill="none" stroke="black" points="312,-73.5 312,-109.5 "/>
<text text-anchor="middle" x="331" y="-87.8" font-family="Times,serif" font-size="14.00">t 90</text>
</g>
<!-- root_and&#45;&gt;child_or1 -->
<g id="edge1" class="edge"><title>root_and&#45;&gt;child_or1</title>
<path fill="none" stroke="black" d="M537.732,-148.875C486.031,-137.11 413.483,-120.6 360.256,-108.488"/>
<polygon fill="black" stroke="black" points="360.743,-105.009 350.216,-106.203 359.19,-111.835 360.743,-105.009"/>
</g>
<!-- child_not1 -->
<g id="node6" class="node"><title>child_not1</title>
<polygon fill="none" stroke="black" points="467.5,-73.5 467.5,-109.5 588.5,-109.5 588.5,-73.5 467.5,-73.5"/>
<text text-anchor="middle" x="478" y="-87.8" font-family="Times,serif" font-size="14.00">!</text>
<polyline fill="none" stroke="black" points="488.5,-73.5 488.5,-109.5 "/>
<text text-anchor="middle" x="519.5" y="-87.8" font-family="Times,serif" font-size="14.00">fg 0.975</text>
<polyline fill="none" stroke="black" points="550.5,-73.5 550.5,-109.5 "/>
<text text-anchor="middle" x="569.5" y="-87.8" font-family="Times,serif" font-size="14.00">t 40</text>
</g>
<!-- root_and&#45;&gt;child_not1 -->
<g id="edge2" class="edge"><title>root_and&#45;&gt;child_not1</title>
<path fill="none" stroke="black" d="M584.087,-146.313C574.815,-137.417 563.342,-126.409 553.193,-116.672"/>
<polygon fill="black" stroke="black" points="555.387,-113.927 545.748,-109.529 550.541,-118.978 555.387,-113.927"/>
</g>
<!-- sn_pres -->
<g id="node8" class="node"><title>sn_pres</title>
<polygon fill="none" stroke="black" points="607,-73.5 607,-109.5 745,-109.5 745,-73.5 607,-73.5"/>
<text text-anchor="middle" x="629" y="-87.8" font-family="Times,serif" font-size="14.00">sn=*</text>
<polyline fill="none" stroke="black" points="651,-73.5 651,-109.5 "/>
<text text-anchor="middle" x="679" y="-87.8" font-family="Times,serif" font-size="14.00">fg 0.75</text>
<polyline fill="none" stroke="black" points="707,-73.5 707,-109.5 "/>
<text text-anchor="middle" x="726" y="-87.8" font-family="Times,serif" font-size="14.00">t 30</text>
</g>
<!-- root_and&#45;&gt;sn_pres -->
<g id="edge3" class="edge"><title>root_and&#45;&gt;sn_pres</title>
<path fill="none" stroke="black" d="M619.913,-146.313C629.185,-137.417 640.658,-126.409 650.807,-116.672"/>
<polygon fill="black" stroke="black" points="653.459,-118.978 658.252,-109.529 648.613,-113.927 653.459,-118.978"/>
</g>
<!-- oc_foo -->
<g id="node9" class="node"><title>oc_foo</title>
<polygon fill="none" stroke="black" points="763.5,-73.5 763.5,-109.5 962.5,-109.5 962.5,-73.5 763.5,-73.5"/>
<text text-anchor="middle" x="816" y="-87.8" font-family="Times,serif" font-size="14.00">objectClass=foo</text>
<polyline fill="none" stroke="black" points="868.5,-73.5 868.5,-109.5 "/>
<text text-anchor="middle" x="896.5" y="-87.8" font-family="Times,serif" font-size="14.00">fg 0.05</text>
<polyline fill="none" stroke="black" points="924.5,-73.5 924.5,-109.5 "/>
<text text-anchor="middle" x="943.5" y="-87.8" font-family="Times,serif" font-size="14.00">t 40</text>
</g>
<!-- root_and&#45;&gt;oc_foo -->
<g id="edge4" class="edge"><title>root_and&#45;&gt;oc_foo</title>
<path fill="none" stroke="black" d="M664.516,-146.494C702.332,-136.207 750.714,-123.045 790.242,-112.292"/>
<polygon fill="black" stroke="black" points="791.359,-115.616 800.09,-109.614 789.521,-108.861 791.359,-115.616"/>
</g>
<!-- uid_a -->
<g id="node3" class="node"><title>uid_a</title>
<polygon fill="none" stroke="black" points="0,-0.5 0,-36.5 148,-36.5 148,-0.5 0,-0.5"/>
<text text-anchor="middle" x="24" y="-14.8" font-family="Times,serif" font-size="14.00">uid=a</text>
<polyline fill="none" stroke="black" points="48,-0.5 48,-36.5 "/>
<text text-anchor="middle" x="79" y="-14.8" font-family="Times,serif" font-size="14.00">fg 0.025</text>
<polyline fill="none" stroke="black" points="110,-0.5 110,-36.5 "/>
<text text-anchor="middle" x="129" y="-14.8" font-family="Times,serif" font-size="14.00">t 30</text>
</g>
<!-- child_or1&#45;&gt;uid_a -->
<g id="edge5" class="edge"><title>child_or1&#45;&gt;uid_a</title>
<path fill="none" stroke="black" d="M238.263,-73.4937C207.497,-63.3811 168.281,-50.4906 135.883,-39.8411"/>
<polygon fill="black" stroke="black" points="136.657,-36.4113 126.064,-36.6136 134.471,-43.0613 136.657,-36.4113"/>
</g>
<!-- uid_b -->
<g id="node4" class="node"><title>uid_b</title>
<polygon fill="none" stroke="black" points="166.5,-0.5 166.5,-36.5 315.5,-36.5 315.5,-0.5 166.5,-0.5"/>
<text text-anchor="middle" x="191" y="-14.8" font-family="Times,serif" font-size="14.00">uid=b</text>
<polyline fill="none" stroke="black" points="215.5,-0.5 215.5,-36.5 "/>
<text text-anchor="middle" x="246.5" y="-14.8" font-family="Times,serif" font-size="14.00">fg 0.025</text>
<polyline fill="none" stroke="black" points="277.5,-0.5 277.5,-36.5 "/>
<text text-anchor="middle" x="296.5" y="-14.8" font-family="Times,serif" font-size="14.00">t 30</text>
</g>
<!-- child_or1&#45;&gt;uid_b -->
<g id="edge6" class="edge"><title>child_or1&#45;&gt;uid_b</title>
<path fill="none" stroke="black" d="M278.138,-73.3129C272.24,-64.7662 264.996,-54.2695 258.476,-44.8229"/>
<polygon fill="black" stroke="black" points="261.313,-42.7711 252.752,-36.5288 255.552,-46.7471 261.313,-42.7711"/>
</g>
<!-- uid_c -->
<g id="node5" class="node"><title>uid_c</title>
<polygon fill="none" stroke="black" points="334,-0.5 334,-36.5 482,-36.5 482,-0.5 334,-0.5"/>
<text text-anchor="middle" x="358" y="-14.8" font-family="Times,serif" font-size="14.00">uid=c</text>
<polyline fill="none" stroke="black" points="382,-0.5 382,-36.5 "/>
<text text-anchor="middle" x="413" y="-14.8" font-family="Times,serif" font-size="14.00">fg 0.025</text>
<polyline fill="none" stroke="black" points="444,-0.5 444,-36.5 "/>
<text text-anchor="middle" x="463" y="-14.8" font-family="Times,serif" font-size="14.00">t 30</text>
</g>
<!-- child_or1&#45;&gt;uid_c -->
<g id="edge7" class="edge"><title>child_or1&#45;&gt;uid_c</title>
<path fill="none" stroke="black" d="M318.264,-73.4937C334.057,-63.9914 353.926,-52.0363 370.951,-41.7924"/>
<polygon fill="black" stroke="black" points="372.794,-44.7682 379.558,-36.6136 369.185,-38.7703 372.794,-44.7682"/>
</g>
<!-- cn_bar -->
<g id="node7" class="node"><title>cn_bar</title>
<polygon fill="none" stroke="black" points="500.5,-0.5 500.5,-36.5 655.5,-36.5 655.5,-0.5 500.5,-0.5"/>
<text text-anchor="middle" x="528" y="-14.8" font-family="Times,serif" font-size="14.00">cn=bar</text>
<polyline fill="none" stroke="black" points="555.5,-0.5 555.5,-36.5 "/>
<text text-anchor="middle" x="586.5" y="-14.8" font-family="Times,serif" font-size="14.00">fg 0.025</text>
<polyline fill="none" stroke="black" points="617.5,-0.5 617.5,-36.5 "/>
<text text-anchor="middle" x="636.5" y="-14.8" font-family="Times,serif" font-size="14.00">t 30</text>
</g>
<!-- child_not1&#45;&gt;cn_bar -->
<g id="edge8" class="edge"><title>child_not1&#45;&gt;cn_bar</title>
<path fill="none" stroke="black" d="M540.104,-73.3129C546.122,-64.7662 553.514,-54.2695 560.167,-44.8229"/>
<polygon fill="black" stroke="black" points="563.112,-46.7202 566.008,-36.5288 557.388,-42.6897 563.112,-46.7202"/>
</g>
</g>
</svg>
