<?xml version="1.0" encoding="UTF-8" standalone="no"?>
<!DOCTYPE svg PUBLIC "-//W3C//DTD SVG 1.1//EN"
 "http://www.w3.org/Graphics/SVG/1.1/DTD/svg11.dtd">
<!-- Generated by graphviz version 2.30.1 (20140821.0912)
 -->
<!-- Title: FilterBasic Pages: 1 -->
<svg width="264pt" height="120pt"
 viewBox="0.00 0.00 264.00 120.00" xmlns="http://www.w3.org/2000/svg" xmlns:xlink="http://www.w3.org/1999/xlink">
<g id="graph0" class="graph" transform="scale(1 1) rotate(0) translate(4 116)">
<title>FilterBasic</title>
<polygon fill="white" stroke="white" points="-4,5 -4,-116 261,-116 261,5 -4,5"/>
<!-- root_and -->
<g id="node1" class="node"><title>root_and</title>
<polygon fill="none" stroke="black" points="79,-75 79,-111 133,-111 133,-75 79,-75"/>
<text text-anchor="middle" x="106" y="-89.3" font-family="Times,serif" font-size="14.00">&amp;</text>
</g>
<!-- uid_baz -->
<g id="node2" class="node"><title>uid_baz</title>
<polygon fill="none" stroke="black" points="-0.5,-1 -0.5,-37 60.5,-37 60.5,-1 -0.5,-1"/>
<text text-anchor="middle" x="30" y="-15.3" font-family="Times,serif" font-size="14.00">uid=baz</text>
</g>
<!-- root_and&#45;&gt;uid_baz -->
<g id="edge1" class="edge"><title>root_and&#45;&gt;uid_baz</title>
<path fill="none" stroke="black" d="M87.9891,-74.937C78.3109,-65.7682 66.2144,-54.3084 55.5772,-44.2311"/>
<polygon fill="black" stroke="black" points="57.8117,-41.5267 48.145,-37.19 52.9975,-46.6084 57.8117,-41.5267"/>
</g>
<!-- cn_bar -->
<g id="node3" class="node"><title>cn_bar</title>
<polygon fill="none" stroke="black" points="78.5,-1 78.5,-37 133.5,-37 133.5,-1 78.5,-1"/>
<text text-anchor="middle" x="106" y="-15.3" font-family="Times,serif" font-size="14.00">cn=bar</text>
</g>
<!-- root_and&#45;&gt;cn_bar -->
<g id="edge2" class="edge"><title>root_and&#45;&gt;cn_bar</title>
<path fill="none" stroke="black" d="M106,-74.937C106,-66.8072 106,-56.8761 106,-47.7047"/>
<polygon fill="black" stroke="black" points="109.5,-47.4406 106,-37.4407 102.5,-47.4407 109.5,-47.4406"/>
</g>
<!-- oc_foo -->
<g id="node4" class="node"><title>oc_foo</title>
<polygon fill="none" stroke="black" points="151.5,-1 151.5,-37 256.5,-37 256.5,-1 151.5,-1"/>
<text text-anchor="middle" x="204" y="-15.3" font-family="Times,serif" font-size="14.00">objectClass=foo</text>
</g>
<!-- root_and&#45;&gt;oc_foo -->
<g id="edge3" class="edge"><title>root_and&#45;&gt;oc_foo</title>
<path fill="none" stroke="black" d="M129.225,-74.937C142.068,-65.5012 158.214,-53.6389 172.212,-43.3541"/>
<polygon fill="black" stroke="black" points="174.616,-45.9314 180.602,-37.19 170.471,-40.2902 174.616,-45.9314"/>
</g>
</g>
</svg>
